<svg id="Grupo_145675" data-name="Grupo 145675" xmlns="http://www.w3.org/2000/svg" xmlns:xlink="http://www.w3.org/1999/xlink" width="423.97" height="404.302" viewBox="0 0 423.97 404.302">
  <defs>
    <clipPath id="clip-path">
      <rect id="Rectángulo_44532" data-name="Rectángulo 44532" width="423.97" height="404.302" fill="none"/>
    </clipPath>
    <clipPath id="clip-path-2">
      <path id="Trazado_197638" data-name="Trazado 197638" d="M49.376,149.251,38.12,197.081l9.961,5.46,1.523-.34L61.938,149.79l-1.211-.984Z" fill="none"/>
    </clipPath>
  </defs>
  <path id="Trazado_197622" data-name="Trazado 197622" d="M78.667,353.1l85.682-9.869-61.807-65.347Z" fill="#5e8083"/>
  <path id="Trazado_197623" data-name="Trazado 197623" d="M94.824,351.242l1.4-4.875L91.2,344.14l1.671-4.674L86.9,337.1l1.743-5.156L85.65,331.1l-6.983,22Z" fill="#fff"/>
  <g id="Grupo_145670" data-name="Grupo 145670">
    <g id="Grupo_145669" data-name="Grupo 145669" clip-path="url(#clip-path)">
      <path id="Trazado_197624" data-name="Trazado 197624" d="M147.652,314.041l6.157,4.309s-7.526,10.369-19.007,25.624C124.3,357.93,115.2,369.511,115.2,369.511l-2.383-1.667s7.863-12.458,17.279-27.166c11.62-18.151,17.56-26.637,17.56-26.637" fill="#849da0"/>
      <path id="Trazado_197625" data-name="Trazado 197625" d="M140.617,336.216c8.138-10.9,13.192-17.866,13.192-17.866l-6.157-4.309s-4.154,5.937-12.3,18.487Z" fill="#a7b9bb"/>
      <path id="Trazado_197626" data-name="Trazado 197626" d="M112.916,365.172l4.605,3.223a2.361,2.361,0,0,1,.581,3.287l-4.908,4.855a3.367,3.367,0,0,1-4.3.365l-1.017-.712a3.369,3.369,0,0,1-1.13-4.164l2.88-6.273a2.36,2.36,0,0,1,3.288-.581" fill="#fff"/>
      <path id="Trazado_197627" data-name="Trazado 197627" d="M112.665,373.092a94.276,94.276,0,0,1,.477,16.241,45.535,45.535,0,0,1-3.055,14.943s-.212.328-.907-1.33-2.091-12.876-1.149-16.636a63.778,63.778,0,0,1,2.654-8.138,23.734,23.734,0,0,0,.555-5.032Z" fill="#14afde"/>
      <path id="Trazado_197628" data-name="Trazado 197628" d="M113.446,370.586a94.275,94.275,0,0,1,16.241-.477,45.535,45.535,0,0,1,14.943,3.055s.328.212-1.33.907-12.876,2.091-16.636,1.149a63.781,63.781,0,0,1-8.138-2.654,23.751,23.751,0,0,0-5.032-.556Z" fill="#14afde"/>
      <path id="Trazado_197629" data-name="Trazado 197629" d="M110.941,369.8a94.277,94.277,0,0,1-.477-16.241,45.535,45.535,0,0,1,3.055-14.943s.212-.328.907,1.33,2.091,12.876,1.149,16.636a63.777,63.777,0,0,1-2.654,8.138,23.735,23.735,0,0,0-.555,5.032Z" fill="#14afde"/>
      <path id="Trazado_197630" data-name="Trazado 197630" d="M110.16,372.311a94.291,94.291,0,0,1-16.242.477,45.535,45.535,0,0,1-14.943-3.055s-.327-.212,1.33-.907,12.876-2.091,16.636-1.149a63.781,63.781,0,0,1,8.138,2.654,23.733,23.733,0,0,0,5.032.555Z" fill="#14afde"/>
      <path id="Trazado_197631" data-name="Trazado 197631" d="M108.343,371.131a3.6,3.6,0,1,1,3.181,3.97,3.6,3.6,0,0,1-3.181-3.97" fill="#a7b9bb"/>
      <path id="Trazado_197632" data-name="Trazado 197632" d="M0,221.444l98.086,56.847L93.111,158.533Z" fill="#5e8083"/>
      <path id="Trazado_197633" data-name="Trazado 197633" d="M16.267,230.872l4.092-2.86-5.931-5.922,6.778-2.961-5.93-4.441,5.93-5.182-1.386-1.453L0,221.444Z" fill="#fff"/>
      <rect id="Rectángulo_44526" data-name="Rectángulo 44526" width="52.194" height="32.923" transform="matrix(0.229, -0.973, 0.973, 0.229, 49.397, 201.077)" fill="#f5e782"/>
      <rect id="Rectángulo_44527" data-name="Rectángulo 44527" width="12.555" height="11.233" transform="translate(64.151 167.847) rotate(-76.757)" fill="#874f17"/>
      <rect id="Rectángulo_44528" data-name="Rectángulo 44528" width="10.738" height="9.886" transform="translate(65.014 167.116) rotate(-76.756)" fill="#bbe8f5"/>
      <path id="Trazado_197634" data-name="Trazado 197634" d="M72.012,156.8l-1.324,5.628L65.7,161.254l-.227.965,4.985,1.173-1.325,5.628.965.227,1.324-5.628,4.985,1.173.227-.965-4.985-1.173,1.325-5.628Z" fill="#874f17"/>
      <rect id="Rectángulo_44529" data-name="Rectángulo 44529" width="12.555" height="11.233" transform="translate(56.863 198.816) rotate(-76.757)" fill="#874f17"/>
      <rect id="Rectángulo_44530" data-name="Rectángulo 44530" width="10.737" height="9.886" transform="translate(57.726 198.085) rotate(-76.756)" fill="#bbe8f5"/>
      <path id="Trazado_197635" data-name="Trazado 197635" d="M64.724,187.767,63.4,193.4l-4.984-1.173-.227.965,4.984,1.173-1.324,5.628.965.227,1.324-5.628,4.985,1.173.227-.965-4.985-1.173,1.325-5.628Z" fill="#874f17"/>
      <path id="Trazado_197636" data-name="Trazado 197636" d="M88.484,189.748l-16.507-3.885a5.8,5.8,0,0,1,2.653-11.275l16.508,3.885Z" fill="#874f17"/>
      <path id="Trazado_197637" data-name="Trazado 197637" d="M49.376,149.251,38.12,197.08l9.962,5.46,1.522-.34,12.334-52.41-1.211-.984Z" fill="#dd474a"/>
      <rect id="Rectángulo_44531" data-name="Rectángulo 44531" width="56.555" height="2.433" transform="translate(47.615 203.299) rotate(-76.757)" fill="#874f17"/>
    </g>
  </g>
  <g id="Grupo_145672" data-name="Grupo 145672">
    <g id="Grupo_145671" data-name="Grupo 145671" clip-path="url(#clip-path-2)">
      <rect id="Rectángulo_44533" data-name="Rectángulo 44533" width="16.144" height="0.991" transform="matrix(1, -0.02, 0.02, 1, 47.702, 150.601)" fill="#874f17"/>
      <rect id="Rectángulo_44534" data-name="Rectángulo 44534" width="0.991" height="15.962" transform="translate(46.671 155.965) rotate(-88.402)" fill="#874f17"/>
      <rect id="Rectángulo_44535" data-name="Rectángulo 44535" width="0.991" height="15.819" transform="translate(45.619 160.328) rotate(-85.54)" fill="#874f17"/>
      <rect id="Rectángulo_44536" data-name="Rectángulo 44536" width="0.992" height="15.717" transform="translate(44.567 164.692) rotate(-82.638)" fill="#874f17"/>
      <rect id="Rectángulo_44537" data-name="Rectángulo 44537" width="0.992" height="15.654" transform="translate(43.514 169.053) rotate(-79.704)" fill="#874f17"/>
      <rect id="Rectángulo_44538" data-name="Rectángulo 44538" width="0.991" height="15.634" transform="matrix(0.229, -0.973, 0.973, 0.229, 42.461, 173.415)" fill="#874f17"/>
      <rect id="Rectángulo_44539" data-name="Rectángulo 44539" width="0.991" height="15.654" transform="translate(41.411 177.768) rotate(-73.777)" fill="#874f17"/>
      <rect id="Rectángulo_44540" data-name="Rectángulo 44540" width="0.992" height="15.716" transform="translate(40.358 182.13) rotate(-70.871)" fill="#874f17"/>
      <rect id="Rectángulo_44541" data-name="Rectángulo 44541" width="0.991" height="15.819" transform="translate(39.306 186.493) rotate(-68.016)" fill="#874f17"/>
      <rect id="Rectángulo_44542" data-name="Rectángulo 44542" width="0.991" height="15.962" transform="translate(38.257 190.843) rotate(-65.116)" fill="#874f17"/>
      <rect id="Rectángulo_44543" data-name="Rectángulo 44543" width="0.991" height="16.143" transform="matrix(0.464, -0.886, 0.886, 0.464, 37.206, 195.202)" fill="#874f17"/>
    </g>
  </g>
  <g id="Grupo_145674" data-name="Grupo 145674">
    <g id="Grupo_145673" data-name="Grupo 145673" clip-path="url(#clip-path)">
      <path id="Trazado_197639" data-name="Trazado 197639" d="M46.208,151.161l-3.673,15.608a2.493,2.493,0,0,1-3,1.855l-3.8-.893a2.493,2.493,0,0,1-1.855-3l3.673-15.608a2.492,2.492,0,0,1,3-1.855l3.8.894a2.491,2.491,0,0,1,1.855,3" fill="#95abad"/>
      <path id="Trazado_197640" data-name="Trazado 197640" d="M56.8,151.539l-4.666,19.827-11.39-5.518,3.4-14.45Z" fill="#4f7477"/>
      <path id="Trazado_197641" data-name="Trazado 197641" d="M55.612,152.817l-3.971,16.874-9.8-4.72,2.894-12.3Z" fill="#eaf8fc"/>
      <path id="Trazado_197642" data-name="Trazado 197642" d="M50.523,169.617l4.039-17.163-.574,0-3.979,16.911Z" fill="#4f7477"/>
      <path id="Trazado_197643" data-name="Trazado 197643" d="M48.79,168.761l3.839-16.313-.574,0-3.78,16.061Z" fill="#4f7477"/>
      <path id="Trazado_197644" data-name="Trazado 197644" d="M47.057,167.905,50.7,152.441l-.574,0-3.58,15.212Z" fill="#4f7477"/>
      <path id="Trazado_197645" data-name="Trazado 197645" d="M45.324,167.049l3.439-14.614-.574,0L44.809,166.8Z" fill="#4f7477"/>
      <path id="Trazado_197646" data-name="Trazado 197646" d="M43.591,166.193l3.239-13.765-.573,0-3.18,13.513Z" fill="#4f7477"/>
      <path id="Trazado_197647" data-name="Trazado 197647" d="M371.869,348.987l8.119-16.671-2.861-2.462-11.7,13.593Z" fill="#799598"/>
      <rect id="Rectángulo_44544" data-name="Rectángulo 44544" width="26.61" height="63.865" transform="translate(316.006 303.543) rotate(-49.29)" fill="#4f7477"/>
      <rect id="Rectángulo_44545" data-name="Rectángulo 44545" width="21.52" height="3.209" transform="matrix(0.652, -0.758, 0.758, 0.652, 360.07, 338.1)" fill="#799598"/>
      <rect id="Rectángulo_44546" data-name="Rectángulo 44546" width="21.519" height="3.209" transform="translate(354.443 333.257) rotate(-49.291)" fill="#799598"/>
      <rect id="Rectángulo_44547" data-name="Rectángulo 44547" width="21.519" height="3.209" transform="translate(348.815 328.415) rotate(-49.291)" fill="#799598"/>
      <rect id="Rectángulo_44548" data-name="Rectángulo 44548" width="7.74" height="3.209" transform="translate(352.175 313.127) rotate(-49.291)" fill="#799598"/>
      <rect id="Rectángulo_44549" data-name="Rectángulo 44549" width="7.739" height="3.209" transform="translate(343.187 323.571) rotate(-49.285)" fill="#799598"/>
      <rect id="Rectángulo_44550" data-name="Rectángulo 44550" width="7.739" height="3.209" transform="translate(346.547 308.284) rotate(-49.286)" fill="#799598"/>
      <rect id="Rectángulo_44551" data-name="Rectángulo 44551" width="7.739" height="3.209" transform="translate(337.559 318.729) rotate(-49.285)" fill="#799598"/>
      <rect id="Rectángulo_44552" data-name="Rectángulo 44552" width="7.739" height="3.209" transform="translate(340.918 303.441) rotate(-49.286)" fill="#799598"/>
      <rect id="Rectángulo_44553" data-name="Rectángulo 44553" width="7.739" height="3.209" transform="translate(331.931 313.886) rotate(-49.285)" fill="#799598"/>
      <rect id="Rectángulo_44554" data-name="Rectángulo 44554" width="7.74" height="3.209" transform="translate(335.29 298.599) rotate(-49.291)" fill="#799598"/>
      <rect id="Rectángulo_44555" data-name="Rectángulo 44555" width="7.739" height="3.209" transform="translate(326.303 309.043) rotate(-49.285)" fill="#799598"/>
      <path id="Trazado_197648" data-name="Trazado 197648" d="M419.866,96.813a2.435,2.435,0,0,0-3.8-.717,2.11,2.11,0,0,0-2.106-.78,3.323,3.323,0,0,0-5.652-2.913,5.07,5.07,0,0,0-8.169,2.183,3.978,3.978,0,0,0-4.807.674,3.319,3.319,0,0,0-5.865,1.255,3.132,3.132,0,0,0-.853-.092,2.965,2.965,0,0,0-.356.052,3.146,3.146,0,0,0-6.024.546,2.584,2.584,0,0,0-.8-.1,2.617,2.617,0,0,0-1.528.584,1.392,1.392,0,0,0-.92-.3,1.406,1.406,0,0,0-1.341,1.466,1.489,1.489,0,0,0,.032.214,1.111,1.111,0,0,0-.2-.03,1.229,1.229,0,1,0,1.283,1.172c0-.018-.012-.034-.013-.052a1.469,1.469,0,0,0,.221.029,2.625,2.625,0,0,0,5.045.478,3.123,3.123,0,0,0,1.459.3,3.178,3.178,0,0,0,.356-.052,3.147,3.147,0,0,0,5.249.995,2.8,2.8,0,0,0,4.63-.128,2.626,2.626,0,0,0,3.777,2.206,3.309,3.309,0,0,0,5.148-1.024,3.992,3.992,0,0,0,6.245.994,3.815,3.815,0,0,0,2.354.688c.046,0,.089-.016.135-.019a3.32,3.32,0,0,0,5.471.66,4.2,4.2,0,1,0,1.028-8.289" fill="#999"/>
      <path id="Trazado_197649" data-name="Trazado 197649" d="M405.771,111.929a2.507,2.507,0,0,0-2.473-1.259,2.475,2.475,0,0,0-1.2.487,2.33,2.33,0,0,0-3.623.128,3.153,3.153,0,0,0-.576-.1,2.275,2.275,0,0,0,.01-.566,2.34,2.34,0,0,0-2.593-2.056,2.314,2.314,0,0,0-1.141.468,27.724,27.724,0,0,1-6.1-1.986,2.329,2.329,0,0,0-1.9,1.468,1.729,1.729,0,0,0-.306-.02,15.519,15.519,0,0,1-3.2-.15,1.337,1.337,0,1,0,1.438,1.7c.045.016.09.032.137.044a1.51,1.51,0,0,0,0,.26,1.67,1.67,0,0,0,1.852,1.468,1.653,1.653,0,0,0,.985-.484,2.281,2.281,0,0,0,2.027.244,2,2,0,0,0,2.2,1.657,1.893,1.893,0,0,0,.226-.05,2,2,0,0,0,2.105,1.294,1.974,1.974,0,0,0,.861-.318,3.127,3.127,0,0,0,.008.555,3.176,3.176,0,0,0,3.519,2.79,3.21,3.21,0,0,0,.524-.115,3.106,3.106,0,0,0,3.988,1.09,4.167,4.167,0,1,0,3.228-6.551" fill="#999"/>
      <path id="Trazado_197650" data-name="Trazado 197650" d="M413.25,75.775a5.218,5.218,0,0,0-2.2.534,6.972,6.972,0,0,0-12.857,2.2,5.64,5.64,0,0,0-2.782-.678c-.121,0-.239.015-.358.025a4.34,4.34,0,0,0-7.818-.216,4.863,4.863,0,0,0-.986-.086,4.785,4.785,0,0,0-4.652,4.152,3.408,3.408,0,0,0-4.24,2.455,3.9,3.9,0,0,0-5.743,4.986,2.18,2.18,0,1,0,2.227,2.141,2.011,2.011,0,0,0-.029-.247,3.878,3.878,0,0,0,1.337.224,3.924,3.924,0,0,0,3.79-3.209,3.457,3.457,0,0,0,4.957-1.592,4.725,4.725,0,0,0,6.224-1.208,5.665,5.665,0,0,0,10.721.152,6.948,6.948,0,0,0,9-.518,5.23,5.23,0,1,0,3.409-9.113" fill="#999"/>
      <rect id="Rectángulo_44556" data-name="Rectángulo 44556" width="35.279" height="3.92" transform="translate(340.945 111.334) rotate(-35.888)" fill="#604730"/>
      <rect id="Rectángulo_44557" data-name="Rectángulo 44557" width="35.279" height="3.92" transform="translate(347.121 119.869) rotate(-35.888)" fill="#604730"/>
      <rect id="Rectángulo_44558" data-name="Rectángulo 44558" width="35.279" height="3.92" transform="translate(353.296 128.404) rotate(-35.888)" fill="#604730"/>
      <path id="Trazado_197651" data-name="Trazado 197651" d="M358.728,131.731l7.543-5.457-4.6-6.352-7.543,5.457-1.579-2.183,7.542-5.457-4.6-6.352-7.542,5.457-1.58-2.183,7.543-5.457-4.6-6.352-7.543,5.457-2.154-2.977-21.039,15.223,23.84,32.949,21.039-15.223Z" fill="#874f17"/>
      <rect id="Rectángulo_44559" data-name="Rectángulo 44559" width="5.839" height="3.594" transform="translate(331.476 116.273) rotate(-35.888)" fill="#f5e782"/>
      <rect id="Rectángulo_44560" data-name="Rectángulo 44560" width="5.839" height="3.594" transform="translate(334.887 121.071) rotate(-35.888)" fill="#f5e782"/>
      <rect id="Rectángulo_44561" data-name="Rectángulo 44561" width="5.839" height="3.594" transform="translate(338.299 125.869) rotate(-35.888)" fill="#f5e782"/>
      <rect id="Rectángulo_44562" data-name="Rectángulo 44562" width="5.839" height="3.594" transform="translate(341.71 130.667) rotate(-35.888)" fill="#f5e782"/>
      <rect id="Rectángulo_44563" data-name="Rectángulo 44563" width="5.839" height="3.594" transform="translate(345.122 135.465) rotate(-35.888)" fill="#f5e782"/>
      <rect id="Rectángulo_44564" data-name="Rectángulo 44564" width="5.839" height="3.594" transform="translate(348.533 140.263) rotate(-35.888)" fill="#f5e782"/>
      <rect id="Rectángulo_44565" data-name="Rectángulo 44565" width="49.554" height="30.693" transform="translate(348.117 182.443) rotate(-8.52)" fill="#8aa3a5"/>
      <rect id="Rectángulo_44566" data-name="Rectángulo 44566" width="6.212" height="12.7" transform="translate(400.852 189.316) rotate(-8.522)" fill="#8aa3a5"/>
      <rect id="Rectángulo_44567" data-name="Rectángulo 44567" width="4.624" height="2.515" transform="translate(400.487 190.873) rotate(-8.53)" fill="#4f7477"/>
      <rect id="Rectángulo_44568" data-name="Rectángulo 44568" width="1.671" height="31.18" transform="translate(396.998 174.874) rotate(-8.521)" fill="#4f7477"/>
      <rect id="Rectángulo_44569" data-name="Rectángulo 44569" width="3.857" height="7.299" transform="translate(390.607 179.941) rotate(-8.517)" fill="#4f7477"/>
      <rect id="Rectángulo_44570" data-name="Rectángulo 44570" width="3.857" height="7.3" transform="translate(392.914 195.342) rotate(-8.524)" fill="#4f7477"/>
      <rect id="Rectángulo_44571" data-name="Rectángulo 44571" width="3.857" height="7.299" transform="translate(381.834 181.256) rotate(-8.517)" fill="#4f7477"/>
      <rect id="Rectángulo_44572" data-name="Rectángulo 44572" width="3.858" height="7.299" transform="translate(384.14 196.657) rotate(-8.524)" fill="#4f7477"/>
      <rect id="Rectángulo_44573" data-name="Rectángulo 44573" width="3.892" height="7.364" transform="translate(373.063 182.604) rotate(-8.52)" fill="#4f7477"/>
      <rect id="Rectángulo_44574" data-name="Rectángulo 44574" width="3.892" height="7.364" transform="translate(375.391 198.142) rotate(-8.52)" fill="#4f7477"/>
      <rect id="Rectángulo_44575" data-name="Rectángulo 44575" width="3.858" height="7.299" transform="translate(364.285 183.885) rotate(-8.524)" fill="#4f7477"/>
      <rect id="Rectángulo_44576" data-name="Rectángulo 44576" width="3.858" height="7.299" transform="translate(366.592 199.286) rotate(-8.524)" fill="#4f7477"/>
      <rect id="Rectángulo_44577" data-name="Rectángulo 44577" width="3.857" height="7.3" transform="translate(355.511 185.2) rotate(-8.524)" fill="#4f7477"/>
      <rect id="Rectángulo_44578" data-name="Rectángulo 44578" width="3.857" height="7.299" transform="translate(357.82 200.6) rotate(-8.517)" fill="#4f7477"/>
      <rect id="Rectángulo_44579" data-name="Rectángulo 44579" width="1.08" height="13.267" transform="translate(406.617 188.166) rotate(-8.522)" fill="#4f7477"/>
      <rect id="Rectángulo_44580" data-name="Rectángulo 44580" width="70.183" height="30.866" transform="matrix(0.949, -0.317, 0.317, 0.949, 339.541, 154.305)" fill="#799598"/>
      <path id="Trazado_197652" data-name="Trazado 197652" d="M404.614,158.923l-.873-2.614,5.228-1.745.873,2.614Zm-1.745-5.228L402,151.081l5.228-1.745.873,2.614Zm-1.746-5.228-.872-2.614,5.228-1.745.872,2.614Zm-1.745-5.228-.873-2.614,5.228-1.745.873,2.614Z" fill="#4f7477"/>
      <path id="Trazado_197653" data-name="Trazado 197653" d="M392.938,162.821l-.873-2.614,5.228-1.745.873,2.614Zm-1.745-5.228-.873-2.614,5.228-1.745.873,2.614Zm-1.746-5.228-.872-2.614,5.228-1.745.872,2.614Zm-1.745-5.228-.873-2.614,5.228-1.745.873,2.614Z" fill="#4f7477"/>
      <path id="Trazado_197654" data-name="Trazado 197654" d="M381.262,166.719l-.873-2.614,5.228-1.745.873,2.614Zm-1.745-5.228-.873-2.614,5.228-1.745.873,2.614Zm-1.746-5.228-.872-2.614,5.228-1.745.872,2.614Zm-1.745-5.228-.873-2.614,5.228-1.745.873,2.614Z" fill="#4f7477"/>
      <path id="Trazado_197655" data-name="Trazado 197655" d="M369.585,170.617,368.712,168l5.228-1.745.873,2.614Zm-1.745-5.228-.873-2.614,5.228-1.745.873,2.614Zm-1.746-5.228-.872-2.614,5.228-1.745.872,2.614Zm-1.745-5.228-.873-2.614,5.228-1.745.873,2.614Z" fill="#4f7477"/>
      <path id="Trazado_197656" data-name="Trazado 197656" d="M357.909,174.515l-.873-2.614,5.228-1.745.873,2.614Zm-1.745-5.228-.873-2.614,5.228-1.745.873,2.614Zm-1.746-5.228-.872-2.614,5.228-1.745.872,2.614Zm-1.745-5.228-.873-2.614,5.228-1.745.873,2.614Z" fill="#4f7477"/>
      <rect id="Rectángulo_44581" data-name="Rectángulo 44581" width="4.96" height="17.821" transform="translate(406.956 134.608) rotate(-18.46)" fill="#4f7477"/>
      <path id="Trazado_197657" data-name="Trazado 197657" d="M414.5,141.468l-1.745-5.228,4.356-1.455s.714.221,1.428,2.338c.758,2.247.318,2.891.318,2.891Z" fill="#799598"/>
      <rect id="Rectángulo_44582" data-name="Rectángulo 44582" width="3.307" height="5.642" transform="matrix(0.949, -0.317, 0.317, 0.949, 415.327, 144.016)" fill="#799598"/>
      <path id="Trazado_197658" data-name="Trazado 197658" d="M417.822,146.315a1.247,1.247,0,1,1,.788-1.577,1.247,1.247,0,0,1-.788,1.577" fill="#4f7477"/>
      <rect id="Rectángulo_44583" data-name="Rectángulo 44583" width="1.959" height="1.603" transform="translate(417.165 147.161) rotate(-18.481)" fill="#4f7477"/>
      <path id="Trazado_197659" data-name="Trazado 197659" d="M75.593,68.064l17.332,91.491,73.814-72.432Z" fill="#5e8083"/>
      <path id="Trazado_197660" data-name="Trazado 197660" d="M92.24,85.028l8.734.679-.514-8.745,8.734.679-.152-2.583-33.449-7,6.361,33.576,2.58.2-.514-8.746,8.734.679Z" fill="#fff"/>
      <path id="Trazado_197661" data-name="Trazado 197661" d="M112.6,127.17l-4.675,5.884s-9.893-8.143-24.421-20.53C70.208,101.192,59.2,91.4,59.2,91.4l1.809-2.277s11.956,8.607,26.064,18.9c17.41,12.7,25.52,19.146,25.52,19.146" fill="#849da0"/>
      <path id="Trazado_197662" data-name="Trazado 197662" d="M90.889,118.8c10.389,8.786,17.031,14.254,17.031,14.254l4.675-5.884s-5.673-4.507-17.7-13.406Z" fill="#a7b9bb"/>
      <path id="Trazado_197663" data-name="Trazado 197663" d="M63.672,89.389l-3.5,4.4a2.361,2.361,0,0,1-3.317.379l-4.547-5.194a3.367,3.367,0,0,1-.1-4.313l.773-.972a3.366,3.366,0,0,1,4.225-.874l6.086,3.256a2.361,2.361,0,0,1,.38,3.317" fill="#fff"/>
      <path id="Trazado_197664" data-name="Trazado 197664" d="M55.781,88.656a94.221,94.221,0,0,1-16.24-.511,45.542,45.542,0,0,1-14.729-3.958s-.315-.231,1.382-.824,12.98-1.306,16.676-.136a63.755,63.755,0,0,1,7.96,3.145,23.782,23.782,0,0,0,4.989.86Z" fill="#14afde"/>
      <path id="Trazado_197665" data-name="Trazado 197665" d="M58.235,89.589a94.36,94.36,0,0,1-.513,16.24,45.511,45.511,0,0,1-3.958,14.729s-.23.314-.824-1.382-1.305-12.98-.135-16.676a63.636,63.636,0,0,1,3.144-7.96,23.715,23.715,0,0,0,.86-4.989Z" fill="#14afde"/>
      <path id="Trazado_197666" data-name="Trazado 197666" d="M59.167,87.135a94.29,94.29,0,0,1,16.24.512,45.542,45.542,0,0,1,14.729,3.958s.315.231-1.382.824-12.98,1.305-16.676.136a63.755,63.755,0,0,1-7.96-3.145,23.782,23.782,0,0,0-4.989-.86Z" fill="#14afde"/>
      <path id="Trazado_197667" data-name="Trazado 197667" d="M56.713,86.2a94.29,94.29,0,0,1,.512-16.24,45.542,45.542,0,0,1,3.958-14.729s.231-.315.824,1.382,1.305,12.98.136,16.676A63.755,63.755,0,0,1,59,81.252a23.782,23.782,0,0,0-.86,4.989Z" fill="#14afde"/>
      <path id="Trazado_197668" data-name="Trazado 197668" d="M58,84.462A3.6,3.6,0,1,1,53.845,87.4,3.6,3.6,0,0,1,58,84.462" fill="#a7b9bb"/>
      <path id="Trazado_197669" data-name="Trazado 197669" d="M357,213.5a138,138,0,1,0-138,138,138,138,0,0,0,138-138" fill="#0490ba"/>
      <path id="Trazado_197670" data-name="Trazado 197670" d="M211.165,87.125a57.074,57.074,0,0,1-8.385-10.639c-.006-.01-.01-.02-.016-.03A138,138,0,0,0,107.64,295a67.22,67.22,0,0,0,4.943-10.693c1.448-4.033,2.469-8.658.524-12.476-2.594-5.092-9.481-6.832-12.074-11.925-2.43-4.773-.075-10.747,3.652-14.594a11.747,11.747,0,0,1,5.108-3.354c9.417-2.618,16.513,12.552,26.108,10.69,5.366-1.041,8.295-7.445,7.369-12.832s-4.617-9.844-8.39-13.8-7.87-7.841-9.979-12.883a19.815,19.815,0,0,1,2.508-19.309c6.4-8.347,18.04-10.072,28.447-11.6s22.138-4.479,27.036-13.789c4.289-8.154,2.227-19.536,9.148-25.618,5.327-4.68,13.4-3.8,20.159-5.929,10.5-3.309,17.519-15.167,15.362-25.966-1.914-9.589-9.628-16.74-16.4-23.8" fill="#8fc027"/>
      <path id="Trazado_197671" data-name="Trazado 197671" d="M257.617,265.567c-10.687-9.344-28.4-6.277-39.105-15.606-10.816-9.43-7.281-22.447-15.4-34.281-4.4-6.415-12.033-10.937-19.774-10.174S168.535,213.237,169,221c.438,7.311,4.574,9.3,3.388,16.529-.979,5.965-6.677,9.788-11.787,13.016s-10.669,7.44-11.06,13.472c-.364,5.6,3.96,10.459,4.714,16.019,1.057,7.794-4.882,14.552-9.857,20.644-5.014,6.141-9.54,13.254-11.271,20.844A137.408,137.408,0,0,0,219,351.5c1.441,0,2.875-.03,4.3-.073a27.382,27.382,0,0,1-1.749-10.388c.579-12.688,11.755-21.94,21.908-29.572s21.2-17.17,21.331-29.87a21.311,21.311,0,0,0-7.178-16.031" fill="#8fc027"/>
      <path id="Trazado_197672" data-name="Trazado 197672" d="M287.8,93.851l-.142-.079q-1.788-1.028-3.61-2.005l-.215-.113q-3.734-1.992-7.6-3.758l-.28-.128q-1.905-.864-3.839-1.672c-.085-.036-.17-.07-.255-.105q-1.857-.77-3.74-1.488l-.284-.11q-1.789-.675-3.6-1.3c-.338-.117-.675-.232-1.014-.346-.24-.081-.478-.167-.726-.236A137.821,137.821,0,0,0,219,75.5c-.367,0-.732.011-1.1.013.325.4.648.776.948,1.13,8.218,9.666,21.166,13.014,32.53,17.528a6.563,6.563,0,0,1,3.256,2.137,6.507,6.507,0,0,1,.671,3.858c-.29,8.281.47,15.806,4.752,23.088,2.626,4.467,6.321,8.787,6.289,13.969-.034,5.462-4.283,9.982-8.81,13.038-5.244,3.54-11.2,5.95-16.306,9.691s-9.46,9.368-9.309,15.693c.213,8.974,9.2,15.292,17.889,17.545s18.038,2.058,26.257,5.668c3.516,1.544,6.9,3.958,8.361,7.509,2.632,6.383-1.73,13.882.306,20.479,3.527,11.425,21.982,10.962,27.352,21.645,5.426,10.794-6.245,25.5.948,35.2,1.648,2.224,4.121,3.8,5.455,6.229,2.081,3.783.807,8.606-1.546,12.226s-5.667,6.524-8.132,10.069a25.823,25.823,0,0,0-3.985,9.28A138,138,0,0,0,287.8,93.851" fill="#c7a36d"/>
      <path id="Trazado_197673" data-name="Trazado 197673" d="M226.914,69.569l.17,8.8,2.987-.129-.184-9.574c-1,.276-1.995.562-2.973.9" fill="#b66f20"/>
      <path id="Trazado_197674" data-name="Trazado 197674" d="M234.628,66.139,233.28,77.793l2.97.707,1.481-13.169c-1.038.237-2.075.486-3.1.808" fill="#b66f20"/>
      <path id="Trazado_197675" data-name="Trazado 197675" d="M243.807,71.464l-2.282,7.648,2.89.78,1.807-6.022a23.645,23.645,0,0,1-2.415-2.406" fill="#b66f20"/>
      <path id="Trazado_197676" data-name="Trazado 197676" d="M252.889,73.024l-2.579,8.829,2.906.715,2.486-8.512c-.974-.308-1.915-.648-2.813-1.032" fill="#b66f20"/>
      <path id="Trazado_197677" data-name="Trazado 197677" d="M213.845,44.4l-2.286,1.925L227.216,64.92c.624-.786,1.285-1.555,1.952-2.321Z" fill="#b66f20"/>
      <path id="Trazado_197678" data-name="Trazado 197678" d="M217.536,28.965a6.551,6.551,0,0,0-11.9-4.291,8.687,8.687,0,0,0-11.922,10.8,7.919,7.919,0,0,0-1.018.718,7.994,7.994,0,0,0,7.021,13.889,5.117,5.117,0,0,0,9.586,2.557,7.446,7.446,0,0,0,11.407-9.555,7.294,7.294,0,0,0-3.173-14.117" fill="#18672e"/>
      <path id="Trazado_197679" data-name="Trazado 197679" d="M289.773,27.7a8.6,8.6,0,0,0-10.115-7.983c0-.181.006-.359,0-.541a14.388,14.388,0,0,0-27.447-5.124,11.483,11.483,0,0,0-13.949,11.925c0,.061.015.119.02.18l51.089,4.706a8.588,8.588,0,0,0,.407-3.163" fill="#333"/>
      <path id="Trazado_197680" data-name="Trazado 197680" d="M423.449,246.29a5.008,5.008,0,0,0-8.8-2.984,2.355,2.355,0,0,0-3.667,1.875c-.1,0-.19-.018-.289-.013a3.662,3.662,0,0,0-1.266.315,2.715,2.715,0,0,0-3.895-1.014,3.34,3.34,0,0,0-5.424-1.053,2.8,2.8,0,0,0-3.478.137,2.738,2.738,0,0,0-.333-.191,2.728,2.728,0,0,0,.5-1.723,2.757,2.757,0,0,0-2.91-2.6,2.614,2.614,0,0,0-.368.059,1.932,1.932,0,0,0-1.875-1.354,1.686,1.686,0,0,0,.009-.214,1.634,1.634,0,1,0-1.861,1.711,1.908,1.908,0,0,0-.056.547,1.938,1.938,0,0,0,1.572,1.789,2.7,2.7,0,0,0-.016.372,2.746,2.746,0,0,0,1.546,2.309,2.726,2.726,0,0,0-.5,1.723,2.757,2.757,0,0,0,4.423,2.036,2.84,2.84,0,0,0,1.863.571c.062,0,.119-.021.18-.029a2.727,2.727,0,0,0-.043.635,5.6,5.6,0,0,0,7.838,2.763,2.762,2.762,0,0,0,1.67,1.424,3.685,3.685,0,0,0,6.4,2.123,4.729,4.729,0,0,0,7.556-5.655,4.99,4.99,0,0,0,1.219-3.563" fill="#6e6e6e"/>
      <path id="Trazado_197681" data-name="Trazado 197681" d="M412.018,304.074a5.541,5.541,0,0,0-4.968-2.864,4.369,4.369,0,0,0-.252-.588,4.446,4.446,0,0,0-1.642-1.674,4.711,4.711,0,0,0-4.118-5.253,4.7,4.7,0,0,0-3.827-.721,3.652,3.652,0,0,0-4.065-1.923,3.812,3.812,0,0,0,.029-.661,3.865,3.865,0,0,0-3.334-3.607,3.459,3.459,0,0,0-3.3-1.925,3.422,3.422,0,0,0-2.176.958,1.985,1.985,0,0,0-2.152-.078,2.625,2.625,0,0,0-4.623.139,2.558,2.558,0,0,0-2.649-.414c0-.049.009-.1.006-.146a1.628,1.628,0,1,0-1.533,1.718h0a2.64,2.64,0,0,0,4.846,2.069,2.611,2.611,0,0,0,3.54-.168c.029.029.055.061.086.088a2.617,2.617,0,0,0-.327,1.419,2.638,2.638,0,0,0,4.3,1.9,3.859,3.859,0,0,0,1.146,1.348,2.813,2.813,0,0,0,3.717,3.428,3.864,3.864,0,0,0,1.036.967,3.422,3.422,0,0,0-.3,1.575,3.365,3.365,0,0,0,.195.919,4.362,4.362,0,0,0,.6,5.534,5.513,5.513,0,0,0,.51,4.051c.087.158.181.308.281.454a6.334,6.334,0,1,0,10.428,6.726,5.237,5.237,0,0,0,6.2-5.663c.053-.027.107-.049.159-.078a5.544,5.544,0,0,0,2.178-7.531" fill="#6e6e6e"/>
      <path id="Trazado_197682" data-name="Trazado 197682" d="M418.716,274.661a5.874,5.874,0,0,0-3.445-6.1,5.782,5.782,0,0,0-.915-.313,4.962,4.962,0,0,0-5.3-2.776,4.139,4.139,0,0,0-1.625-1.31,4.182,4.182,0,0,0-4.843,1.08,3.425,3.425,0,0,0-4.433-.241,2.3,2.3,0,0,0-3.088.05,2.038,2.038,0,0,0-1.736.115,2.783,2.783,0,0,0-2.834-2.018,2.753,2.753,0,0,0-1.776.794,1.622,1.622,0,0,0-1.612-1.066,1.655,1.655,0,0,0-.293.047,1.85,1.85,0,0,0-2.461-.784,1.619,1.619,0,0,0-1.37-.652c0-.038.007-.075.005-.113a1.43,1.43,0,1,0-1.546,1.5,1.692,1.692,0,0,0-.014.327,1.626,1.626,0,0,0,1.715,1.53,1.647,1.647,0,0,0,.394-.077,1.85,1.85,0,0,0,1.107.917,2.044,2.044,0,0,0-.03.471,2.089,2.089,0,0,0,2.205,1.967.189.189,0,0,0,.023,0,1.965,1.965,0,0,0,3.614.691,2.755,2.755,0,0,0,.342.014,1.85,1.85,0,0,0,1.388,1.145,2.8,2.8,0,0,0-.012.29,2.89,2.89,0,0,0,4.563,2.2,1.912,1.912,0,0,0,2.161.726,3.407,3.407,0,0,0-.128,1.092,3.449,3.449,0,0,0,3.346,3.244c.012.005.022.014.035.019a4.145,4.145,0,0,0,1.832.345,5.87,5.87,0,0,0,9.448,5.747,5.25,5.25,0,0,0,5.283-8.863" fill="#6e6e6e"/>
      <path id="Trazado_197683" data-name="Trazado 197683" d="M388.566,238.45l.846-2.4-17.378-7.278-1.565,4.434Z" fill="#4d3118"/>
      <path id="Trazado_197684" data-name="Trazado 197684" d="M380.146,262.311l.846-2.4-17.378-7.278-1.565,4.434Z" fill="#4d3118"/>
      <path id="Trazado_197685" data-name="Trazado 197685" d="M371.725,286.171l.846-2.4L355.193,276.5l-1.565,4.434Z" fill="#4d3118"/>
      <path id="Trazado_197686" data-name="Trazado 197686" d="M356.06,273.83l5.819,2.053,2.6-25.914,5.818,2.054,2.737-27.254-18.105-6.681-25.7,72.816,24.223,8.84Z" fill="#874f17"/>
      <path id="Trazado_197687" data-name="Trazado 197687" d="M356.843,244.205l.67-1.9,3.167,1.117-.67,1.9Zm.894-2.534.67-1.9,3.168,1.118-.671,1.9Zm.894-2.534.671-1.9,3.167,1.118-.671,1.9Zm.894-2.534.671-1.9,3.167,1.118-.67,1.9Zm.894-2.533.671-1.9,3.167,1.118-.67,1.9Zm.895-2.534.67-1.9,3.168,1.118-.671,1.9Zm.894-2.534.67-1.9,3.168,1.118-.671,1.9Zm.894-2.534.671-1.9,3.167,1.117-.671,1.9Z" fill="#f5e782"/>
      <path id="Trazado_197688" data-name="Trazado 197688" d="M348.422,268.066l.67-1.9,3.167,1.117-.67,1.9Zm.894-2.534.67-1.9,3.168,1.118-.671,1.9ZM350.21,263l.671-1.9,3.167,1.118-.671,1.9Zm.894-2.533.671-1.9,3.167,1.118-.67,1.9Zm.894-2.534.671-1.9,3.167,1.118-.67,1.9Zm.9-2.534.67-1.9,3.168,1.118-.671,1.9Zm.894-2.534.67-1.9,3.168,1.118-.671,1.9Zm.894-2.534.671-1.9,3.167,1.117-.671,1.9Z" fill="#f5e782"/>
      <path id="Trazado_197689" data-name="Trazado 197689" d="M340,291.926l.67-1.9,3.167,1.117-.67,1.9Zm.894-2.533.67-1.9,3.168,1.118-.671,1.9Zm.894-2.534.671-1.9,3.167,1.117-.671,1.9Zm.894-2.534.671-1.9,3.167,1.119-.67,1.9Zm.894-2.533.671-1.9,3.167,1.117-.67,1.9Zm.895-2.535.67-1.9,3.168,1.118-.671,1.9Zm.894-2.533.67-1.9,3.168,1.118-.671,1.9Zm.894-2.535.671-1.9,3.167,1.117-.671,1.9Z" fill="#f5e782"/>
      <path id="Trazado_197690" data-name="Trazado 197690" d="M399.02,37.427a9.222,9.222,0,0,0-2.829.678,5.284,5.284,0,0,0-9.388,1.521A6.34,6.34,0,0,0,376.655,43.7a6.7,6.7,0,0,0-11.57,6.209,4.869,4.869,0,0,0-2.649.687,5.64,5.64,0,0,0-9.887,4.12c.01.125.029.247.046.37-.123,0-.247,0-.372.009A4.584,4.584,0,0,0,348,59.35a2.312,2.312,0,0,0-.408-.01,2.47,2.47,0,1,0,2.151,3.94,4.581,4.581,0,0,0,7.409-3.438,5.579,5.579,0,0,0,4.63-1.2,4.922,4.922,0,0,0,6.127.157,7.042,7.042,0,0,0,11.081-2.177,5.266,5.266,0,0,0,2.821-1.151A7.75,7.75,0,0,0,394.4,54.059a9.174,9.174,0,1,0,4.62-16.632" fill="#6e6e6e"/>
      <path id="Trazado_197691" data-name="Trazado 197691" d="M366.092,15.391a6.972,6.972,0,0,0-13.862-.416,8.2,8.2,0,0,0-8.982,7.127,6.969,6.969,0,0,0-4.722,7.121c.01.138.033.271.051.406a5.559,5.559,0,0,0-.976-.019,5.388,5.388,0,0,0-4.377,7.858,5.081,5.081,0,0,0-3.058,3.386,4.116,4.116,0,0,0-3.491,7.248,2.541,2.541,0,1,0,3.85.661,4.118,4.118,0,0,0,2.336-1.995,5.06,5.06,0,0,0,7.252-4.736,6.327,6.327,0,0,0,9.126-7.458,7,7,0,0,0,1.817-1.7,7.6,7.6,0,0,0,10.8-10.547,6.97,6.97,0,0,0,4.231-6.937" fill="#6e6e6e"/>
      <path id="Trazado_197692" data-name="Trazado 197692" d="M328.257,9.449a6.743,6.743,0,1,0-12.054.567c-.115,0-.23,0-.347.008a3.926,3.926,0,0,0-2.657,6.511,5.789,5.789,0,0,0-.506.458,3.924,3.924,0,0,0-4.51,5.718,4.761,4.761,0,0,0-.876,6.507,3.368,3.368,0,0,0-.211,5.931,2.525,2.525,0,1,0,2.853.255,3.356,3.356,0,0,0,2.027-4.27,4.773,4.773,0,0,0,3.971-4.619,5.615,5.615,0,0,0,6.344-5.447,6.738,6.738,0,0,0,5.966-11.619" fill="#6e6e6e"/>
      <path id="Trazado_197693" data-name="Trazado 197693" d="M333.62,128.951c-.522.474-.469,1.294-.708,1.958a3.512,3.512,0,0,1-2.055,1.857,25.3,25.3,0,0,0-2.645,1.057c-.171.1-.355.234-.363.431a.631.631,0,0,0,.21.413l4.961,5.578c1.181-1.412,2.414-2.945,2.592-4.777a1.939,1.939,0,0,1,.351-1.237c.384-.383,1.041-.287,1.5-.569.589-.357.668-1.157.79-1.835a6.71,6.71,0,0,1,1.355-2.983c1.4-1.751-.223-4.565-2.507-3.474-1.234.59-.524,1.569-1.111,2.46-.545.827-1.689.5-2.375,1.121" fill="#44260c"/>
      <path id="Trazado_197694" data-name="Trazado 197694" d="M340.358,128.859l-3.737-3.843a3.6,3.6,0,0,0-.017-5.178l-6.632-6,3.71-3.869,6.632,6a8.959,8.959,0,0,1,.044,12.89" fill="#4e686d"/>
      <path id="Trazado_197695" data-name="Trazado 197695" d="M336.621,125.016l3.737,3.843a8.9,8.9,0,0,0,2.255-3.6,11.8,11.8,0,0,1-5.932-.315c-.022.023-.037.05-.06.072" fill="#474747"/>
      <path id="Trazado_197696" data-name="Trazado 197696" d="M338.166,114.027a23.8,23.8,0,0,1-1.353,6.056,3.547,3.547,0,0,1,.9,2.34v.012a9.776,9.776,0,0,0,4.566-3.689,8.946,8.946,0,0,0-1.963-2.777Z" fill="#474747"/>
      <path id="Trazado_197697" data-name="Trazado 197697" d="M333.681,109.972l-3.71,3.869,3.341,3.021c.321-2.066.6-4.122,1.1-6.23Z" fill="#474747"/>
      <path id="Trazado_197698" data-name="Trazado 197698" d="M281.885,66.165l24.68-29.817,3.584,2.338-17.157,34.5Z" fill="#1c2d2d"/>
      <rect id="Rectángulo_44584" data-name="Rectángulo 44584" width="2.68" height="6.959" transform="translate(304.711 36.738) rotate(-56.886)" fill="#4e686d"/>
      <path id="Trazado_197699" data-name="Trazado 197699" d="M324.864,125.712,261.528,84.771l14.893-22.819,63.336,40.941Z" fill="#4e686d"/>
      <path id="Trazado_197700" data-name="Trazado 197700" d="M289.42,81.935l-2.246-1.462,2.437-3.743,2.246,1.462Zm-3-1.949-2.246-1.462,2.438-3.743,2.246,1.462Zm-2.995-1.949-2.246-1.462,2.438-3.744,2.246,1.462Zm-2.995-1.95-2.246-1.462,2.437-3.743,2.246,1.462Zm-2.995-1.949-2.246-1.462,2.437-3.743,2.246,1.462Z" fill="#f5e782"/>
      <path id="Trazado_197701" data-name="Trazado 197701" d="M301.339,78.74l24.68-29.817,3.584,2.338-17.157,34.5Z" fill="#1c2d2d"/>
      <rect id="Rectángulo_44585" data-name="Rectángulo 44585" width="2.68" height="6.959" transform="translate(324.165 49.313) rotate(-56.886)" fill="#4e686d"/>
      <path id="Trazado_197702" data-name="Trazado 197702" d="M308.874,94.511l-2.246-1.462,2.437-3.743,2.246,1.462Zm-2.995-1.949L303.633,91.1l2.438-3.743,2.246,1.461Zm-2.995-1.949-2.246-1.462,2.438-3.744,2.246,1.462Zm-2.995-1.95L297.643,87.2l2.437-3.743,2.246,1.462Zm-2.995-1.949-2.246-1.462,2.437-3.743,2.247,1.462Z" fill="#f5e782"/>
      <path id="Trazado_197703" data-name="Trazado 197703" d="M320.793,91.315,345.473,61.5l3.584,2.338L331.9,98.341Z" fill="#1c2d2d"/>
      <rect id="Rectángulo_44586" data-name="Rectángulo 44586" width="2.68" height="6.959" transform="translate(343.619 61.889) rotate(-56.886)" fill="#4e686d"/>
      <path id="Trazado_197704" data-name="Trazado 197704" d="M328.328,107.086l-2.246-1.462,2.437-3.743,2.246,1.462Zm-2.995-1.949-2.246-1.462,2.437-3.743,2.247,1.462Zm-2.995-1.949-2.246-1.462,2.438-3.744,2.246,1.462Zm-3-1.95L317.1,99.776l2.437-3.743L321.78,97.5Zm-2.995-1.949L314.1,97.827l2.437-3.743,2.247,1.462Z" fill="#f5e782"/>
      <rect id="Rectángulo_44587" data-name="Rectángulo 44587" width="21.813" height="3.659" transform="translate(63.67 236.471) rotate(-8.489)" fill="#a7b9bb"/>
      <path id="Trazado_197705" data-name="Trazado 197705" d="M66.076,205.614,75.513,268.9l-26.721-3.87-6.944-46.56Z" fill="#4e686d"/>
      <path id="Trazado_197706" data-name="Trazado 197706" d="M50.078,257.163l.992,6.654L61.8,265.156l-1.131-7.586Z" fill="#eaf8fc"/>
      <path id="Trazado_197707" data-name="Trazado 197707" d="M49.959,256.365l10.576.3L59.4,249.075l-10.437.636Z" fill="#eaf8fc"/>
      <path id="Trazado_197708" data-name="Trazado 197708" d="M62.383,265.228l10.732,1.339L71.837,258l-10.593-.407Z" fill="#bbe8f5"/>
      <path id="Trazado_197709" data-name="Trazado 197709" d="M71.684,256.971,70.406,248.4l-10.437.636,1.139,7.636Z" fill="#bbe8f5"/>
      <path id="Trazado_197710" data-name="Trazado 197710" d="M47.776,241.726l.992,6.654,10.41-.822-1.131-7.586Z" fill="#eaf8fc"/>
      <path id="Trazado_197711" data-name="Trazado 197711" d="M46.665,234.273l.992,6.654,10.255-1.866-1.132-7.585Z" fill="#eaf8fc"/>
      <path id="Trazado_197712" data-name="Trazado 197712" d="M59.741,247.513l10.41-.822-1.278-8.568L58.6,239.877Z" fill="#bbe8f5"/>
      <path id="Trazado_197713" data-name="Trazado 197713" d="M58.466,238.961l10.254-1.866-1.278-8.567-10.115,2.8Z" fill="#bbe8f5"/>
      <path id="Trazado_197714" data-name="Trazado 197714" d="M45.474,226.288l.992,6.654,10.088-2.983-1.131-7.586Z" fill="#eaf8fc"/>
      <path id="Trazado_197715" data-name="Trazado 197715" d="M54.155,213.878l-9.793,4.958.992,6.654,9.932-4.027Z" fill="#eaf8fc"/>
      <path id="Trazado_197716" data-name="Trazado 197716" d="M57.1,229.8l10.087-2.983-1.277-8.568-9.949,3.915Z" fill="#bbe8f5"/>
      <path id="Trazado_197717" data-name="Trazado 197717" d="M54.685,213.609l1.139,7.636,9.932-4.027-1.278-8.567Z" fill="#bbe8f5"/>
      <rect id="Rectángulo_44588" data-name="Rectángulo 44588" width="29.332" height="2.902" transform="translate(73.228 277.338) rotate(-20.427)" fill="#b66f20"/>
      <path id="Trazado_197718" data-name="Trazado 197718" d="M60.32,268.914a6.362,6.362,0,0,0-7.816,9.479,8.436,8.436,0,0,0,5.977,14.433,7.612,7.612,0,0,0,.324,1.166,7.763,7.763,0,0,0,15-1.878,4.97,4.97,0,0,0,5.473-7.93,7.231,7.231,0,0,0-5.008-13.555,7.083,7.083,0,0,0-13.946-1.715" fill="#18672e"/>
      <rect id="Rectángulo_44589" data-name="Rectángulo 44589" width="2.845" height="28.752" transform="matrix(0.508, -0.861, 0.861, 0.508, 77.214, 136.329)" fill="#b66f20"/>
      <path id="Trazado_197719" data-name="Trazado 197719" d="M78.23,116.224A8.267,8.267,0,0,0,66,121.316a6.572,6.572,0,0,0-6.463,11.424,4.434,4.434,0,1,0,3.683,8.035,8.26,8.26,0,0,0,15.933,3.089,8.274,8.274,0,0,0,6.928-13.074,4.492,4.492,0,0,0,.28-.415,4.436,4.436,0,0,0-4.067-6.682,8.279,8.279,0,0,0-4.068-7.469" fill="#58a816"/>
      <rect id="Rectángulo_44590" data-name="Rectángulo 44590" width="27.944" height="2.765" transform="matrix(0.327, -0.945, 0.945, 0.327, 170.025, 350.654)" fill="#b66f20"/>
      <path id="Trazado_197720" data-name="Trazado 197720" d="M153.29,354.462a8.035,8.035,0,0,0,7.206,10.665,6.387,6.387,0,0,0,12.126,3.956,4.31,4.31,0,1,0,6.945-5.056,8.027,8.027,0,0,0-.126-15.772,8.041,8.041,0,0,0-13.789-4.081,4.456,4.456,0,0,0-.449-.187,4.31,4.31,0,0,0-5.581,5.161,8.046,8.046,0,0,0-6.332,5.314" fill="#58a816"/>
      <rect id="Rectángulo_44591" data-name="Rectángulo 44591" width="2.989" height="30.204" transform="matrix(0.802, -0.598, 0.598, 0.802, 132.706, 77.289)" fill="#b66f20"/>
      <path id="Trazado_197721" data-name="Trazado 197721" d="M140.27,55.831a7.947,7.947,0,0,0-12.126-.8,8.687,8.687,0,0,0-13.234,9.143,6.556,6.556,0,0,0,1.462,12.566,7.293,7.293,0,0,0,13.021,6.311,7.446,7.446,0,0,0,11.9-8.926,5.12,5.12,0,0,0-.3-9.917,7.991,7.991,0,0,0-.727-8.374" fill="#18672e"/>
      <rect id="Rectángulo_44592" data-name="Rectángulo 44592" width="2.989" height="30.203" transform="matrix(0.922, -0.386, 0.386, 0.922, 157.281, 62.392)" fill="#b66f20"/>
      <path id="Trazado_197722" data-name="Trazado 197722" d="M168.161,47.606a6.551,6.551,0,0,0-10.08-7.645,8.687,8.687,0,0,0-14.6,6.751,7.99,7.99,0,0,0,1.373,15.734,5.118,5.118,0,0,0,8.388,5.3,7.446,7.446,0,0,0,13.737-5.718,7.294,7.294,0,0,0,1.182-14.421" fill="#58a816"/>
      <rect id="Rectángulo_44593" data-name="Rectángulo 44593" width="29.12" height="2.882" transform="matrix(0.511, -0.86, 0.86, 0.511, 151.985, 320.168)" fill="#b66f20"/>
      <path id="Trazado_197723" data-name="Trazado 197723" d="M136.76,321.7a6.325,6.325,0,0,0-1.633,11.559,6.381,6.381,0,0,0,1.495.638,8.375,8.375,0,0,0,13.61,7.435,7.7,7.7,0,0,0,11.4-10.093,4.935,4.935,0,0,0-.709-9.54,7.179,7.179,0,0,0-12.314-7.36,7.032,7.032,0,0,0-11.85,7.361" fill="#18672e"/>
      <rect id="Rectángulo_44594" data-name="Rectángulo 44594" width="2.683" height="27.11" transform="matrix(0.059, -0.998, 0.998, 0.059, 87.779, 216.778)" fill="#b66f20"/>
      <path id="Trazado_197724" data-name="Trazado 197724" d="M80.159,202.166a5.88,5.88,0,0,0-10.144,5.1,7.8,7.8,0,0,0-.327,14.434,7.172,7.172,0,0,0,13.224,5.109,4.593,4.593,0,0,0,7.584-4.667,6.683,6.683,0,0,0,.819-13.33,6.547,6.547,0,0,0-11.156-6.65" fill="#58a816"/>
      <rect id="Rectángulo_44595" data-name="Rectángulo 44595" width="32.934" height="3.259" transform="translate(80.258 300.744) rotate(-42.102)" fill="#b66f20"/>
      <path id="Trazado_197725" data-name="Trazado 197725" d="M63.3,297.316a7.142,7.142,0,0,0-4.22,13.133A9.472,9.472,0,0,0,71.3,323.027a8.6,8.6,0,0,0,.822,1.082,8.717,8.717,0,0,0,14.867-8.183,5.58,5.58,0,0,0,2.418-10.544,8.119,8.119,0,0,0-10.849-12.064,7.953,7.953,0,0,0-15.262,4" fill="#58a816"/>
      <path id="Trazado_197726" data-name="Trazado 197726" d="M159.583,192.084a1.666,1.666,0,1,1-1.667-1.667,1.667,1.667,0,0,1,1.667,1.667" fill="#14afde"/>
      <path id="Trazado_197727" data-name="Trazado 197727" d="M155.417,189.418a.917.917,0,1,1-.917-.917.917.917,0,0,1,.917.917" fill="#14afde"/>
      <path id="Trazado_197728" data-name="Trazado 197728" d="M186.917,171.251a.917.917,0,1,1-.917-.917.917.917,0,0,1,.917.917" fill="#14afde"/>
      <path id="Trazado_197729" data-name="Trazado 197729" d="M190.22,172.41a2.125,2.125,0,1,1,2.99.306,2.126,2.126,0,0,1-2.99-.306" fill="#14afde"/>
      <path id="Trazado_197730" data-name="Trazado 197730" d="M155.6,201.467a2.125,2.125,0,1,1,2.99.307,2.124,2.124,0,0,1-2.99-.307" fill="#14afde"/>
      <path id="Trazado_197731" data-name="Trazado 197731" d="M186.25,175.251c-2.818,1.371-4.423,6.194-7.73,5.684-3.553-.549-4.987-4.83-5.52-8.385q-.7-4.667-1-9.381c-.234-3.641-.294-7.326-1.2-10.86s-2.78-6.981-5.863-8.93c-3.048-1.928-6.831-2.161-10.433-2.339-4.916-.243-21,7.461-30.252.211-3.712-2.909-6.17-12.417-7.416-16.824-.138-.488-.349-1.534-.632-2.984q-2.366,2.64-4.594,5.4c.795,6.922,1.47,12.232,1.8,13.466,1.147,4.245,2.533,8.508,5.045,12.118s6.314,6.529,10.679,7.067c2.853.352,5.722-.317,8.518-.98l9.713-2.305c3.374-.8,7.175-1.539,10.111.307,3.106,1.954,4.014,6.079,3.949,9.747-.07,3.97-1.558,7.806-2.83,11.581-.92,2.731-2.912,8.627,1.693,9.385a12.954,12.954,0,0,0,2.92-.181,2.726,2.726,0,0,1,2.593,1.019c2.157,3.676-8.338,8-4.3,11.684,1.559,1.423,5.527,2.438,12.75-1.25,7.966-4.067,11.328-9.378,15.14-14.311,3.558-4.6,3.244-12.044-3.14-8.939" fill="#14afde"/>
      <path id="Trazado_197732" data-name="Trazado 197732" d="M331.232,133.2a19.347,19.347,0,0,0-11.66-3.8c-1.991.029-4.224.526-5.279,2.217-1.389,2.23,0,5.082,1.28,7.377a89.236,89.236,0,0,1,6.322,14.081c.782,2.247.83,5.665-1.521,6.023-1.476.224-2.72-1.114-4.184-1.406-2.263-.451-4.268,1.754-4.825,3.993-1.181,4.75,1.755,9.513,4.987,13.19,4.3,4.889,8.28,10.752,9.726,17.193,2.294,10.216-14.607,2.405-19.005,3.58-3.6.963-7.384,3.237-8.464,6.8-1.188,3.926-1.445,7.726-3.536,10.638a5.321,5.321,0,0,1-4.744,2.521c-5.7-.126-10.836-12.318-16.319-7.526-1.3,1.134-1.8,2.949-3.011,4.179-2.418,2.466-6.548,1.721-9.72.353-1.577-.68-3.206-1.489-4.918-1.339-2.836.248-4.767,2.991-5.81,5.639-2.065,5.234-1.491,12.507,3.629,14.836,3.98,1.81,9.005-.2,12.847,1.883,4.153,2.253,4.718,7.893,4.625,12.616s.052,10.269,3.9,13.01c2.565,1.827,6.094,1.738,9.058.677,8.437-3.019,12.924-14,9.015-22.062-.979-2.023-2.379-3.828-3.272-5.891a9.6,9.6,0,0,1,1.351-9.5c2.3-3.022,6.4-3.856,8.623-6.965,3.276-4.584,2.132-12.214,7.1-14.884,5.953-3.205,13.561,4.81,19.553,1.68,2.858-1.493,4-4.959,4.551-8.136s.845-6.6,2.858-9.12a2.125,2.125,0,0,1,.737-.647c1.359-.618,2.363,1.288,2.992,2.642,1.359,2.927,5.839,4.641,7.768,2.055,1.176-1.576.774-3.692.692-5.512a7.8,7.8,0,0,1,.205-2.836c.632-1.875,1.9-.533,2.612.49.851,1.214,1.288,3.121,3.028,3.243a2.04,2.04,0,0,0,1.429-.436A137.3,137.3,0,0,0,331.232,133.2" fill="#44260c"/>
      <path id="Trazado_197733" data-name="Trazado 197733" d="M253.162,237.13a2.686,2.686,0,1,0,2.686,2.686,2.686,2.686,0,0,0-2.686-2.686" fill="#44260c"/>
      <path id="Trazado_197734" data-name="Trazado 197734" d="M243.941,211.768a3.073,3.073,0,1,0,3.074,3.074,3.074,3.074,0,0,0-3.074-3.074" fill="#44260c"/>
      <path id="Trazado_197735" data-name="Trazado 197735" d="M263.92,237.25a1.412,1.412,0,1,0,1.412,1.412,1.413,1.413,0,0,0-1.412-1.412" fill="#44260c"/>
      <path id="Trazado_197736" data-name="Trazado 197736" d="M282.362,263.253a2.689,2.689,0,1,0,2.689,2.69,2.69,2.69,0,0,0-2.689-2.69" fill="#44260c"/>
      <path id="Trazado_197737" data-name="Trazado 197737" d="M296.194,254.031a1.537,1.537,0,1,0,1.537,1.537,1.537,1.537,0,0,0-1.537-1.537" fill="#44260c"/>
      <path id="Trazado_197738" data-name="Trazado 197738" d="M383.761,236.178l.734-.539a31.961,31.961,0,0,1-2.431-3.657c.052-.444.244-2.318.379-3.639l1.312.38.789,1.762.624-.279-.919-2.05-1.736-.505c.037-.361.063-.612.067-.653l.016-.163-4.813-7.261,3.794,1.65,4.168,2.663,1.175,2.235,1.387,1.491.5-.467-1.3-1.383-.959-1.822,3.223.205,1.878,2.444-.808,1.75.036,2.98.683-.008-.034-2.825.594-1.284,1.621,2.109,4.506,1.444.279-.868-3.017-.966.937-1.763,1.7-.411-.161-.664-2,.484-1.14,2.142-.557-.178-4.048-5.269-4.2-.267L382,220.423l-4.5-1.963,6.933,1.556,3.72-1.757-.109.2,3.588,1.947,2.044-.4,2.181,1.614.406-.55-1.677-1.24,2.447-.475-.173-.895-5.081.985-2.86-1.552,4-1.891,5.935.777,3.7-3.367-.614-.674-3.386,3.083-2.71-.355,1.718-3.165-.6-.326-1.843,3.4-2.347-.307-2.315,1.093.27-2.616-.906-.093-.327,3.164-5.171,2.442-5.88-1.32,4.182-.281,7.5-6.785,2.834.1.024-.683-2.756-.1-.274-1.177,2.625-2.9,4.286.561.089-.678-4.641-.607-2.548,2.814-1.059-4.55,3.973-3.53-.606-.68-4.377,3.89,1.636,7.027-1.839,1.662-1.229-1.367-.279-4.137-.908.061.3,4.451,1.44,1.6-4.572,4.133-4.383.3,1.821-6.055,2.383-.424,1.005-1.961-.608-.312-.849,1.66-1.711.3.237-.786-1.368-2.014,1.61-2.629-.583-.356-1.448,2.365-1.167-1.718.074-3.757-.912-.017-.079,4.045,2.875,4.234-.9,3-1.7-.977-.528-1.871-.658.184.6,2.14,2.082,1.2-1.076,3.579.433.131-24.581-4.208-.468,3.576,22.433,2.465-.159,4.551-3.124,2.645-1.873,4.591.843.343,1.23-3.012.614,1.091.4,2.069.67-.13-.412-2.124-.946-1.71.231-.566,1.326-1.124,1.564,2.872.03,2.768.911-.01-.032-2.994-1.763-3.237,1.225-1.037.172-4.887.28.031.27.118,3.189,4.811-1.256,1.209.085,3.8.911-.021-.077-3.4.848-.816,1.709,2.579c-.083.823-.458,4.51-.5,4.863-.016.122-.039.334.65,1.43l-.654,1.659.637.251.476-1.208c.367.545.852,1.233,1.5,2.115M377.6,216.883l-.2.013.009-.07Z" fill="#604730"/>
      <path id="Trazado_197739" data-name="Trazado 197739" d="M318.656,122.2l-4.524-1.391-1.6-2.918,2.818-.751-.013.027,3.892,1.822,3.116-.9-.21-.724-2.844.824-2.851-1.335.243-.065,3.178-3.382,3.817.1.027-1-2.258-.061,1.138-1.808-.638-.4-1.377,2.186-1.134-.031-3.291,3.5-6.019,1.635L305.252,117l3.122-3.851,2.728.217,3.786-.93-.247-.976-1.566.4.746-1.321,1.147-.7-.39-.645-1.316.8-1.2,2.119-.963.243-1.957-.156,1.141-1.407,4.988-4.776,3.236-5.11-.851-.536L315,104.581l-.5-1.713.791-1.938-.7-.284-.892,2.181.757,2.574-3.282,3.145-.361-1.324.618-2.858-.738-.16-.638,2.948.5,1.985-1.014.972-4.963,6.118.522-5.687,1.395-3.44-.166-1.791.152.162L308.8,103.3l.733-3.168-.735-.17-.682,2.944-1.846,1.733-.411-4.441,1.556-2.472-.851-.536-1.739,2.761.649,7-.764,1.882-1.677-2.522-.619-2.318-.728.194.634,2.378,2.048,3.111-.226.557-.66,7.007-2.5-1.343-.448-5.185-3.134-4.229L296.151,106l-.11-2.9-.754.029.1,2.573-1.667-.649-.811-3.193-.976.247.938,3.7,3.9,1.516,1.806,2.437-2.071,0-1.806-.846-.319.684,1.882.881,2.871.03.428.578.471,5.443,2.494,1.34-6.669.143-3.335-2.249-.242-.093-.347-2.35-.841-1.025-.584.477.709.866.254,1.724-3.3-1.259-.359.939,4.241,1.62,2.851,1.923-1.31.837L291.585,119l-.152.74,2.306.475,1.875-1.2,7.187-.156-15.088,20.709,3.369,2.123,13.293-22.1.455,1.741-.457,4.053.894,4.035.737-.167-.873-3.847.092-.82L306,125l1.1,1.709.633-.409-1.207-1.876-1.216-.641.274-2.434-.67-2.659.036-.059,1.853,1.649,1.027,3.7,2.966,2.461.226,2,.75-.085-.138-1.223,2.417,2,.644-.774-5.19-4.306,2.436-.018,2.311,2.328.535-.532-2.534-2.552-3.563.027-1-3.588-1.858-1.655,4.275.461,1.417-.377,1.915,3.492,1.092.336.867,1.855.684-.319-.578-1.237,2.85.877Z" fill="#604730"/>
      <path id="Trazado_197740" data-name="Trazado 197740" d="M338.792,259.938l1.415,2.262.7-.436-1.268-2.025.341-3.624,1.5,1.42.552,2.409.6-.138-.594-2.59-1.888-1.785-.123.131.138-1.462-1.134-2.815-.51-5.66.14.029.008-.068,3.566,2.517,1.164.293-.02,3.257.648.675L343.913,254l.615.043.079-1.113,1.689,1.758.592-.571-2.681-2.79.016-2.721,2.312.583-.019.014,2.057,2.847,2.587.592.138-.6-2.36-.54-1.508-2.087.2.051,3.614-1.157,2.687,1.591.418-.708-1.589-.94,1.532-.84-.3-.542-1.852,1.016-.8-.472-3.744,1.2-4.952-1.221-3.715-2.622,7.227-1.671.006,0,.991,1.884,1.769.765.245-.566-1.57-.679-.858-1.632,4.684-1.856,4.768-.389-.066-.819-4.369.356.286-1.249,1.551-1.819-.469-.4-1.649,1.934-.379,1.65-5.184,2.04-.519.12,1.653-2.237,3.384-1.522-.337-.751-2.115.952.52-1.543,1.151-.8-.352-.506-1.317.916-.769,2.279-.7.314-2.352,3.183-4.657,1.074,1.514-1.958.105-3.665,3.379-.216,1.892-1.261-.342-.514-1.755,1.169-2.734.176,4.13-4.909-.63-.529-1.958,2.328-.194-1.541-.612.078.265,2.106-1.674,1.99-1.848-4.763.791-2.939.005-.185,1.639-.813.542-.861-.522-.328-.45.713-1.192.591.069-2.66-.822-.021-.089,3.444-.669,2.488-.947-.729-.217-1.536-.611.086.253,1.786,1.375,1.059,2.114,5.446-.107,3.718-1.966,2.542-.106.024.016.069-.018,0-.564-2.283-1.489-2.152.787-1.187.165-2.223-.615-.045-.153,2.062-.562.847-.538-.778-1.079-3.831-.594.168,1.093,3.881,2.4,3.462.46,1.868L317.394,237.8l-.744,3.17,19.5,4.148-1.313.623-.717,3.341-.326.357h-1.727L330.65,250l.238.569,1.238-.516h1.1l-1.2,1.316-2.669.933-.9,2.283.765.3.762-1.933.984-.343L330.741,254l.609.1.279-1.713.863-.3,2.382-2.608.681-3.162,1.917-.91.211.045.538,5.973.219.555-1.642,2.459-.561,2.032.6.16.506-1.891,1.378-2.062.614,1.55Z" fill="#604730"/>
      <path id="Trazado_197741" data-name="Trazado 197741" d="M135.55,19.47a7.51,7.51,0,0,0-7.305,4.4,11.444,11.444,0,0,0-16.469,11.664,8.285,8.285,0,0,0-5.983,12.923l36.6-23.179a7.51,7.51,0,0,0-6.848-5.809" fill="#fff"/>
      <path id="Trazado_197742" data-name="Trazado 197742" d="M350.229,343.1a2.3,2.3,0,0,0-3.107-2.126,1.968,1.968,0,0,0-2.986.646,1.492,1.492,0,1,0-1.371,1.983l.016,0c0,.056-.014.111-.013.168a1.659,1.659,0,0,0,1.075,1.514,2.323,2.323,0,1,0,4.462.852c0-.076-.019-.147-.027-.221a1.816,1.816,0,0,0,.361-.566,2.317,2.317,0,0,0,1.59-2.248" fill="#999"/>
      <path id="Trazado_197743" data-name="Trazado 197743" d="M342.924,350.579a2.324,2.324,0,0,0-2.378-2.271,2.3,2.3,0,0,0-1.522.627,2.483,2.483,0,0,0-1.35-.682,1.693,1.693,0,0,0,.038-.379,1.661,1.661,0,1,0-2.509,1.462,2.478,2.478,0,0,0,.681,3.431,2.983,2.983,0,0,0,5.87-.129,2.314,2.314,0,0,0,1.17-2.059" fill="#999"/>
      <path id="Trazado_197744" data-name="Trazado 197744" d="M335.055,359.31a3.475,3.475,0,0,0-3.554-3.394c-.056,0-.108.016-.164.02a2.771,2.771,0,0,0-1.315-1.484,1.853,1.853,0,1,0-2.668.061,2.763,2.763,0,0,0-.059,4.76,3.886,3.886,0,0,0,7.76.037" fill="#999"/>
      <path id="Trazado_197745" data-name="Trazado 197745" d="M316.786,332.442l-2.663,1.844L326.8,352.8l2.662-1.844Z" fill="#333"/>
      <path id="Trazado_197746" data-name="Trazado 197746" d="M323.942,327.485l-2.663,1.844,12.682,18.511L336.623,346Z" fill="#333"/>
      <path id="Trazado_197747" data-name="Trazado 197747" d="M331.1,322.529l-2.663,1.844,12.681,18.511,2.663-1.844Z" fill="#333"/>
      <path id="Trazado_197748" data-name="Trazado 197748" d="M333.61,323.311l1.616,2.467-5.325,3.689L328.284,327l-1.83,1.267,1.616,2.468-5.326,3.688-1.616-2.467-1.831,1.268,1.617,2.467-5.326,3.688-1.616-2.467-2.5,1.729-12.515-18.069,27.627-19.134L339.1,319.507Z" fill="#4e686d"/>
      <rect id="Rectángulo_44596" data-name="Rectángulo 44596" width="2.97" height="4.942" transform="matrix(0.822, -0.569, 0.569, 0.822, 307.979, 327.662)" fill="#f5e782"/>
      <rect id="Rectángulo_44597" data-name="Rectángulo 44597" width="2.97" height="4.942" transform="matrix(0.822, -0.569, 0.569, 0.822, 311.954, 324.859)" fill="#f5e782"/>
      <rect id="Rectángulo_44598" data-name="Rectángulo 44598" width="2.97" height="4.942" transform="matrix(0.822, -0.569, 0.569, 0.822, 315.93, 322.055)" fill="#f5e782"/>
      <rect id="Rectángulo_44599" data-name="Rectángulo 44599" width="2.97" height="4.942" transform="matrix(0.822, -0.569, 0.569, 0.822, 319.905, 319.251)" fill="#f5e782"/>
      <rect id="Rectángulo_44600" data-name="Rectángulo 44600" width="2.97" height="4.942" transform="matrix(0.822, -0.569, 0.569, 0.822, 323.881, 316.448)" fill="#f5e782"/>
      <rect id="Rectángulo_44601" data-name="Rectángulo 44601" width="2.97" height="4.942" transform="matrix(0.822, -0.569, 0.569, 0.822, 327.857, 313.644)" fill="#f5e782"/>
      <path id="Trazado_197749" data-name="Trazado 197749" d="M336.594,370.875a3.491,3.491,0,0,0-6.941.61,3.43,3.43,0,0,0,.168.944,2.516,2.516,0,0,0-.689,1.79c0,.028.008.053.01.08a2.328,2.328,0,1,0,2.671,3.342,2.132,2.132,0,0,0,3.553-1.235l.039,0a2.908,2.908,0,0,0,1.189-5.534" fill="#999"/>
      <path id="Trazado_197750" data-name="Trazado 197750" d="M341.432,384.231a2.31,2.31,0,0,0-4.117-2,4.283,4.283,0,0,0-4.852.635,3.933,3.933,0,1,0-1.875,7.335c.1,0,.186-.026.28-.035a4.448,4.448,0,0,0-.038.493,4.4,4.4,0,0,0,8.8-.2,4.315,4.315,0,0,0-.089-.724c.1.008.2.026.305.024a3.009,3.009,0,0,0,1.586-5.523" fill="#999"/>
      <path id="Trazado_197751" data-name="Trazado 197751" d="M350.85,362.658a2.487,2.487,0,0,0-4.766-.941,2.8,2.8,0,0,0-1.748-.571,2.816,2.816,0,0,0-1.131,5.368,2.137,2.137,0,0,0-.218.976,2.158,2.158,0,0,0,4.159.759,2.783,2.783,0,0,0,.845.123,2.8,2.8,0,0,0,2.382-4.206,2.467,2.467,0,0,0,.477-1.508" fill="#999"/>
      <path id="Trazado_197752" data-name="Trazado 197752" d="M363.828,373.29a2.908,2.908,0,0,0-5.257-1.658,3.72,3.72,0,0,0-4.417,2.932c-.033,0-.064-.008-.1-.007a3.33,3.33,0,0,0-3.047,2.179c-.081,0-.158-.021-.24-.019a3.961,3.961,0,1,0,3.209,6.374,2.686,2.686,0,0,0,4.364-1.777c.083.005.163.022.248.02a3.128,3.128,0,0,0,3.055-3.2,3.1,3.1,0,0,0-.368-1.375,3.68,3.68,0,0,0,.173-.545,2.913,2.913,0,0,0,2.377-2.926" fill="#999"/>
      <path id="Trazado_197753" data-name="Trazado 197753" d="M363.273,348.57a2.461,2.461,0,0,0-4.526-1.282,3.185,3.185,0,0,0-4.349,3.938,3.028,3.028,0,1,0,5.505,2.235,2.058,2.058,0,0,0,2.678-2.034,2.06,2.06,0,0,0-.231-.892,2.448,2.448,0,0,0,.923-1.965" fill="#999"/>
      <path id="Trazado_197754" data-name="Trazado 197754" d="M375.117,358.172a3.485,3.485,0,0,0-6.03-2.3,2.692,2.692,0,0,0-.5-.039,2.647,2.647,0,0,0-2.237,1.34,2.29,2.29,0,0,0-.725-.109,2.319,2.319,0,0,0-2.14,1.576,2.969,2.969,0,0,0-2.737,4.607,2.311,2.311,0,0,0,3.471,2.635,3.239,3.239,0,0,0,5.883-1.943c0-.074-.02-.142-.026-.214a2.812,2.812,0,0,0,2.178-2.05,3.48,3.48,0,0,0,2.866-3.5" fill="#999"/>
      <path id="Trazado_197755" data-name="Trazado 197755" d="M40.364,104.882a8.614,8.614,0,0,0-6.424,3.659A14.863,14.863,0,0,0,17.3,124.414a14.789,14.789,0,0,0,3.833,8.876,11.023,11.023,0,0,0,1.719,19.218l24.963-44.325a8.622,8.622,0,0,0-7.454-3.3" fill="#fff"/>
    </g>
  </g>
</svg>
