<svg xmlns="http://www.w3.org/2000/svg" xmlns:xlink="http://www.w3.org/1999/xlink" width="518.5" height="324.435" viewBox="0 0 518.5 324.435">
  <defs>
    <clipPath id="clip-path">
      <rect id="Rect치ngulo_44141" data-name="Rect치ngulo 44141" width="311.903" height="324.435" fill="none"/>
    </clipPath>
    <clipPath id="clip-path-2">
      <path id="Trazado_193731" data-name="Trazado 193731" d="M253.177,1354.462c-23.335,8.7-43.8,23.607-63.194,39.226-3.585,2.887-7.244,5.86-11.595,7.362s-9.619,1.244-13.022-1.855c-4.379-3.988-4.177-10.774-4.2-16.7s-1.44-13.035-6.978-15.138a13.579,13.579,0,0,0-7.061-.262,43.208,43.208,0,0,0-17.6,7.236c-9.623,6.769-16.781,17.624-28.08,20.9-1.952.566-4.128.861-5.957-.024-2.956-1.43-3.77-5.171-4.375-8.4a116.544,116.544,0,0,0-7.694-25.049,4.623,4.623,0,0,0-1.654-2.3c-1.553-.911-3.486.187-4.887,1.318a52.906,52.906,0,0,0-19.376,40.569c0,3.52-.272,8.038-3.616,9.138a6.863,6.863,0,0,1-4.4-.424c-18.525-6.654-23.91-30.51-38.968-43.187-1.726-1.453-3.908-2.825-6.1-2.277-3.211.8-4.056,4.909-4.2,8.216A228.124,228.124,0,0,0,15.1,1464.478c2.679,6.977,5.918,14.079,10.787,19.616H262.436a337.832,337.832,0,0,0,32.424-43.193c4.747-7.507,9.356-15.858,8.58-24.706-1.047-11.928-13.493-21.554-25.3-19.567-4.711.793-10.99,2.437-13.12-1.839-1.232-2.474.027-5.424,1.409-7.818,3.1-5.367,6.937-10.446,8.577-16.422s.389-13.358-4.871-16.635a12.231,12.231,0,0,0-6.594-1.737,30.722,30.722,0,0,0-10.364,2.287" transform="translate(0 -1352.175)" fill="none"/>
    </clipPath>
  </defs>
  <g id="Grupo_145735" data-name="Grupo 145735" transform="translate(-898 -1761.304)">
    <g id="Uni칩n_9" data-name="Uni칩n 9" transform="translate(1416.5 1827.999) rotate(90)" fill="#c0c3b0">
      <path d="M 122.001335144043 516 C 113.8892059326172 516 105.7856063842773 515.18310546875 97.91553497314453 513.5720825195312 C 90.24227142333984 512.0020141601562 82.69654083251953 509.6598510742188 75.4876708984375 506.6106262207031 C 68.40666961669922 503.6152954101562 61.5771369934082 499.9082946777344 55.18893814086914 495.5924987792969 C 48.86027145385742 491.316650390625 42.90960311889648 486.4067687988281 37.50233840942383 480.9994506835938 C 32.09433746337891 475.5923767089844 27.18427085876465 469.6415100097656 22.90840530395508 463.3119812011719 C 18.59200477600098 456.9228210449219 14.8852710723877 450.0936889648438 11.89113807678223 443.0142211914062 C 8.840737342834473 435.8016967773438 6.498270988464355 428.2558288574219 4.928737640380859 420.5863037109375 C 3.317804336547852 412.7113037109375 2.500937700271606 404.6072998046875 2.500937700271606 396.49951171875 L 2.500937700271606 329.231689453125 L 2.500937700271606 326.731689453125 L 2.500004291534424 326.731689453125 L 2.500004291534424 2.500036239624023 L 241.5008087158203 2.500036239624023 L 241.5008087158203 329.231689453125 L 241.5008087158203 396.49951171875 C 241.5008087158203 404.611572265625 240.6839447021484 412.7155151367188 239.072998046875 420.586181640625 C 237.5029449462891 428.2583618164062 235.1607971191406 435.8042297363281 232.1114654541016 443.0142211914062 C 229.1163330078125 450.0939025878906 225.4095306396484 456.9231567382812 221.0941314697266 463.3121032714844 C 216.8176116943359 469.641357421875 211.907470703125 475.5923767089844 206.5003356933594 480.9994506835938 C 201.0922088623047 486.4075622558594 195.1412658691406 491.3172912597656 188.8128662109375 495.5924377441406 C 182.4260711669922 499.9078979492188 175.5969390869141 503.6148986816406 168.5149993896484 506.6106262207031 C 161.3060760498047 509.659912109375 153.7602691650391 512.0020141601562 146.0872650146484 513.572021484375 C 138.2170104980469 515.18310546875 130.1134033203125 516 122.001335144043 516 Z" stroke="none"/>
      <path d="M 122.001335144043 513.5 C 129.9454803466797 513.5 137.8804016113281 512.7001953125 145.5860443115234 511.1228332519531 C 153.0976257324219 509.5857543945312 160.4843292236328 507.29296875 167.5409698486328 504.3081970214844 C 174.4740447998047 501.3754577636719 181.1599731445312 497.7461242675781 187.4134063720703 493.5208129882812 C 193.6099090576172 489.3348999023438 199.4369049072266 484.5273132324219 204.7325439453125 479.2317504882812 C 210.0273284912109 473.9368896484375 214.8353271484375 468.1097412109375 219.0224761962891 461.912841796875 C 223.2476959228516 455.6573181152344 226.8768310546875 448.9710998535156 229.8088989257812 442.0404052734375 C 232.7939758300781 434.9823913574219 235.0867614746094 427.5955505371094 236.6237640380859 420.0848999023438 C 238.2010498046875 412.3786926269531 239.0008392333984 404.4434814453125 239.0008392333984 396.4995422363281 L 239.0008392333984 5.000041007995605 L 4.999975681304932 5.000041007995605 L 5.000904560089111 396.4995422363281 C 5.000904560089111 404.4393310546875 5.800690174102783 412.374755859375 7.377975940704346 420.0851135253906 C 8.914403915405273 427.5930480957031 11.20754718780518 434.9798278808594 14.19369029998779 442.0404052734375 C 17.12504768371582 448.9714050292969 20.75404739379883 455.6572570800781 24.98004722595215 461.9125366210938 C 29.16669082641602 468.1100463867188 33.97440338134766 473.9369812011719 39.26997756958008 479.231689453125 C 44.56518936157227 484.5268249511719 50.39197540283203 489.3344116210938 56.58840560913086 493.5209045410156 C 62.84297561645508 497.7463989257812 69.52925872802734 501.3757629394531 76.4615478515625 504.30810546875 C 83.51826477050781 507.29296875 90.90497589111328 509.5857543945312 98.41690063476562 511.1228942871094 C 106.1221923828125 512.7001953125 114.0571212768555 513.5 122.001335144043 513.5 M 122.001335144043 518.5 C 113.7239761352539 518.5 105.4511871337891 517.6665649414062 97.41419219970703 516.0213012695312 C 89.58061981201172 514.4183959960938 81.87568664550781 512.027099609375 74.51368713378906 508.9131164550781 C 67.28397369384766 505.8548889160156 60.31169128417969 502.0704040527344 53.78940582275391 497.6640319824219 C 47.33012008666992 493.2999572753906 41.25511932373047 488.287841796875 35.73447418212891 482.7672424316406 C 30.21297645568848 477.2466125488281 25.20090484619141 471.1716003417969 20.83683204650879 464.7114562988281 C 16.43040466308594 458.1891174316406 12.64590454101562 451.2168273925781 9.588618278503418 443.988037109375 C 6.474618434906006 436.6251220703125 4.082404136657715 428.9201965332031 2.479475736618042 421.0875549316406 C 0.8351900577545166 413.0496215820312 0.0009043579339049757 404.7776794433594 0.0009043579339049757 396.4995422363281 L -2.421351928205695e-05 4.091099253855646e-05 L 244.0008392333984 4.091099253855646e-05 L 244.0008392333984 396.4995422363281 C 244.0008392333984 404.7776794433594 243.1674041748047 413.0496215820312 241.5221862792969 421.0875549316406 C 239.9193267822266 428.9201965332031 237.5279693603516 436.6251220703125 234.4139709472656 443.988037109375 C 231.3558349609375 451.2168273925781 227.5713348388672 458.1891174316406 223.1658325195312 464.7114562988281 C 218.8008270263672 471.1716003417969 213.7886962890625 477.2466125488281 208.2681121826172 482.7672424316406 C 202.7474822998047 488.287841796875 196.6724700927734 493.2999572753906 190.2123260498047 497.6640319824219 C 183.6909027099609 502.0704040527344 176.7186126708984 505.8548889160156 169.4889068603516 508.9131164550781 C 162.1269073486328 512.027099609375 154.4219818115234 514.4183959960938 146.5884094238281 516.0213012695312 C 138.5514068603516 517.6665649414062 130.2794799804688 518.5 122.001335144043 518.5 Z" stroke="none" fill="#f68c6d"/>
    </g>
    <g id="Grupo_145345" data-name="Grupo 145345" transform="translate(1007.549 1761.303)">
      <g id="Grupo_145342" data-name="Grupo 145342" transform="translate(0 0.001)">
        <g id="Grupo_145341" data-name="Grupo 145341" clip-path="url(#clip-path)">
          <path id="Trazado_193670" data-name="Trazado 193670" d="M274.663,883.928a220.585,220.585,0,0,1-8.505-112.167c1.28-6.891,4.488-15.2,11.476-15.743,4.572-.357,8.5,2.963,12.732,4.723,11.807,4.905,25.292-2.835,33.453-12.677s13.49-21.993,22.827-30.727,25.339-12.763,34.488-3.831c3.677,3.59,5.7,8.764,9.876,11.761,8.312,5.965,19.732.457,28.356-5.047l22.422-14.311c5.732-3.658,11.628-7.385,18.286-8.768s14.344.066,18.651,5.328c3.481,4.253,4.24,10.221,7.631,14.546,9.583,12.222,30.792,3.228,43.791,11.727,5.818,3.8,9.042,10.733,9.794,17.643s-.675,13.869-2.477,20.583a183.852,183.852,0,0,1-52.61,86.957c-21.231,19.574-45.814,24.052-74.634,25.879-7.6.482-15.224.346-22.837.161-35.878-.872-77.156-.865-112.719,3.964" transform="translate(-228.242 -605.716)" fill="#ffe3d6"/>
          <path id="Trazado_193671" data-name="Trazado 193671" d="M25.892,1484.094H262.437a337.857,337.857,0,0,0,32.424-43.193c4.747-7.507,9.356-15.858,8.58-24.706-1.047-11.928-13.492-21.553-25.3-19.567-4.711.793-10.99,2.437-13.12-1.84-1.232-2.474.027-5.424,1.409-7.818,3.1-5.367,6.937-10.447,8.577-16.423s.388-13.357-4.871-16.635c-4.979-3.1-11.46-1.5-16.958.55-23.335,8.7-43.8,23.607-63.194,39.226-3.585,2.887-7.244,5.861-11.595,7.362s-9.618,1.244-13.021-1.855c-4.379-3.989-4.177-10.774-4.2-16.7s-1.44-13.035-6.978-15.138a13.586,13.586,0,0,0-7.061-.262,43.209,43.209,0,0,0-17.6,7.236c-9.623,6.768-16.781,17.624-28.08,20.9-1.952.566-4.127.861-5.957-.023-2.956-1.43-3.77-5.171-4.375-8.4a116.549,116.549,0,0,0-7.694-25.049,4.623,4.623,0,0,0-1.654-2.3c-1.553-.911-3.486.187-4.887,1.318a52.906,52.906,0,0,0-19.376,40.569c0,3.52-.272,8.038-3.616,9.138a6.866,6.866,0,0,1-4.4-.424c-18.525-6.655-23.91-30.51-38.968-43.187-1.726-1.453-3.908-2.825-6.1-2.277-3.211.8-4.056,4.909-4.2,8.216A228.126,228.126,0,0,0,15.1,1464.478c2.679,6.977,5.918,14.079,10.787,19.616" transform="translate(-0.001 -1175.683)" fill="#ffd6c4"/>
          <path id="Trazado_193672" data-name="Trazado 193672" d="M548.05,291.023a17.474,17.474,0,0,0,4.1,11.273,17.543,17.543,0,0,0,0-22.547,17.474,17.474,0,0,0-4.1,11.273" transform="translate(-476.516 -243.236)" fill="#b5b5b5"/>
          <path id="Trazado_193673" data-name="Trazado 193673" d="M583.577,291.023a17.474,17.474,0,0,0-4.1-11.273V302.3a17.474,17.474,0,0,0,4.1-11.273" transform="translate(-503.839 -243.236)" fill="#8c8c8c"/>
          <path id="Trazado_193674" data-name="Trazado 193674" d="M566.286,682.655a11.021,11.021,0,0,0-6.135,1.026,7.471,7.471,0,0,0-2.854,2.288,9.294,9.294,0,0,0-1.417,4.607,25.914,25.914,0,0,0,1.694,11.819c.6,1.511-.625,2.894-1,4.474-.612,2.58-.657,10.771-.7,13.418.027-1.739-4.575-2.789-6.522-2.789-3.715,0-8.057,1.3-11.936,1.63-2.261.192-4.7.334-6.631-.852a19.681,19.681,0,0,0,.052-5.5,7.38,7.38,0,0,0-1.253-3.055,3.746,3.746,0,0,0-2.818-1.554,2.54,2.54,0,0,0-2.5,1.8,6.773,6.773,0,0,0-6.832-2.588,3.839,3.839,0,0,0-1.33.6,5.14,5.14,0,0,0-1.555,2.929,6.432,6.432,0,0,0-.3,2.623,2.332,2.332,0,0,0,1.572,1.956,8.628,8.628,0,0,0,1.079,6.45c.223.381.566.789,1,.742a6.1,6.1,0,0,0,.193,3.74,5.768,5.768,0,0,0,5.7,2.751,9.148,9.148,0,0,0,5.7-3.267c1.633,1.923,4.3,2.619,6.714,3.345a86.8,86.8,0,0,0,24.928,3.665c9.662-13.646,8.892-33.9,5.14-50.264" transform="translate(-447.086 -593.481)" fill="#705716"/>
          <path id="Trazado_193675" data-name="Trazado 193675" d="M561.143,691.659h0a2.752,2.752,0,0,1-2.752-2.752V455.766a2.752,2.752,0,0,1,5.5,0V688.907a2.752,2.752,0,0,1-2.752,2.752" transform="translate(-485.507 -393.884)" fill="#3b2e0b"/>
          <path id="Trazado_193676" data-name="Trazado 193676" d="M526.545,890.408c-.173-.592-.449-1.15-.631-1.74s-.589-1.379-.322-1.935a6.531,6.531,0,0,0,.429-3.86,17.971,17.971,0,0,0-1.457-3.6,3.871,3.871,0,0,0,.584-2.219,11.545,11.545,0,0,0-.341-2.3l-.3-1.386a2.037,2.037,0,0,0-.243.587,6.773,6.773,0,0,0-6.832-2.588,3.84,3.84,0,0,0-1.33.6,5.141,5.141,0,0,0-1.555,2.929,6.431,6.431,0,0,0-.3,2.622,2.333,2.333,0,0,0,1.573,1.957,8.628,8.628,0,0,0,1.079,6.45c.223.381.566.789,1,.741a6.094,6.094,0,0,0,.193,3.74,5.768,5.768,0,0,0,5.7,2.751,7.727,7.727,0,0,0,2.949-.987,5.291,5.291,0,0,0-.2-1.767" transform="translate(-447.086 -757.467)" fill="#634d13"/>
          <path id="Trazado_193677" data-name="Trazado 193677" d="M596.966,886.452a1.678,1.678,0,0,0,1.242.465h.01a15,15,0,0,0-.125-3.626,7.382,7.382,0,0,0-1.253-3.055,3.747,3.747,0,0,0-2.818-1.554,2.663,2.663,0,0,0-2.222,1.156,20.382,20.382,0,0,0,.125,6.989c.111.611.328,1.317.916,1.515.689.232,1.353-.4,1.755-1a10.558,10.558,0,0,0,1.463-3.367,2.122,2.122,0,0,1,.706,1.3,1.012,1.012,0,0,0,.2,1.183" transform="translate(-514.341 -763.991)" fill="#634d13"/>
          <path id="Trazado_193678" data-name="Trazado 193678" d="M666.064,708.528c-1.787,1.436-2.129,3.984-2.259,6.273-.214,3.769-.111,7.877,2.225,10.842.865,1.1,2.606,2.413,3.158,3.7a8.884,8.884,0,0,1,.614,3.328,10.657,10.657,0,0,1-.77,4.517,6.1,6.1,0,0,1-3.134,3.238c.132,1.117.244,2.6.3,3.722a6.974,6.974,0,0,1-6.87,7.3,15.551,15.551,0,0,1-4.039-.706,35.6,35.6,0,0,0-6.726-1.16c-4.922-.291-10.084.905-14.69-.754,1.647,1.663,4.13,2.318,6.4,3a86.8,86.8,0,0,0,24.928,3.665c8.891-12.557,8.949-30.712,5.978-46.277-.841-.021-1.684-.034-2.521-.111-.761-.071-2.183.081-2.584-.569" transform="translate(-551.132 -616.047)" fill="#634d13"/>
          <path id="Trazado_193679" data-name="Trazado 193679" d="M929.162,342.135a7.8,7.8,0,0,0-2.99-1.666,4.288,4.288,0,0,0-3.331.407,3.5,3.5,0,0,0-1.576,2.406c-.3,2.021,1.171,3.831,2.548,5.341a10.708,10.708,0,0,0,3.514,2.888,7.323,7.323,0,0,0,5.944-.454,11.879,11.879,0,0,0-4.108-8.922" transform="translate(-800.981 -295.89)" fill="#574312"/>
          <path id="Trazado_193680" data-name="Trazado 193680" d="M939.633,354.021a7.151,7.151,0,0,0-1.741-.688,3.992,3.992,0,0,0-2.371.032,2.144,2.144,0,0,0-1.429,1.773,2.633,2.633,0,0,1,2.562-.416c.216.079.046.359.058.588s-.036.458-.041.688a3.009,3.009,0,0,0,.494,1.528,2.639,2.639,0,0,0,1.353,1.3,1.459,1.459,0,0,1-1.848.8c.067.352.609.573.964.62a4.325,4.325,0,0,0,1.8-.145,1.948,1.948,0,0,0,3.119.977A5.49,5.49,0,0,1,940.5,356.9c-.043-.9-.078-2.441-.87-2.882" transform="translate(-812.169 -307.072)" fill="#47370f"/>
          <path id="Trazado_193681" data-name="Trazado 193681" d="M1106.45,318.061a7.8,7.8,0,0,1,2.183-2.636,4.287,4.287,0,0,1,3.252-.829,3.5,3.5,0,0,1,2.341,1.671c1.016,1.773.3,3.995-.438,5.9a10.711,10.711,0,0,1-2.228,3.965,7.322,7.322,0,0,1-5.7,1.732,11.881,11.881,0,0,1,.595-9.8" transform="translate(-960.836 -273.48)" fill="#574312"/>
          <path id="Trazado_193682" data-name="Trazado 193682" d="M1120.946,330.59a7.166,7.166,0,0,1,1.373-1.272,3.993,3.993,0,0,1,2.221-.829,2.144,2.144,0,0,1,1.975,1.134,2.633,2.633,0,0,0-2.539.541c-.173.152.088.351.159.57s.2.414.287.626a3,3,0,0,1,.094,1.6,2.637,2.637,0,0,1-.789,1.7,1.459,1.459,0,0,0,2.011.073c.065.352-.359.755-.673.927a4.328,4.328,0,0,1-1.732.518,1.948,1.948,0,0,1-2.552,2.041,5.49,5.49,0,0,0,.4-4.633c-.288-.859-.812-2.3-.234-3" transform="translate(-974.408 -285.613)" fill="#47370f"/>
          <path id="Trazado_193683" data-name="Trazado 193683" d="M1015.516,411.522l-2-25.734c3.533-1.722,7.433-1.79,11.273-2.629,1.673,8.755,3.832,17.547,5.5,26.3-4.157,2.882-9.79,2.908-14.777,2.061" transform="translate(-881.227 -333.147)" fill="#785d18"/>
          <path id="Trazado_193684" data-name="Trazado 193684" d="M796.886,1045.952c-.191-.563-1.168.042-1.162.637.139,15.1-4.8,19.495-6.153,29.436a83.863,83.863,0,0,0-.852,18.835c1.071,11.816,6.106,22.859,11.067,33.636,7.007,15.22,9.74,31.409,9.172,48.155-.129,3.821.826,7.812-1.561,10.8a22.537,22.537,0,0,1-4.935,4.188l-14.195,9.867c-2.383,1.656-5.206,1.116-8.094.841-1.636-.156-3.661-.382-4.559.994A3.066,3.066,0,0,0,775.5,1206a6.361,6.361,0,0,0,8.3,3.512c5.82-2.672,11.61-6.084,18-5.63,2.46.175,4.838,1.151,7.3,1.1a9.092,9.092,0,0,0,8.494-7.394c.5-3.111-2.146-5.96-1.963-9.106,1.548-26.7,5.612-31.623,5.529-46.736a45.562,45.562,0,0,0-6.766-23.565c-7.691-12.44-2.9-29.095-3.192-43.718-.017,1.491,1.85,2.687,2.369,4.085,3.631,9.784,9.375,18.621,15.072,27.365,4.922,7.556,10.143,15.4,18,19.827-1.613,5.538.819,9.713,2.8,15.132,2.521,6.912,6.2,13.329,9.56,19.875s6.442,13.352,7.627,20.613.3,15.1-3.775,21.223a14.692,14.692,0,0,1-4.606,4.4c-.531.323-1.105.577-1.6.949a5.941,5.941,0,0,0-1.754,2.342,4.785,4.785,0,0,0-.3,3.929,5.03,5.03,0,0,0,2.508,2.2c.92.446,2.315.625,2.708-.319a173.286,173.286,0,0,0,18.55-2.661c2.049-.365,4.513-1.17,4.877-3.219a4.83,4.83,0,0,0-.7-2.931c-2.361-4.7-6.058-9.034-6.3-14.284-.087-1.857.278-3.708.267-5.566a6.679,6.679,0,0,0-1.877-5.072c-1.867-9.275-1.461-19.149-1.971-28.6s-1.987-19.166-7.012-27.182a53.926,53.926,0,0,0-11.42-12.334c-6.538-5.476-7.023-15.467-8.7-23.827-2.013-10.016-4.783-19.939-9.2-29.152-3.037-6.337-7.627-12.869-14.537-14.147-3.9-.721-7.732,1.387-11.678,1.8s-11.937.795-13.213-2.961" transform="translate(-674.064 -909.234)" fill="#785d18"/>
          <path id="Trazado_193685" data-name="Trazado 193685" d="M1327.473,1660.051c4.946-.545,9.966-1.466,14.792-2.325,2.049-.365,4.513-1.17,4.877-3.219a4.831,4.831,0,0,0-.7-2.931c-2.36-4.7-6.059-9.034-6.3-14.284-.087-1.857.278-3.708.267-5.566a6.678,6.678,0,0,0-1.877-5.072c-1.867-9.275-1.461-19.149-1.971-28.6s-1.987-19.166-7.012-27.182a53.922,53.922,0,0,0-11.42-12.334,15.156,15.156,0,0,1-1.823-1.816c-.135.112-.266.229-.391.353a12.16,12.16,0,0,0-1.9,2.728l-5.2,9.157c.57.376,1.152.736,1.752,1.074a13.882,13.882,0,0,0,.271,8.366c3.173,3.811,7.572,6.655,11.825,9.34l8.534,5.388a94.84,94.84,0,0,0,3.775,30.871,24.414,24.414,0,0,1,1.433,6.318c.074,2.259-.563,4.478-.736,6.731s.238,4.757,1.951,6.232a24.667,24.667,0,0,1,.964,6.332,4.761,4.761,0,0,0-2.309-.314,1.635,1.635,0,0,0-1.4,1.621,2.234,2.234,0,0,0-3.3,1.287,2.864,2.864,0,0,0-3.315,1.543,4.007,4.007,0,0,0-4.6-.369,4.371,4.371,0,0,1,4.019,5.936,3.659,3.659,0,0,0-.195.728" transform="translate(-1137.974 -1353.534)" fill="#6b5315"/>
          <path id="Trazado_193686" data-name="Trazado 193686" d="M821.91,1531.737a45.559,45.559,0,0,0-6.766-23.564,30.861,30.861,0,0,1-4.206-13.905,8.713,8.713,0,0,0-2.475.322c-5.21,1.469-7.841,7.254-9,12.542a54.756,54.756,0,0,0-1.04,6.757q1.042,2.309,2.1,4.6,1.364,2.962,2.512,5.973a61.454,61.454,0,0,0,7.3-9.577c.9,4.364,1.293,8.94,3.7,12.691,1.2,1.873,2.74,3.539,3.689,5.552a17.371,17.371,0,0,0-1.082,5.776l-2.479,42.048a23.1,23.1,0,0,1,1.464,3.106,13.4,13.4,0,0,0-4.43-1.2,5.418,5.418,0,0,1,2.455,2.35,3.19,3.19,0,0,1-.226,3.276,3.493,3.493,0,0,1-2.693,1.188,10.338,10.338,0,0,1-2.985-.525,1.628,1.628,0,0,1-.739-.35.561.561,0,0,1-.081-.744c-1.564,2.263-4.6,3.162-7.308,3.66s-5.537.685-7.984,1.943c-2.212,1.137-4.059,3.125-6.513,3.532a10.939,10.939,0,0,1-4.433-.5l-4.586-1.165a4.668,4.668,0,0,0,.139.468,6.361,6.361,0,0,0,8.3,3.512c5.82-2.672,11.61-6.084,18-5.63,2.46.175,4.838,1.151,7.3,1.1a9.092,9.092,0,0,0,8.494-7.394c.5-3.111-2.146-5.96-1.963-9.106,1.548-26.7,5.612-31.623,5.529-46.736" transform="translate(-674.806 -1299.227)" fill="#6b5315"/>
          <path id="Trazado_193687" data-name="Trazado 193687" d="M1402.517,1216.891a13.01,13.01,0,0,1-5.929,6.294,3.973,3.973,0,0,0-1.627,4.213,9.1,9.1,0,0,0,1.177,2.021,1.96,1.96,0,0,1,.1,2.2,22.4,22.4,0,0,0,1.045,6.017,1.2,1.2,0,0,0,1.213,1.053,21.8,21.8,0,0,0,4.414.26,6.024,6.024,0,0,0,3.555-1.028,6.962,6.962,0,0,0,1.78-2.711c2.189-4.859.321-10.9-1.34-15.965a3.846,3.846,0,0,0-2.942-2.544c-.625-.2-.8.324-1.44.192" transform="translate(-1212.787 -1057.849)" fill="#785d18"/>
          <path id="Trazado_193688" data-name="Trazado 193688" d="M929.039,508.362c-6.487-5.746-16.086-6.858-22.653-12.513-1.171-1.008-2.961-2.633-4.4-2.074-2.386.926-5.962.763-6.98,3.111a40.892,40.892,0,0,1-8.344,12.378c-1.779,1.808-3.721,3.445-5.66,5.08l-5.7,4.808c-3.429,2.89-2.2,8.641-1.979,13.12a7.672,7.672,0,0,0,2.6,6.237l2.733,3.033a12.18,12.18,0,0,1,1.716,2.506q-.625,14.638.027,29.293c-.035-.08-.07-.114-.1-.066a.481.481,0,0,0,.12.534c.01.222.019.444.03.667.09-.043.1-.287.077-.547,1.706,1.739,4.236,2.37,6.654,2.677,8.533,1.082,17.706-1.184,23.916-7.135-1.46-2.57-1.8-5.677-2-8.714l.233-1.611a27.358,27.358,0,0,1,1.2-5.541,29.877,29.877,0,0,1,2.952-5.443,44.358,44.358,0,0,0,4.6-9.043c2.7-2.1,5.226-4.433,6.493-7.56.935-2.308,2.613-4.455,3.754-6.668,1.284-2.49,2.5-5.12,2.593-7.919.1-3,.369-6.626-1.874-8.613" transform="translate(-758.983 -429.226)" fill="#785d18"/>
          <path id="Trazado_193689" data-name="Trazado 193689" d="M1090.434,476.574c-6.177-3.841-13.905-5.374-19.462-10.159l-.412-.355c-.452-2.084-.91-4.168-1.362-6.252a4.677,4.677,0,0,0-.538,2.38q.142,3.427.1,6.858a6.906,6.906,0,0,1-.815,3.821,7.053,7.053,0,0,1-.928,1.048l-4.8,4.746c.892-.345,1.808-.6,2.7-.94a13.278,13.278,0,0,0,3.563-1.809,4.487,4.487,0,0,0,1.843-3.408,16.564,16.564,0,0,1,9.568,3.113.953.953,0,0,0,.475.957,45.028,45.028,0,0,0-10.544,2.914,10.821,10.821,0,0,0,4.473-.646,30.647,30.647,0,0,1,7.666-1.025,6.149,6.149,0,0,1,1.949.218c1.713.557,2.685,2.317,3.491,3.928,1.009-1.62,2.025-3.626,3.036-5.389" transform="translate(-923.568 -399.792)" fill="#664f14"/>
          <path id="Trazado_193690" data-name="Trazado 193690" d="M1094.584,642.557c-.5-.278-1.556.46-1.625,1.027a31.774,31.774,0,0,1-2.68,9.457,10.822,10.822,0,0,1-2.529,3.73,13.028,13.028,0,0,1-3.988,2.1c-5.443,2.1-11.048,4.235-16.882,4.185,1.117.684,2.134,1.132,3.252,1.816a6.329,6.329,0,0,0,3.436,1.119l5.333.616c.093.288-.486.7-.718.9-1.012.851-.537,2.536-1.131,3.717-.574,1.141-1.976,1.539-3.222,1.82l-2.062.466a8.017,8.017,0,0,1,3.825,1.5,13.184,13.184,0,0,1-3.847.4,3.246,3.246,0,0,1-1.214-.147c-.847-.333-1.244-1.274-1.758-2.026a5.531,5.531,0,0,0-1.97-1.759,7.4,7.4,0,0,1,1.855,4.61c.045,1.251-.291,2.583.26,3.706a10.362,10.362,0,0,0,1.953,2.133,5.113,5.113,0,0,1,1.307,3.74,2.983,2.983,0,0,1-.528,1.611c-.273.362-.657.625-.951.97a4.771,4.771,0,0,0-.892,2.361,30.546,30.546,0,0,0-.4,6.416c.07,1.605,3.447,1.148,4.99.7a16.952,16.952,0,0,0,4.083-1.8,29.823,29.823,0,0,1-.82-5.765l.233-1.61a27.338,27.338,0,0,1,1.2-5.541,29.894,29.894,0,0,1,2.952-5.443,44.343,44.343,0,0,0,4.6-9.043c2.7-2.1,5.226-4.433,6.493-7.56a55.7,55.7,0,0,1,3.388-5.992q.02-.878.033-1.75c.05-3.138.086-6.362-1.012-9.3a2.459,2.459,0,0,0-.966-1.37" transform="translate(-927.559 -558.635)" fill="#695115"/>
          <path id="Trazado_193691" data-name="Trazado 193691" d="M888.254,785.722a17.228,17.228,0,0,1,1.868-1.991c1.147-1.1,2.774-2.378,3.922-3.479-4.054.642-7.569,1.983-9.11,5.787.044-.176.141-1.16.185-1.336a9.636,9.636,0,0,1-.355-5.379l5.133-1.548a3.2,3.2,0,0,0,2.15-1.5,9.568,9.568,0,0,0,1.567-2.811c-.911,1.246-2.609,1.554-4.138,1.765l-1.926.266-3.618.5c-1.521.21-3.755.209-5.028-.65a10.966,10.966,0,0,1-3.714-4.918c-.305-.715-.568-1.446-.815-2.183.079.952.162,1.887.206,2.771a7.673,7.673,0,0,0,2.6,6.237l2.733,3.033a12.176,12.176,0,0,1,1.716,2.506q-.559,13.079-.1,26.175a7.366,7.366,0,0,0,2.113.263,18.96,18.96,0,0,0,6.54-1.184l-3.61-5.658a1.624,1.624,0,0,0-.6-.642c-.312-.15-.694-.089-1.007-.237a1.55,1.55,0,0,1-.684-1.167c-.862-4.18.668-8.479,2.59-12.29a15.047,15.047,0,0,1,1.381-2.331" transform="translate(-760.246 -667.97)" fill="#8a6b1b"/>
          <path id="Trazado_193692" data-name="Trazado 193692" d="M870.8,1364.455a51.706,51.706,0,0,0,12.771,31.2c5.2-5.089,9.356-11.794,12.608-18.3,1.063-2.128,2.031-4.432,1.819-6.8-.321-3.575-1.568-6.259-2.674-9.673s-3.19-6.8-6.532-8.113a11.476,11.476,0,0,0-8.17.379c-4.44,1.691-7.664,7.074-9.821,11.308" transform="translate(-757.139 -1175.683)" fill="#bda15a"/>
          <path id="Trazado_193693" data-name="Trazado 193693" d="M840.3,1083.807c-3.219,2.171-4.974,5.9-6.366,9.528-7.822,20.359-8.849,42.638-8.793,64.448a98.422,98.422,0,0,0,15.538-20.247,51.366,51.366,0,0,0,2.789-5.395c3.59-8.278,3.9-17.553,4.159-26.573q.219-7.676.438-15.352c.089-3.128-4.059-5.107-7.151-5.594-.012-.174-.6-.641-.614-.815" transform="translate(-717.433 -942.343)" fill="#ffdb7a"/>
          <path id="Trazado_193694" data-name="Trazado 193694" d="M1086.172,1286.866a50.04,50.04,0,0,0,19.291,26.034c1.67-3.573,4.682-8.415,6.353-11.988,2.536-5.425,5.117-11.022,5.429-17,.324-6.209-6.841-10.211-11.341-14.5-2.777-2.647-6.222-5.5-9.977-4.72a7.887,7.887,0,0,0-3.194,1.576c-3,2.341-4.671,6.06-5.3,9.813s-2.406,7.158-1.264,10.787" transform="translate(-944.074 -1099.502)" fill="#bda15a"/>
          <path id="Trazado_193695" data-name="Trazado 193695" d="M948.662,1094.127c-1.573,18.159-.977,37.069,6.524,53.681,1.816,4.022,4.015,7.858,6.21,11.687,2.207,3.85,4.465,7.764,7.718,10.781,5.075-12.017,7.251-25.5,7.674-38.538.46-14.188-.465-29.167-8.089-41.141-1.711-.375-3.035.059-4.771.3l-8.759,1.19a42.685,42.685,0,0,0-6.506,2.044" transform="translate(-824.223 -948.12)" fill="#d9ba68"/>
          <path id="Trazado_193696" data-name="Trazado 193696" d="M1093.446,1053.8c6.687,1.343,11.838,6.76,15.367,12.6a103.962,103.962,0,0,1,5.267,10.38c5.713,12.4,11.481,25.279,11.684,38.931-10.314-3.418-18.966-10.605-25.425-19.344s-10.681-18.964-13.537-29.448a19.57,19.57,0,0,1-.949-6.5,7.34,7.34,0,0,1,2.945-5.649,7.206,7.206,0,0,1,4.648-.969" transform="translate(-944.097 -916.183)" fill="#ffdb7a"/>
          <path id="Trazado_193697" data-name="Trazado 193697" d="M1123.76,1075.619c5.265,6.569,9.911,13.906,11.657,22.142a49.19,49.19,0,0,0,2.387-10.049c-1.531-3.69-3.194-7.333-4.854-10.934a103.939,103.939,0,0,0-5.266-10.381c-3.529-5.836-8.68-11.253-15.366-12.6a6.945,6.945,0,0,0-3.346.352c-.5.745-.98,1.467-1.443,2.126,5,6.771,10.966,12.773,16.231,19.342" transform="translate(-962.969 -916.183)" fill="#f2d074"/>
          <path id="Trazado_193698" data-name="Trazado 193698" d="M934.73,972.471c-2.418-.307-4.948-.938-6.654-2.677.026.259.013.5-.077.547-.01-.222-.019-.444-.03-.666a.48.48,0,0,1-.12-.534c.029-.048.065-.015.1.066q-.241-5.406-.307-10.818-.115,9.513.307,19.023c-.035-.08-.07-.114-.1-.066a.48.48,0,0,0,.12.534c.01.222.019.444.03.666.09-.043.1-.287.077-.547,1.706,1.739,4.236,2.37,6.654,2.677,8.533,1.082,17.706-1.184,23.916-7.135a16.84,16.84,0,0,1-1.828-6.624c-6.1,4.766-14.358,6.533-22.088,5.553" transform="translate(-806.54 -833.294)" fill="#c48900"/>
          <path id="Trazado_193699" data-name="Trazado 193699" d="M1022.785,402.031c2.461-.116,3.894-2.364,4.972-4.727-1.03-4.718-2.07-9.437-2.969-14.145-3.84.839-7.74.907-11.273,2.629q.409,5.259.818,10.518c.2.281.4.559.6.834,1.927,2.572,4.641,5.043,7.851,4.892" transform="translate(-881.226 -333.147)" fill="#664f14"/>
          <path id="Trazado_193700" data-name="Trazado 193700" d="M962.8,240.075a34.17,34.17,0,0,0,6.625,23.189c1.926,2.572,4.641,5.043,7.851,4.892,3.123-.148,4.591-3.726,5.778-6.618a25.926,25.926,0,0,0,1.715-9.167,41.817,41.817,0,0,0-2.059-14.1,7.546,7.546,0,0,0-1.451-2.842,6.59,6.59,0,0,0-4.8-1.722c-5.638-.106-13.171.751-13.657,6.369" transform="translate(-837.021 -203.194)" fill="#785d18"/>
          <path id="Trazado_193701" data-name="Trazado 193701" d="M978.247,1053.737c0,4.407-2.643,7.98-5.9,7.98s-5.9-3.573-5.9-7.98,2.643-7.98,5.9-7.98,5.9,3.573,5.9,7.98" transform="translate(-840.297 -909.26)" fill="#ffb200"/>
          <path id="Trazado_193702" data-name="Trazado 193702" d="M1085.15,372.448c-.14.631-.176,1.149-.316,1.78a30.287,30.287,0,0,1,5.516,4.4,28.183,28.183,0,0,0,.534-3.765,30.821,30.821,0,0,0-5.734-2.411" transform="translate(-943.236 -323.834)" fill="#ff7a42"/>
          <path id="Trazado_193703" data-name="Trazado 193703" d="M994.329,396.783a30.237,30.237,0,0,1,2.968-6.79c-.416-.495-.687-.938-1.1-1.432a30.821,30.821,0,0,0-3.943,4.752,33.368,33.368,0,0,0,2.078,3.47" transform="translate(-862.737 -337.844)" fill="#ff7a42"/>
          <path id="Trazado_193704" data-name="Trazado 193704" d="M1013.925,440.449a18.714,18.714,0,0,0,1.787,2.071,30.843,30.843,0,0,1,1.823-3.607c-.416-.494-.687-.938-1.1-1.432a30.751,30.751,0,0,0-2.574,2.878l.066.09" transform="translate(-881.525 -380.379)" fill="#ff7a42"/>
          <path id="Trazado_193705" data-name="Trazado 193705" d="M1097.9,420.969c-.14.631-.176,1.149-.316,1.78a31.044,31.044,0,0,1,2.666,1.862l.1-.245a20.024,20.024,0,0,0,.758-2.216,30.741,30.741,0,0,0-3.208-1.18" transform="translate(-954.318 -366.022)" fill="#ff7a42"/>
          <path id="Trazado_193706" data-name="Trazado 193706" d="M1036.05,642.737c-2.391,5.814-1.6,12.384-.773,18.616a63.586,63.586,0,0,1,.408-7.807,8.765,8.765,0,0,1,4.807-2.165,8.049,8.049,0,0,0-4.356-.317c.1-.7.158-1.7.26-2.4a10.783,10.783,0,0,1,4.879-.633,8.027,8.027,0,0,0-4.615-1.061c-.094-1.067-.395-2.295-.489-3.361-.04-.452-.365-.492-.121-.875" transform="translate(-899.433 -558.844)" fill="#695115"/>
          <path id="Trazado_193707" data-name="Trazado 193707" d="M1247.282,562.914a28.928,28.928,0,0,0,6.57,25.987c-.125,4.388.788,7.744,2.225,11.892a18.511,18.511,0,0,0,7.932,10.156c1.182,3.839-1.142,8.276-.774,12.275.28,3.041,2.136,5.664,3.531,8.381a29.848,29.848,0,0,1,2.344,20.8,9.558,9.558,0,0,0,8.821.619c1.144-14.808,2.682-31.294-2.938-45.043-1.671-4.088-.722-10.13-1.2-14.52a25.036,25.036,0,0,0-5.756-13.382,23.718,23.718,0,0,0-5.683-16.787c-1.982-2.261-4.551-4.2-7.531-4.6s-6.814,1.309-7.539,4.228" transform="translate(-1083.783 -485.714)" fill="#785d18"/>
          <path id="Trazado_193708" data-name="Trazado 193708" d="M955.419,217.941a1.54,1.54,0,0,1-.82-1.036,5.2,5.2,0,0,1,.306-4,2.248,2.248,0,0,1,1.856-1.207,1.8,1.8,0,0,1,1.813-2.54,2.994,2.994,0,0,1,.442-1.251,3.422,3.422,0,0,1,2.836-1.279,1.949,1.949,0,0,1,1.848.9c.14-.416.839-.745,1.232-.943a3.56,3.56,0,0,1,2.365-.513,3.866,3.866,0,0,1,.963.427l1.654.922a1.984,1.984,0,0,1,2.106-.9,1.806,1.806,0,0,1,1.438,1.836,2.227,2.227,0,0,1,2.591.873,5.942,5.942,0,0,1,.886,2.746,2.647,2.647,0,0,1-.126,1.649c-.16.291-.439.587-.333.9a2.558,2.558,0,0,1-1.521,1.329A6.187,6.187,0,0,1,973,216.2q-1.674.1-3.352.039c-1.186-.04-2.371-.138-3.557-.1a15.743,15.743,0,0,0-4.627.848c-.968.333-1.906.762-2.9,1.006a5.722,5.722,0,0,1-3.143-.049" transform="translate(-829.772 -179.127)" fill="#594313"/>
          <path id="Trazado_193709" data-name="Trazado 193709" d="M955.446,285.493c-.137,2.975,1.28,5.775,2.66,8.415a1.292,1.292,0,0,0,.507.612,42.365,42.365,0,0,1,.642-10.2,89.121,89.121,0,0,1,13.087-3.092,16.4,16.4,0,0,1,3.35-.149,18.1,18.1,0,0,0,1.833,7.813,8.262,8.262,0,0,1,1.094,2.52,34.723,34.723,0,0,0,.555-9.291c-.091-.792-1.037-1.319-1.718-1.733a9.962,9.962,0,0,0-5.366-1.188c-4.193.069-8.249,1.468-12.1,3.123a13.4,13.4,0,0,0-4.543,3.168" transform="translate(-830.729 -242.757)" fill="#594313"/>
          <path id="Trazado_193710" data-name="Trazado 193710" d="M1082.363,35.2a69.117,69.117,0,0,1,.836-14.828,34.639,34.639,0,0,1,1.118-5.438,24.17,24.17,0,0,1,2.866-5.907A32.038,32.038,0,0,1,1096.049,0c-.206,4.113-.341,8.728-1.985,12.5-1.506,3.461-4.1,6.312-6.355,9.336s-4.283,6.48-4.338,10.255c-.014.975-.131,1.759-.135,2.734,0,.351-.523.35-.874.371" transform="translate(-940.983 -0.001)" fill="#ec6500"/>
          <path id="Trazado_193711" data-name="Trazado 193711" d="M1100.124,2.211a176.332,176.332,0,0,0-11.1,21.48,24.714,24.714,0,0,0-1.575,4.458,23.046,23.046,0,0,0-.431,3.995q-.1,2.464-.065,4.932c.206-.042.37-.128.371-.324,0-.975.121-1.759.135-2.734.055-3.775,2.078-7.231,4.338-10.255s4.849-5.874,6.356-9.336c1.6-3.688,1.771-8.176,1.97-12.215" transform="translate(-945.071 -1.923)" fill="#d45b00"/>
          <path id="Trazado_193712" data-name="Trazado 193712" d="M1098.927,111.213a54.185,54.185,0,0,1,3.563-11.087,27.172,27.172,0,0,1,1.923-3.906,18.956,18.956,0,0,1,3.342-3.916,25.12,25.12,0,0,1,8.511-5.1c-.969,3.08-1.983,6.555-3.976,9.1-1.827,2.329-4.355,3.981-6.667,5.829s-4.53,4.072-5.317,6.925c-.2.737-.447,1.309-.642,2.048-.071.266-.466.162-.736.109" transform="translate(-955.489 -75.824)" fill="#ffd555"/>
          <path id="Trazado_193713" data-name="Trazado 193713" d="M1118.8,88.861a138.233,138.233,0,0,0-12.664,14.108,19.374,19.374,0,0,0-2.076,3.072,18.07,18.07,0,0,0-1.116,2.946q-.565,1.85-1.024,3.73c.164.009.306-.024.345-.173.2-.739.439-1.311.643-2.048.787-2.854,3.005-5.077,5.317-6.925s4.84-3.5,6.667-5.829c1.947-2.482,2.959-5.854,3.908-8.88" transform="translate(-958.093 -77.263)" fill="#e8c24e"/>
          <path id="Trazado_193714" data-name="Trazado 193714" d="M943.151,264.788a30.811,30.811,0,0,1,11.375-3.748,61.262,61.262,0,0,1,12.031-.283,5.165,5.165,0,0,0,.627-1.343,7.056,7.056,0,0,0,.027-3.337,5.4,5.4,0,0,0-.831-2.522c-1.472-.1-3.117-.316-4.589-.412a49.876,49.876,0,0,0-5.21-.158,32.629,32.629,0,0,0-14.652,4.566,7.187,7.187,0,0,0-.545,5.608,2.461,2.461,0,0,0,1.768,1.629" transform="translate(-818.208 -219.946)" fill="#3b2d0c"/>
          <path id="Trazado_193715" data-name="Trazado 193715" d="M1038.707,918.336a17.28,17.28,0,0,0-13.314-1.607,20.835,20.835,0,0,0,3.563.6c3.726.407,6.832,2.923,9.7,5.334-.925-.165-1.895.139-2.82-.025-3.338-.594-6.77-1.188-10.095-.524,4.06.984,7.309,2.978,11,4.942a17.069,17.069,0,0,0-10.294.557,15.73,15.73,0,0,1,9.7,3.5c1.414-.275,2.241-2.046,2.757-3.391a22.89,22.89,0,0,0,1.381-4.505c.251-1.554-.876-3.468-1.573-4.878" transform="translate(-891.553 -796.493)" fill="#695115"/>
          <path id="Trazado_193716" data-name="Trazado 193716" d="M1332.969,665.527V570.761a30.512,30.512,0,0,0-15.256-26.424l-15.141-8.742-15.141,8.742a30.512,30.512,0,0,0-15.256,26.424v94.766a30.512,30.512,0,0,0,15.256,26.424l15.141,8.742,15.141-8.742a30.512,30.512,0,0,0,15.256-26.424" transform="translate(-1106.124 -465.686)" fill="#d96838"/>
          <path id="Trazado_193717" data-name="Trazado 193717" d="M1314.711,567.371l-15.141-8.742-15.141,8.742a23.647,23.647,0,0,0-12.253,23.418v94.766a30.512,30.512,0,0,0,15.256,26.424l15.141,8.742,15.141-8.742a23.647,23.647,0,0,0,12.253-23.418V593.795a30.512,30.512,0,0,0-15.256-26.424m8.119,121.19a23.374,23.374,0,0,1-11.687,20.243l-11.573,6.681L1288,708.8a23.375,23.375,0,0,1-11.687-20.243V593.795A23.375,23.375,0,0,1,1288,573.552l11.573-6.681,11.573,6.681a23.374,23.374,0,0,1,11.687,20.243Z" transform="translate(-1106.124 -485.714)" fill="#c25d32"/>
          <path id="Trazado_193718" data-name="Trazado 193718" d="M1302.572,543.836l11.573,6.681a23.375,23.375,0,0,1,11.688,20.243v94.766a23.374,23.374,0,0,1-11.687,20.243l-11.573,6.681L1291,685.77a23.375,23.375,0,0,1-11.687-20.243V570.761A23.375,23.375,0,0,1,1291,550.517Zm0-8.241-15.141,8.742a30.512,30.512,0,0,0-15.256,26.424v94.766a30.512,30.512,0,0,0,15.256,26.424l15.141,8.742,15.141-8.742a30.512,30.512,0,0,0,15.256-26.424V570.761a30.512,30.512,0,0,0-15.256-26.424Z" transform="translate(-1106.124 -465.686)" fill="#ab532c"/>
          <path id="Trazado_193719" data-name="Trazado 193719" d="M1050.487,379.893a2.114,2.114,0,0,0,.023.963.8.8,0,0,0,.7.58.993.993,0,0,0,.421-.119,3.038,3.038,0,0,0,1.263-4.342c-.44-.708-1.46-1.4-1.889-.349a15.064,15.064,0,0,0-.518,3.268" transform="translate(-913.334 -326.999)" fill="#6e5516"/>
          <path id="Trazado_193720" data-name="Trazado 193720" d="M1010.84,351.118c.163,1-.018,1.867-.4,1.93s-.833-.7-1-1.7.018-1.867.4-1.93.833.7,1,1.7" transform="translate(-877.629 -303.806)" fill="#382b0b"/>
          <path id="Trazado_193721" data-name="Trazado 193721" d="M1084.25,340.934c.164,1-.018,1.867-.4,1.93s-.833-.7-1-1.7.018-1.867.4-1.93.833.7,1,1.7" transform="translate(-941.457 -294.95)" fill="#382b0b"/>
          <path id="Trazado_193722" data-name="Trazado 193722" d="M511.776,388.209a17.368,17.368,0,0,0-7.527,6.411,9.784,9.784,0,0,1,3.218-1.865,52.856,52.856,0,0,0-3.3,7.216,9.327,9.327,0,0,1,2.632-1.155,37.8,37.8,0,0,0-1.252,8.109l2.853-3.467a29.428,29.428,0,0,0,1.256,9.98,29.864,29.864,0,0,1,2.488-4.981,20.552,20.552,0,0,0,3.084,9.915,3.762,3.762,0,0,0,1.206-2.281c.624.745,1.259,1.181,1.82,1.974a21.1,21.1,0,0,0,1.031-5.251,8.936,8.936,0,0,0,1.065,3.067,19.318,19.318,0,0,0,1.044-6.692,6.732,6.732,0,0,0,1.782,2.23,35.936,35.936,0,0,0-.737-9.08l1.445,1.974a24.834,24.834,0,0,0-.3-6.9,3.775,3.775,0,0,0,2.307,1.415,27.347,27.347,0,0,0-3.073-8.339,13.335,13.335,0,0,0-6.6-5.752c-2.065,1.607-2.036,2.416-4.431,3.471" transform="translate(-438.358 -334.52)" fill="#ec6500"/>
          <path id="Trazado_193723" data-name="Trazado 193723" d="M955.921,2033.356l4.084,1.666a34.347,34.347,0,0,0-6.47,3.13l3.172-.062a19.308,19.308,0,0,0-4.674,4.21l5.9.089a6.953,6.953,0,0,0-1.7,4.317l4.233-2.619a18.663,18.663,0,0,0,1.158,4.361l2.309-4.038,2.15,3.523a.592.592,0,0,0,.282.284c.261.087.483-.2.608-.446l1.239-2.416a8.3,8.3,0,0,0,2.439,3.825,12.576,12.576,0,0,1,1.314-3.5q.571,1.443,1.045,2.923a16.17,16.17,0,0,0,1.661-5.005,2.386,2.386,0,0,0,1.608,1.359,27.9,27.9,0,0,0-1.057-4.626l2.279,1a8.482,8.482,0,0,0-1.979-5.366,2.471,2.471,0,0,1,1.6.488,6.272,6.272,0,0,0-6.484-4.445,26.16,26.16,0,0,1,3.119-.311c-2.133-4.042-9.081-.1-12.647-1.471a21.344,21.344,0,0,0,1.517,3.261c-1.635.144-5.169.492-6.7-.132" transform="translate(-827.769 -1764.874)" fill="#d96838"/>
          <path id="Trazado_193724" data-name="Trazado 193724" d="M1429.092,2070.695l-4.084,1.666a34.353,34.353,0,0,1,6.47,3.131l-3.172-.062a19.306,19.306,0,0,1,4.675,4.21l-5.9.089a6.951,6.951,0,0,1,1.7,4.317l-4.233-2.619a18.67,18.67,0,0,1-1.158,4.361l-2.309-4.038-2.15,3.523a.59.59,0,0,1-.282.284c-.261.087-.483-.2-.608-.446l-1.239-2.416a8.3,8.3,0,0,1-2.439,3.824,12.585,12.585,0,0,0-1.314-3.5q-.571,1.443-1.045,2.923a16.172,16.172,0,0,1-1.661-5.005,2.387,2.387,0,0,1-1.608,1.359,27.872,27.872,0,0,1,1.057-4.626l-2.279,1a8.484,8.484,0,0,1,1.979-5.366,2.469,2.469,0,0,0-1.6.488,6.272,6.272,0,0,1,6.484-4.446,26.171,26.171,0,0,0-3.119-.31c2.133-4.043,9.081-.1,12.647-1.471a21.348,21.348,0,0,1-1.517,3.261c1.635.144,5.169.492,6.7-.132" transform="translate(-1223.8 -1797.339)" fill="#d96838"/>
        </g>
      </g>
      <g id="Grupo_145344" data-name="Grupo 145344" transform="translate(0 176.494)">
        <g id="Grupo_145343" data-name="Grupo 145343" clip-path="url(#clip-path-2)">
          <path id="Trazado_193725" data-name="Trazado 193725" d="M1558.219,2060.71a142,142,0,0,1,69.828-42.182,110.25,110.25,0,0,1-23.154,35.428,85.489,85.489,0,0,1-15.354,11.726c-11.937,7.492-25.286,13.865-39.378,13.688-1.781.494-4.01-.53-3.873-2.374s1.4-3.379,2.614-4.778c2.953-3.418,6.292-8.156,9.318-11.51" transform="translate(-1344.453 -1931.553)" fill="#4c5ae3"/>
          <path id="Trazado_193726" data-name="Trazado 193726" d="M1586.857,1973.39a508.364,508.364,0,0,1,2.813-62.519,48.27,48.27,0,0,1,9.6,31.084,51.984,51.984,0,0,1-12.41,31.435" transform="translate(-1379.671 -1837.947)" fill="#4c5ae3"/>
          <path id="Trazado_193727" data-name="Trazado 193727" d="M1449.954,1885.152c17.569-33.868,37.849-68.6,70.654-88.085.62,20.85-4.419,41.445-16.5,58.447s-33.369,27.833-54.15,29.638" transform="translate(-1260.699 -1738.998)" fill="#5565ff"/>
          <path id="Trazado_193728" data-name="Trazado 193728" d="M315.74,2231.111c-4.741-3.36-10.579-4.7-16.254-5.951-5.634-1.24-11.315-2.464-17.082-2.593s-11.692.906-16.621,3.9c2.4,6.331,4.942,12.641,9.749,17.411s11.69,7.857,18.366,6.717a24.921,24.921,0,0,0,8.926-3.742c6.225-3.917,9.076-9.473,12.916-15.745" transform="translate(-231.092 -2108.951)" fill="#4c5ae3"/>
          <path id="Trazado_193729" data-name="Trazado 193729" d="M615.368,2030.137c-3.081-5.613-3.073-12.4-2.208-18.747a79.557,79.557,0,0,1,26.873-49.229c.642,6.4,2.3,12.982,2.938,19.385.889,8.868,1.764,17.957-.471,26.584s-8.257,16.841-16.876,19.108c-2.952.777-8.261.588-10.256,2.9" transform="translate(-532.695 -1882.542)" fill="#4c5ae3"/>
          <path id="Trazado_193730" data-name="Trazado 193730" d="M413.95,2150.319c-5.163-13.568-15.567-24.854-28.1-32.18s-27.089-10.836-41.6-11.285c3.029,9.357,7.431,19.984,13.557,27.678s14.476,13.876,24.046,16.145a57.1,57.1,0,0,0,12.021,1.279c5.3.108,14.8-1.131,20.076-1.638" transform="translate(-299.317 -2008.349)" fill="#5565ff"/>
        </g>
      </g>
    </g>
  </g>
</svg>
