<svg xmlns="http://www.w3.org/2000/svg" width="1239" height="1036.781" viewBox="0 0 1239 1036.781">
  <g id="Grupo_145755" data-name="Grupo 145755" transform="translate(-181 -2935)">
    <g id="Grupo_145012" data-name="Grupo 145012" transform="matrix(0.017, 1, -1, 0.017, -9897.422, 17706.441)" opacity="0.58">
      <path id="Trazado_192694" data-name="Trazado 192694" d="M342.962,1637.769c6.164,1.017,11.983,3.417,17.811,5.627,7.37,2.817,14.194,6.862,20.954,10.911a168.516,168.516,0,0,1,26.437,20.106,184.918,184.918,0,0,1,14.753,14.815c4.772,5.456,9.622,10.846,14.02,16.6,2.191,2.884,4.485,5.7,6.532,8.68,3.847,5.614,7.311,11.46,11.125,17.074a35.238,35.238,0,0,1,3.391,5.875,36.431,36.431,0,0,0,2.683,4.732c.679,1.109,1.581,2.161,1.671,3.561-.639.568-1.2.587-1.724.01a7.267,7.267,0,0,1-1.329-1.638,34.358,34.358,0,0,0-4.091-7.008,33.267,33.267,0,0,1-2.164-3.612c-1.6-2.66-3.667-5.014-5.112-7.774a58.371,58.371,0,0,0-4.849-7.681c-3.08-4.2-6.026-8.51-9.251-12.608-3.477-4.433-7.159-8.7-10.963-12.85a208.755,208.755,0,0,0-17.787-17.745c-4-3.485-8.063-6.9-12.272-10.122-2.083-1.641-4.256-3.161-6.415-4.7-2.212-1.459-4.408-2.941-6.71-4.249-2.217-1.344-4.5-2.574-6.736-3.872-2.292-1.2-4.545-2.476-6.885-3.58-2.3-1.18-4.689-2.18-7.056-3.21-2.415-.917-4.814-1.871-7.3-2.577-.766-.232-1.526-.481-2.282-.74l-2.291-.716c-1.525-.488-3.041-1.007-4.595-1.391a3.954,3.954,0,0,1-2.873-2.125,20.039,20.039,0,0,1,3.307.2" transform="translate(-14475.705 -12116.279)" fill="#9e897d"/>
      <path id="Trazado_192695" data-name="Trazado 192695" d="M631.956,1779.727c5.908-11.347,6.22-24.885,3.943-37.473-.757-4.186-2.095-8.766-5.755-10.935a4.734,4.734,0,0,0-2.435-.749,4.4,4.4,0,0,0-3.721,2.8,10.515,10.515,0,0,0-.578,4.841c.831,13.866,9.39,26.77,8.289,40.617" transform="translate(-14663.272 -12177.765)" fill="#9e897d"/>
      <path id="Trazado_192696" data-name="Trazado 192696" d="M558.995,1705.418c5.16-9.911,5.433-21.735,3.444-32.73-.661-3.656-1.83-7.657-5.027-9.551a4.132,4.132,0,0,0-2.127-.654,3.844,3.844,0,0,0-3.25,2.444,9.185,9.185,0,0,0-.505,4.228c.726,12.111,8.2,23.382,7.24,35.476" transform="translate(-14615.756 -12132.75)" fill="#9e897d"/>
      <path id="Trazado_192697" data-name="Trazado 192697" d="M506.091,1664.423c3.536-9.1,2.645-19.388-.129-28.745-.922-3.111-2.318-6.474-5.274-7.813a3.612,3.612,0,0,0-1.909-.366,3.357,3.357,0,0,0-2.589,2.432,8.023,8.023,0,0,0-.036,3.719c1.785,10.446,9.349,19.519,9.667,30.111" transform="translate(-14579.037 -12109.609)" fill="#9e897d"/>
      <path id="Trazado_192698" data-name="Trazado 192698" d="M437.159,1622.317c2.53-8.884.784-18.505-2.655-27.079-1.143-2.851-2.755-5.9-5.659-6.9a3.416,3.416,0,0,0-1.831-.176,3.178,3.178,0,0,0-2.225,2.52,7.6,7.6,0,0,0,.294,3.508c2.6,9.687,10.532,17.57,11.764,27.525" transform="translate(-14531.921 -12083.578)" fill="#9e897d"/>
      <path id="Trazado_192699" data-name="Trazado 192699" d="M357.182,1610.544c-2.013-9.016-8.137-16.639-15.249-22.534-2.365-1.96-5.234-3.868-8.264-3.363a3.418,3.418,0,0,0-1.694.718,3.179,3.179,0,0,0-.754,3.276,7.6,7.6,0,0,0,1.932,2.943c6.908,7.273,17.637,10.42,23.468,18.581" transform="translate(-14470.026 -12081.237)" fill="#9e897d"/>
      <path id="Trazado_192700" data-name="Trazado 192700" d="M549.494,1854.3a120.6,120.6,0,0,1-34.374,3.715,30.437,30.437,0,0,1-10.708-1.855,7.224,7.224,0,0,1-2.857-1.917c-1.657-2.007-1.215-5.217.544-7.135a9.315,9.315,0,0,1,7.1-2.629,29.188,29.188,0,0,1,7.621,1.576,186.366,186.366,0,0,0,32.033,6.97" transform="translate(-14582.056 -12253.069)" fill="#9e897d"/>
      <path id="Trazado_192701" data-name="Trazado 192701" d="M485.555,1780.016A120.616,120.616,0,0,1,452,1788.342a30.447,30.447,0,0,1-10.861-.391,7.223,7.223,0,0,1-3.091-1.514c-1.913-1.764-1.908-5-.425-7.143a9.316,9.316,0,0,1,6.681-3.564,29.2,29.2,0,0,1,7.764.532,186.368,186.368,0,0,0,32.681,2.577" transform="translate(-14539.769 -12207.556)" fill="#9e897d"/>
      <path id="Trazado_192702" data-name="Trazado 192702" d="M446.342,1736.3a97.008,97.008,0,0,1-26.312,9,24.491,24.491,0,0,1-8.73.44,5.811,5.811,0,0,1-2.582-1,4.535,4.535,0,0,1-.836-5.694,7.494,7.494,0,0,1,5.107-3.32,23.488,23.488,0,0,1,6.259-.113,149.884,149.884,0,0,0,26.366-.2" transform="translate(-14520.394 -12180.966)" fill="#9e897d"/>
      <path id="Trazado_192703" data-name="Trazado 192703" d="M406.365,1685.909a72.935,72.935,0,0,1-18.588,9.571,18.412,18.412,0,0,1-6.445,1.282,4.371,4.371,0,0,1-2.03-.461,3.41,3.41,0,0,1-1.245-4.144,5.636,5.636,0,0,1,3.436-3.028,17.661,17.661,0,0,1,4.643-.768,112.706,112.706,0,0,0,19.591-3.032" transform="translate(-14500.932 -12147.854)" fill="#9e897d"/>
      <path id="Trazado_192704" data-name="Trazado 192704" d="M349.661,1660.735a72.93,72.93,0,0,1-18.588,9.571,18.415,18.415,0,0,1-6.445,1.281,4.365,4.365,0,0,1-2.03-.461,3.409,3.409,0,0,1-1.244-4.144,5.634,5.634,0,0,1,3.436-3.028,17.658,17.658,0,0,1,4.643-.768,112.706,112.706,0,0,0,19.591-3.033" transform="translate(-14463.443 -12131.211)" fill="#9e897d"/>
      <path id="Trazado_192705" data-name="Trazado 192705" d="M162.551,1627.806c4.864,3.921,8.747,8.874,12.732,13.667,5.027,6.08,8.976,12.961,12.866,19.813a168.5,168.5,0,0,1,13.111,30.517,184.809,184.809,0,0,1,5.547,20.159c1.467,7.1,3.035,14.178,4.028,21.354.487,3.589,1.1,7.166,1.412,10.771.584,6.78.721,13.574,1.276,20.338a35.205,35.205,0,0,1,.059,6.783,36.439,36.439,0,0,0,.005,5.44c.045,1.3.311,2.659-.3,3.922-.836.18-1.337-.082-1.505-.84a7.27,7.27,0,0,1-.351-2.08,34.347,34.347,0,0,0-.11-8.114,33.2,33.2,0,0,1-.1-4.209c-.086-3.1-.723-6.17-.623-9.283a58.336,58.336,0,0,0-.439-9.073c-.611-5.174-1.055-10.374-1.844-15.529-.844-5.571-1.947-11.1-3.215-16.582a208.711,208.711,0,0,0-6.745-24.2c-1.766-5-3.622-9.974-5.7-14.852-1-2.454-2.148-4.847-3.271-7.246-1.206-2.359-2.388-4.73-3.749-7-1.268-2.261-2.646-4.455-3.956-6.687-1.4-2.175-2.737-4.393-4.23-6.506-1.424-2.161-3.008-4.206-4.562-6.268-1.65-1.987-3.269-4-5.083-5.836q-.828-.869-1.622-1.768l-1.642-1.751c-1.086-1.175-2.151-2.374-3.314-3.473A3.955,3.955,0,0,1,159.77,1626a20.041,20.041,0,0,1,2.78,1.8" transform="translate(-14356.775 -12108.633)" fill="#9e897d"/>
      <path id="Trazado_192706" data-name="Trazado 192706" d="M311.566,1897.018c10.73-6.967,17.666-18.6,21.883-30.675,1.4-4.016,2.493-8.662.375-12.351a4.727,4.727,0,0,0-1.751-1.851,4.4,4.4,0,0,0-4.617.6,10.511,10.511,0,0,0-2.887,3.929c-6.1,12.478-5.008,27.923-12.784,39.433" transform="translate(-14457.135 -12257.863)" fill="#9e897d"/>
      <path id="Trazado_192707" data-name="Trazado 192707" d="M288.781,1795.991c9.371-6.085,15.43-16.243,19.114-26.792,1.224-3.508,2.177-7.565.327-10.787a4.132,4.132,0,0,0-1.529-1.617,3.845,3.845,0,0,0-4.032.527,9.19,9.19,0,0,0-2.521,3.431c-5.331,10.9-4.374,24.389-11.166,34.443" transform="translate(-14442.071 -12194.862)" fill="#9e897d"/>
      <path id="Trazado_192708" data-name="Trazado 192708" d="M273.151,1733.7c7.556-6.176,11.849-15.573,14.041-25.083.729-3.162,1.169-6.776-.744-9.4a3.607,3.607,0,0,0-1.482-1.258,3.357,3.357,0,0,0-3.45.842,8.025,8.025,0,0,0-1.862,3.219c-3.59,9.97-1.473,21.592-6.413,30.968" transform="translate(-14431.737 -12156.078)" fill="#9e897d"/>
      <path id="Trazado_192709" data-name="Trazado 192709" d="M240.475,1662.87c6.577-6.487,9.794-15.721,11.022-24.876.408-3.044.5-6.489-1.529-8.79a3.415,3.415,0,0,0-1.507-1.055,3.178,3.178,0,0,0-3.178,1.1,7.6,7.6,0,0,0-1.471,3.2c-2.5,9.713.515,20.479-3.313,29.75" transform="translate(-14410.135 -12109.981)" fill="#9e897d"/>
      <path id="Trazado_192710" data-name="Trazado 192710" d="M184.454,1613.247c2.687-8.838,1.11-18.489-2.178-27.121-1.093-2.87-2.651-5.944-5.537-7a3.417,3.417,0,0,0-1.828-.208,3.178,3.178,0,0,0-2.269,2.48,7.592,7.592,0,0,0,.232,3.513c2.432,9.732,10.22,17.753,11.278,27.728" transform="translate(-14365.208 -12077.473)" fill="#9e897d"/>
      <path id="Trazado_192711" data-name="Trazado 192711" d="M227.959,1923.274a120.6,120.6,0,0,1-31.748-13.692,30.445,30.445,0,0,1-8.407-6.887,7.222,7.222,0,0,1-1.543-3.076c-.454-2.563,1.511-5.138,3.986-5.942a9.316,9.316,0,0,1,7.476,1.208,29.207,29.207,0,0,1,5.857,5.124,186.393,186.393,0,0,0,24.449,21.839" transform="translate(-14374.249 -12285.37)" fill="#9e897d"/>
      <path id="Trazado_192712" data-name="Trazado 192712" d="M208.382,1827.66a120.6,120.6,0,0,1-33.307-9.275,30.442,30.442,0,0,1-9.261-5.688,7.222,7.222,0,0,1-1.944-2.839c-.8-2.478.8-5.3,3.147-6.426a9.318,9.318,0,0,1,7.571.187,29.233,29.233,0,0,1,6.5,4.286,186.412,186.412,0,0,0,27.176,18.335" transform="translate(-14359.353 -12225.457)" fill="#9e897d"/>
      <path id="Trazado_192713" data-name="Trazado 192713" d="M197.028,1769.613a97.008,97.008,0,0,1-27.333-5.121,24.485,24.485,0,0,1-7.815-3.915,5.809,5.809,0,0,1-1.755-2.14,4.536,4.536,0,0,1,2.076-5.368,7.494,7.494,0,0,1,6.079-.375,23.488,23.488,0,0,1,5.5,2.984,149.906,149.906,0,0,0,23.049,12.806" transform="translate(-14356.833 -12192.085)" fill="#9e897d"/>
      <path id="Trazado_192714" data-name="Trazado 192714" d="M185.281,1710.71a72.931,72.931,0,0,1-20.891-.822,18.4,18.4,0,0,1-6.241-2.058,4.368,4.368,0,0,1-1.54-1.4,3.41,3.41,0,0,1,.957-4.22,5.636,5.636,0,0,1,4.481-.944,17.675,17.675,0,0,1,4.419,1.618,112.71,112.71,0,0,0,18.544,7.007" transform="translate(-14354.435 -12158.323)" fill="#9e897d"/>
      <path id="Trazado_192715" data-name="Trazado 192715" d="M148.322,1660.88a72.927,72.927,0,0,1-20.891-.822A18.406,18.406,0,0,1,121.19,1658a4.363,4.363,0,0,1-1.54-1.4,3.41,3.41,0,0,1,.957-4.22,5.637,5.637,0,0,1,4.481-.944,17.676,17.676,0,0,1,4.419,1.618,112.71,112.71,0,0,0,18.544,7.006" transform="translate(-14330 -12125.379)" fill="#9e897d"/>
      <path id="Trazado_192834" data-name="Trazado 192834" d="M711.54,1666.282l.065-.01h0l-.069.011" transform="translate(-14721.566 -12135.255)" fill="#9e897d"/>
    </g>
    <g id="Grupo_145734" data-name="Grupo 145734" transform="matrix(0.309, -0.951, 0.951, 0.309, 15571.834, -6338.85)" opacity="0.58">
      <path id="Trazado_192694-2" data-name="Trazado 192694" d="M342.962,1637.769c6.164,1.017,11.983,3.417,17.811,5.627,7.37,2.817,14.194,6.862,20.954,10.911a168.516,168.516,0,0,1,26.437,20.106,184.918,184.918,0,0,1,14.753,14.815c4.772,5.456,9.622,10.846,14.02,16.6,2.191,2.884,4.485,5.7,6.532,8.68,3.847,5.614,7.311,11.46,11.125,17.074a35.238,35.238,0,0,1,3.391,5.875,36.431,36.431,0,0,0,2.683,4.732c.679,1.109,1.581,2.161,1.671,3.561-.639.568-1.2.587-1.724.01a7.267,7.267,0,0,1-1.329-1.638,34.358,34.358,0,0,0-4.091-7.008,33.267,33.267,0,0,1-2.164-3.612c-1.6-2.66-3.667-5.014-5.112-7.774a58.371,58.371,0,0,0-4.849-7.681c-3.08-4.2-6.026-8.51-9.251-12.608-3.477-4.433-7.159-8.7-10.963-12.85a208.755,208.755,0,0,0-17.787-17.745c-4-3.485-8.063-6.9-12.272-10.122-2.083-1.641-4.256-3.161-6.415-4.7-2.212-1.459-4.408-2.941-6.71-4.249-2.217-1.344-4.5-2.574-6.736-3.872-2.292-1.2-4.545-2.476-6.885-3.58-2.3-1.18-4.689-2.18-7.056-3.21-2.415-.917-4.814-1.871-7.3-2.577-.766-.232-1.526-.481-2.282-.74l-2.291-.716c-1.525-.488-3.041-1.007-4.595-1.391a3.954,3.954,0,0,1-2.873-2.125,20.039,20.039,0,0,1,3.307.2" transform="translate(-14475.705 -12116.279)" fill="#9e897d"/>
      <path id="Trazado_192695-2" data-name="Trazado 192695" d="M631.956,1779.727c5.908-11.347,6.22-24.885,3.943-37.473-.757-4.186-2.095-8.766-5.755-10.935a4.734,4.734,0,0,0-2.435-.749,4.4,4.4,0,0,0-3.721,2.8,10.515,10.515,0,0,0-.578,4.841c.831,13.866,9.39,26.77,8.289,40.617" transform="translate(-14663.272 -12177.765)" fill="#9e897d"/>
      <path id="Trazado_192696-2" data-name="Trazado 192696" d="M558.995,1705.418c5.16-9.911,5.433-21.735,3.444-32.73-.661-3.656-1.83-7.657-5.027-9.551a4.132,4.132,0,0,0-2.127-.654,3.844,3.844,0,0,0-3.25,2.444,9.185,9.185,0,0,0-.505,4.228c.726,12.111,8.2,23.382,7.24,35.476" transform="translate(-14615.756 -12132.75)" fill="#9e897d"/>
      <path id="Trazado_192697-2" data-name="Trazado 192697" d="M506.091,1664.423c3.536-9.1,2.645-19.388-.129-28.745-.922-3.111-2.318-6.474-5.274-7.813a3.612,3.612,0,0,0-1.909-.366,3.357,3.357,0,0,0-2.589,2.432,8.023,8.023,0,0,0-.036,3.719c1.785,10.446,9.349,19.519,9.667,30.111" transform="translate(-14579.037 -12109.609)" fill="#9e897d"/>
      <path id="Trazado_192698-2" data-name="Trazado 192698" d="M437.159,1622.317c2.53-8.884.784-18.505-2.655-27.079-1.143-2.851-2.755-5.9-5.659-6.9a3.416,3.416,0,0,0-1.831-.176,3.178,3.178,0,0,0-2.225,2.52,7.6,7.6,0,0,0,.294,3.508c2.6,9.687,10.532,17.57,11.764,27.525" transform="translate(-14531.921 -12083.578)" fill="#9e897d"/>
      <path id="Trazado_192699-2" data-name="Trazado 192699" d="M357.182,1610.544c-2.013-9.016-8.137-16.639-15.249-22.534-2.365-1.96-5.234-3.868-8.264-3.363a3.418,3.418,0,0,0-1.694.718,3.179,3.179,0,0,0-.754,3.276,7.6,7.6,0,0,0,1.932,2.943c6.908,7.273,17.637,10.42,23.468,18.581" transform="translate(-14470.026 -12081.237)" fill="#9e897d"/>
      <path id="Trazado_192700-2" data-name="Trazado 192700" d="M549.494,1854.3a120.6,120.6,0,0,1-34.374,3.715,30.437,30.437,0,0,1-10.708-1.855,7.224,7.224,0,0,1-2.857-1.917c-1.657-2.007-1.215-5.217.544-7.135a9.315,9.315,0,0,1,7.1-2.629,29.188,29.188,0,0,1,7.621,1.576,186.366,186.366,0,0,0,32.033,6.97" transform="translate(-14582.056 -12253.069)" fill="#9e897d"/>
      <path id="Trazado_192701-2" data-name="Trazado 192701" d="M485.555,1780.016A120.616,120.616,0,0,1,452,1788.342a30.447,30.447,0,0,1-10.861-.391,7.223,7.223,0,0,1-3.091-1.514c-1.913-1.764-1.908-5-.425-7.143a9.316,9.316,0,0,1,6.681-3.564,29.2,29.2,0,0,1,7.764.532,186.368,186.368,0,0,0,32.681,2.577" transform="translate(-14539.769 -12207.556)" fill="#9e897d"/>
      <path id="Trazado_192702-2" data-name="Trazado 192702" d="M446.342,1736.3a97.008,97.008,0,0,1-26.312,9,24.491,24.491,0,0,1-8.73.44,5.811,5.811,0,0,1-2.582-1,4.535,4.535,0,0,1-.836-5.694,7.494,7.494,0,0,1,5.107-3.32,23.488,23.488,0,0,1,6.259-.113,149.884,149.884,0,0,0,26.366-.2" transform="translate(-14520.394 -12180.966)" fill="#9e897d"/>
      <path id="Trazado_192703-2" data-name="Trazado 192703" d="M406.365,1685.909a72.935,72.935,0,0,1-18.588,9.571,18.412,18.412,0,0,1-6.445,1.282,4.371,4.371,0,0,1-2.03-.461,3.41,3.41,0,0,1-1.245-4.144,5.636,5.636,0,0,1,3.436-3.028,17.661,17.661,0,0,1,4.643-.768,112.706,112.706,0,0,0,19.591-3.032" transform="translate(-14500.932 -12147.854)" fill="#9e897d"/>
      <path id="Trazado_192704-2" data-name="Trazado 192704" d="M349.661,1660.735a72.93,72.93,0,0,1-18.588,9.571,18.415,18.415,0,0,1-6.445,1.281,4.365,4.365,0,0,1-2.03-.461,3.409,3.409,0,0,1-1.244-4.144,5.634,5.634,0,0,1,3.436-3.028,17.658,17.658,0,0,1,4.643-.768,112.706,112.706,0,0,0,19.591-3.033" transform="translate(-14463.443 -12131.211)" fill="#9e897d"/>
      <path id="Trazado_192705-2" data-name="Trazado 192705" d="M162.551,1627.806c4.864,3.921,8.747,8.874,12.732,13.667,5.027,6.08,8.976,12.961,12.866,19.813a168.5,168.5,0,0,1,13.111,30.517,184.809,184.809,0,0,1,5.547,20.159c1.467,7.1,3.035,14.178,4.028,21.354.487,3.589,1.1,7.166,1.412,10.771.584,6.78.721,13.574,1.276,20.338a35.205,35.205,0,0,1,.059,6.783,36.439,36.439,0,0,0,.005,5.44c.045,1.3.311,2.659-.3,3.922-.836.18-1.337-.082-1.505-.84a7.27,7.27,0,0,1-.351-2.08,34.347,34.347,0,0,0-.11-8.114,33.2,33.2,0,0,1-.1-4.209c-.086-3.1-.723-6.17-.623-9.283a58.336,58.336,0,0,0-.439-9.073c-.611-5.174-1.055-10.374-1.844-15.529-.844-5.571-1.947-11.1-3.215-16.582a208.711,208.711,0,0,0-6.745-24.2c-1.766-5-3.622-9.974-5.7-14.852-1-2.454-2.148-4.847-3.271-7.246-1.206-2.359-2.388-4.73-3.749-7-1.268-2.261-2.646-4.455-3.956-6.687-1.4-2.175-2.737-4.393-4.23-6.506-1.424-2.161-3.008-4.206-4.562-6.268-1.65-1.987-3.269-4-5.083-5.836q-.828-.869-1.622-1.768l-1.642-1.751c-1.086-1.175-2.151-2.374-3.314-3.473A3.955,3.955,0,0,1,159.77,1626a20.041,20.041,0,0,1,2.78,1.8" transform="translate(-14356.775 -12108.633)" fill="#9e897d"/>
      <path id="Trazado_192706-2" data-name="Trazado 192706" d="M311.566,1897.018c10.73-6.967,17.666-18.6,21.883-30.675,1.4-4.016,2.493-8.662.375-12.351a4.727,4.727,0,0,0-1.751-1.851,4.4,4.4,0,0,0-4.617.6,10.511,10.511,0,0,0-2.887,3.929c-6.1,12.478-5.008,27.923-12.784,39.433" transform="translate(-14457.135 -12257.863)" fill="#9e897d"/>
      <path id="Trazado_192707-2" data-name="Trazado 192707" d="M288.781,1795.991c9.371-6.085,15.43-16.243,19.114-26.792,1.224-3.508,2.177-7.565.327-10.787a4.132,4.132,0,0,0-1.529-1.617,3.845,3.845,0,0,0-4.032.527,9.19,9.19,0,0,0-2.521,3.431c-5.331,10.9-4.374,24.389-11.166,34.443" transform="translate(-14442.071 -12194.862)" fill="#9e897d"/>
      <path id="Trazado_192708-2" data-name="Trazado 192708" d="M273.151,1733.7c7.556-6.176,11.849-15.573,14.041-25.083.729-3.162,1.169-6.776-.744-9.4a3.607,3.607,0,0,0-1.482-1.258,3.357,3.357,0,0,0-3.45.842,8.025,8.025,0,0,0-1.862,3.219c-3.59,9.97-1.473,21.592-6.413,30.968" transform="translate(-14431.737 -12156.078)" fill="#9e897d"/>
      <path id="Trazado_192709-2" data-name="Trazado 192709" d="M240.475,1662.87c6.577-6.487,9.794-15.721,11.022-24.876.408-3.044.5-6.489-1.529-8.79a3.415,3.415,0,0,0-1.507-1.055,3.178,3.178,0,0,0-3.178,1.1,7.6,7.6,0,0,0-1.471,3.2c-2.5,9.713.515,20.479-3.313,29.75" transform="translate(-14410.135 -12109.981)" fill="#9e897d"/>
      <path id="Trazado_192710-2" data-name="Trazado 192710" d="M184.454,1613.247c2.687-8.838,1.11-18.489-2.178-27.121-1.093-2.87-2.651-5.944-5.537-7a3.417,3.417,0,0,0-1.828-.208,3.178,3.178,0,0,0-2.269,2.48,7.592,7.592,0,0,0,.232,3.513c2.432,9.732,10.22,17.753,11.278,27.728" transform="translate(-14365.208 -12077.473)" fill="#9e897d"/>
      <path id="Trazado_192711-2" data-name="Trazado 192711" d="M227.959,1923.274a120.6,120.6,0,0,1-31.748-13.692,30.445,30.445,0,0,1-8.407-6.887,7.222,7.222,0,0,1-1.543-3.076c-.454-2.563,1.511-5.138,3.986-5.942a9.316,9.316,0,0,1,7.476,1.208,29.207,29.207,0,0,1,5.857,5.124,186.393,186.393,0,0,0,24.449,21.839" transform="translate(-14374.249 -12285.37)" fill="#9e897d"/>
      <path id="Trazado_192712-2" data-name="Trazado 192712" d="M208.382,1827.66a120.6,120.6,0,0,1-33.307-9.275,30.442,30.442,0,0,1-9.261-5.688,7.222,7.222,0,0,1-1.944-2.839c-.8-2.478.8-5.3,3.147-6.426a9.318,9.318,0,0,1,7.571.187,29.233,29.233,0,0,1,6.5,4.286,186.412,186.412,0,0,0,27.176,18.335" transform="translate(-14359.353 -12225.457)" fill="#9e897d"/>
      <path id="Trazado_192713-2" data-name="Trazado 192713" d="M197.028,1769.613a97.008,97.008,0,0,1-27.333-5.121,24.485,24.485,0,0,1-7.815-3.915,5.809,5.809,0,0,1-1.755-2.14,4.536,4.536,0,0,1,2.076-5.368,7.494,7.494,0,0,1,6.079-.375,23.488,23.488,0,0,1,5.5,2.984,149.906,149.906,0,0,0,23.049,12.806" transform="translate(-14356.833 -12192.085)" fill="#9e897d"/>
      <path id="Trazado_192714-2" data-name="Trazado 192714" d="M185.281,1710.71a72.931,72.931,0,0,1-20.891-.822,18.4,18.4,0,0,1-6.241-2.058,4.368,4.368,0,0,1-1.54-1.4,3.41,3.41,0,0,1,.957-4.22,5.636,5.636,0,0,1,4.481-.944,17.675,17.675,0,0,1,4.419,1.618,112.71,112.71,0,0,0,18.544,7.007" transform="translate(-14354.435 -12158.323)" fill="#9e897d"/>
      <path id="Trazado_192715-2" data-name="Trazado 192715" d="M148.322,1660.88a72.927,72.927,0,0,1-20.891-.822A18.406,18.406,0,0,1,121.19,1658a4.363,4.363,0,0,1-1.54-1.4,3.41,3.41,0,0,1,.957-4.22,5.637,5.637,0,0,1,4.481-.944,17.676,17.676,0,0,1,4.419,1.618,112.71,112.71,0,0,0,18.544,7.006" transform="translate(-14330 -12125.379)" fill="#9e897d"/>
      <path id="Trazado_192834-2" data-name="Trazado 192834" d="M711.54,1666.282l.065-.01h0l-.069.011" transform="translate(-14721.566 -12135.255)" fill="#9e897d"/>
    </g>
    <rect id="Rectángulo_44658" data-name="Rectángulo 44658" width="1239" height="1018" transform="translate(181 2935)" fill="none"/>
  </g>
</svg>
