<svg xmlns="http://www.w3.org/2000/svg" xmlns:xlink="http://www.w3.org/1999/xlink" width="558.043" height="445.375" viewBox="0 0 558.043 445.375">
  <defs>
    <clipPath id="clip-path">
      <rect id="Rectángulo_44419" data-name="Rectángulo 44419" width="146.086" height="166.124" fill="#eaad9b"/>
    </clipPath>
    <clipPath id="clip-path-2">
      <rect id="Rectángulo_44143" data-name="Rectángulo 44143" width="170.903" height="445.376" fill="none"/>
    </clipPath>
  </defs>
  <g id="Grupo_145757" data-name="Grupo 145757" transform="translate(-834.957 -7223.625)">
    <g id="etnia" transform="translate(944 7305)" fill="#f7724a" stroke="#f7724a" stroke-width="5">
      <path d="M0,0H299.5A149.5,149.5,0,0,1,449,149.5v0A149.5,149.5,0,0,1,299.5,299H0a0,0,0,0,1,0,0V0A0,0,0,0,1,0,0Z" stroke="none"/>
      <path d="M2.5,2.5h297a147,147,0,0,1,147,147v0a147,147,0,0,1-147,147H2.5a0,0,0,0,1,0,0V2.5A0,0,0,0,1,2.5,2.5Z" fill="none"/>
    </g>
    <g id="Grupo_145724" data-name="Grupo 145724" transform="translate(834.957 7370.938)">
      <g id="Grupo_145550" data-name="Grupo 145550" transform="translate(0)" clip-path="url(#clip-path)">
        <path id="Trazado_199790" data-name="Trazado 199790" d="M139.451,160.88c-12.963,4.106-26.5,4.123-40.018,5.028-17.15,1.216-34.53-2.794-50.764-9.3a80.526,80.526,0,0,1-30.686-21.167A68.529,68.529,0,0,1,7.355,119.456,75.8,75.8,0,0,1,1.4,101.164,90.261,90.261,0,0,1,.041,89.119,83.124,83.124,0,0,1,.549,76.976,75.3,75.3,0,0,1,3.062,65.034a69.67,69.67,0,0,1,4.6-11.3A103.035,103.035,0,0,1,21.831,32.9,79.43,79.43,0,0,1,41.17,16.772,90.338,90.338,0,0,1,64,6.668,157.653,157.653,0,0,1,86.39,2.942c7.394-.8,14.757-1.452,22.1-2.386A39.125,39.125,0,0,1,123.3.877a48.69,48.69,0,0,0,11.815.76c2.806.031,5.78-.743,8.442,1.944.3,3.344-.3,5.273-1.912,5.776-1.468.449-2.975,1.334-4.4.977a36.482,36.482,0,0,0-17.193-.708c-2.818.678-5.956.01-8.959.073-6.638.117-12.939,2.575-19.663,2.2a56.954,56.954,0,0,0-19.235,2.257C61.6,17.216,50.882,20.523,41.71,26.826A71.468,71.468,0,0,0,28.332,38.644,74.473,74.473,0,0,0,18.189,53.181,72.4,72.4,0,0,0,9.936,77.855,62.522,62.522,0,0,0,11.6,103.54a72.874,72.874,0,0,0,6.142,14.9,65.58,65.58,0,0,0,9.527,12.939A69.885,69.885,0,0,0,54.31,148.968a130.288,130.288,0,0,0,31.108,7.2,122.981,122.981,0,0,0,32.495-.847c6.726-1.074,13.589-1.355,20.453-2.182,2.509-.3,4.99-.023,7.72,4.283a26.6,26.6,0,0,1-6.634,3.454" transform="translate(0 0)" fill="#eaad9b"/>
        <path id="Trazado_199791" data-name="Trazado 199791" d="M122.41,153.35c-10.939,1.377-21.55-.2-32.484.195-13.779.46-27.626-2.3-41.258-6.6a70.507,70.507,0,0,1-26.417-15.081A52.94,52.94,0,0,1,6.333,104.481a54.169,54.169,0,0,1,6.581-39.232A75.56,75.56,0,0,1,42.467,36.795a83.007,83.007,0,0,1,18.722-7.688c12.389-2.843,24.749-2.467,36.693-3.267a26.991,26.991,0,0,1,11.962,1.278,29.033,29.033,0,0,0,9.484,1.294c2.262.134,4.651-.589,6.773,2.134.218,3.35-.292,5.268-1.622,5.747-1.212.433-2.471,1.272-3.639.882a26.343,26.343,0,0,0-13.974-1.512c-2.308.494-4.809-.364-7.232-.53-5.362-.339-10.474,1.629-15.856.795A36.66,36.66,0,0,0,68.247,37c-8.547,2.408-17.272,4.8-24.994,9.391a59.417,59.417,0,0,0-20.32,19.865,57.5,57.5,0,0,0-7.71,19.339,39.1,39.1,0,0,0,1.207,20.17c5.536,16,20.135,28.415,37.085,33.058a165.335,165.335,0,0,0,52.361,5.588,111.785,111.785,0,0,1,17.272,1.157c2.121.2,4.147,1.09,5.275,5.871a22.237,22.237,0,0,1-6,1.912" transform="translate(13.885 -6.815)" fill="#eaad9b"/>
        <path id="Trazado_199792" data-name="Trazado 199792" d="M103.365,133.74c-7.857,2.9-15.9,1.78-23.908,2.806a82.045,82.045,0,0,1-15.181.234c-5.065-.316-10.042-.677-15.334-.921a36.393,36.393,0,0,1-35.622-27.771,39.566,39.566,0,0,1-1.277-15.749c.22-1.339.473-2.686.806-4.014a39.58,39.58,0,0,1,1.322-3.895,31.392,31.392,0,0,1,3.943-6.971A55.484,55.484,0,0,1,42.9,58.084a64.7,64.7,0,0,1,14.467-4.193c9.246-1.052,18.04.014,26.607-1.272a16.092,16.092,0,0,1,8.792.6,15.39,15.39,0,0,0,7.058.5c1.666-.073,3.318-1.016,5.211,1.487.584,3.3.454,5.25-.46,5.852-.83.545-1.65,1.491-2.555,1.214a15.678,15.678,0,0,0-10.509-.339c-1.666.65-3.624-.062-5.446-.115-4.015-.112-7.79,1.917-11.891.9a25.732,25.732,0,0,0-11.645-.151c-6.415,1.368-13.039,2.091-19.059,4.77a40.84,40.84,0,0,0-16.175,12.9,31.33,31.33,0,0,0-5.942,13.459,26.13,26.13,0,0,0,1.862,14.3,32.416,32.416,0,0,0,10.809,13.962,30.564,30.564,0,0,0,17.366,4.874c12.909-.036,26.279,1.845,39.36-.329a102.39,102.39,0,0,1,12.226-.547c1.494-.064,2.933.441,4.442,4.984a12.745,12.745,0,0,1-4.044,2.821" transform="translate(30.035 -13.887)" fill="#eaad9b"/>
      </g>
    </g>
    <g id="Grupo_145342" data-name="Grupo 145342" transform="translate(1091 7223.629)">
      <g id="Grupo_145341" data-name="Grupo 145341" transform="translate(0 -0.005)" clip-path="url(#clip-path-2)">
        <path id="Trazado_193675" data-name="Trazado 193675" d="M119.543,1118.095l-.052,0v39.016h39.322v-14.148h-39.27Z" transform="translate(-80.845 -756.475)" fill="#d36f51"/>
        <path id="Trazado_193676" data-name="Trazado 193676" d="M325.9,1143H286.633v-24.849h-.026v39h39.322v-39H325.9Z" transform="translate(-193.912 -756.513)" fill="#d36f51"/>
        <path id="Trazado_193677" data-name="Trazado 193677" d="M119.652,1118.1v24.865h39.27v-24.849H119.936c-.1,0-.188-.013-.284-.015" transform="translate(-80.954 -756.481)" fill="#dba387"/>
        <rect id="Rectángulo_44142" data-name="Rectángulo 44142" width="39.269" height="24.849" transform="translate(92.721 361.634)" fill="#dba387"/>
        <path id="Trazado_193678" data-name="Trazado 193678" d="M140.631,185.922a.69.69,0,0,1,1.38,0c0,.119.016.234.018.353q3.407-1.009,7.083-1.778c0-.147-.018-.291-.018-.439a.69.69,0,0,1,1.38,0c0,.052.006.1.006.156q2.839-.549,5.81-.944v-12.5a31.737,31.737,0,0,1-4.718-8.015,3.653,3.653,0,0,1-1.313.82,4.94,4.94,0,0,1-4.62-1.2c-1.474,4.025-4.421,9.374-10.23,15.805a52.727,52.727,0,0,0-9.847,15.33,64,64,0,0,1,15.106-6.832c-.006-.256-.038-.505-.038-.763" transform="translate(-84.953 -109.862)" fill="#1f0f0b"/>
        <path id="Trazado_193679" data-name="Trazado 193679" d="M312.343,163.392a3.652,3.652,0,0,1-1.313-.821,31.034,31.034,0,0,1-5.395,8.777v11.584c2.227.269,4.409.6,6.531,1,0-.019,0-.038,0-.057a.69.69,0,1,1,1.38,0c0,.111-.012.218-.013.328,2.328.472,4.591,1.014,6.764,1.632,0-.032,0-.063,0-.1a.69.69,0,1,1,1.38,0c0,.17-.023.335-.026.505a65.5,65.5,0,0,1,15.382,6.737,52.94,52.94,0,0,0-9.7-14.978c-5.851-6.478-8.8-11.858-10.262-15.893-1.561,1.267-3.25,1.8-4.732,1.283" transform="translate(-206.786 -109.678)" fill="#1f0f0b"/>
        <path id="Trazado_193680" data-name="Trazado 193680" d="M56.049,566.2a1.38,1.38,0,0,1,0-2.761h.787l8.657-31.863a25.915,25.915,0,0,1-5.837-16.415v-2.049H56.049a1.38,1.38,0,0,1-1.38-1.38H50.952L42.5,616.217h0L56.085,566.2Z" transform="translate(-28.751 -346.228)" fill="#4b5a86"/>
        <path id="Trazado_193681" data-name="Trazado 193681" d="M445.48,316.8l2.563,30.48-2.511-33.1h-.074c.048.512.074,1.028.074,1.546,0,.362-.028.72-.052,1.079" transform="translate(-301.387 -212.561)" fill="#172751"/>
        <path id="Trazado_193682" data-name="Trazado 193682" d="M423.634,513.116h-6.215v2.049a25.9,25.9,0,0,1-4.327,14.359l9.216,33.919h1.326a1.38,1.38,0,1,1,0,2.761h-.576l13.256,48.787-7.833-103.255h-3.467a1.38,1.38,0,0,1-1.38,1.38" transform="translate(-279.489 -346.228)" fill="#4b5a86"/>
        <path id="Trazado_193683" data-name="Trazado 193683" d="M204.579,527.46h22.372L237.394,516H194.135Z" transform="translate(-131.348 -349.116)" fill="#f4dfc3"/>
        <path id="Trazado_193684" data-name="Trazado 193684" d="M204.686,260.184a28.26,28.26,0,0,0,28.226-28.135c-2.173-.619-4.436-1.16-6.764-1.632-.144,14.422-9.636,26.1-21.3,26.1-11.632,0-21.1-11.621-21.293-25.991q-3.67.767-7.083,1.778a28.253,28.253,0,0,0,28.212,27.879" transform="translate(-119.399 -155.894)" fill="#4b5a86"/>
        <path id="Trazado_193685" data-name="Trazado 193685" d="M222.531,252.484c10.974,0,19.9-11.206,19.928-24.993-2.122-.4-4.3-.729-6.531-1v5.872a13.756,13.756,0,1,1-27.512,0v-5.719q-2.968.394-5.81.944c.068,13.741,8.976,24.894,19.925,24.894" transform="translate(-137.079 -153.239)" fill="#4b5a86"/>
        <path id="Trazado_193686" data-name="Trazado 193686" d="M72.994,1047.271a1.315,1.315,0,0,1-.285-.057l-.536,5.844a15.651,15.651,0,0,0,15.258,17.073l.052,0c.1,0,.188.015.284.015h95.568a15.708,15.708,0,0,0,15.614-17.415l-.605-5.53a1.32,1.32,0,0,1-.339.068Z" transform="translate(-48.786 -708.513)" fill="#1f0f0b"/>
        <path id="Trazado_193687" data-name="Trazado 193687" d="M231.163,551.424h-4.737l11.186,12.27,11.186-12.27H231.163Z" transform="translate(-153.195 -373.08)" fill="#1f0f0b"/>
        <path id="Trazado_193688" data-name="Trazado 193688" d="M13.877,917.742h8.951a1.379,1.379,0,0,1,1.38-1.38H149.221a1.379,1.379,0,0,1,1.38,1.38h6.426c9.231,0,15.885-9.409,13.323-18.838l-10.9-40.132a1.349,1.349,0,0,1-.356.071H13.037a1.36,1.36,0,0,1-1.313-1.048L.554,898.9c-2.561,9.429,4.093,18.838,13.324,18.838" transform="translate(0 -580.365)" fill="#1f0f0b"/>
        <path id="Trazado_193689" data-name="Trazado 193689" d="M183.99,735.889l-1.89-6.956-13.256-48.787H149.339c.331.452.458.813.332,1.053-.37.705-2.791.242-6.332-1.053h-3.323c6.3,4.395,10.4,8.108,9.793,9.087-.725,1.165-7.858-1.947-16.447-7.077,6.753,4.553,11.317,8.657,10.642,9.74-.688,1.1-6.563-1.279-13.791-5.464,4.934,3.685,8.032,6.972,7.441,7.922-.8,1.275-7.959-1.752-16-6.763a82.3,82.3,0,0,1-9.742-6.98l-.688-.466h-3.061l-.688.465a82.26,82.26,0,0,1-9.742,6.98c-8.043,5.011-15.208,8.038-16,6.763-.592-.949,2.507-4.238,7.442-7.922-7.229,4.185-13.1,6.567-13.791,5.464-.676-1.083,3.888-5.186,10.64-9.74-8.588,5.129-15.72,8.241-16.446,7.076-.61-.979,3.49-4.693,9.794-9.087H76.046c-3.541,1.295-5.962,1.758-6.333,1.053-.125-.24,0-.6.333-1.053H52.61L39.02,730.159l-1.662,6.118a1.373,1.373,0,0,1,.954-.388Z" transform="translate(-25.276 -460.17)" fill="#1f0f0b"/>
        <path id="Trazado_193690" data-name="Trazado 193690" d="M118.456,597.691c2.272-1.191,4.475-2.32,6.514-3.323l-23.536-15.923c-.2-.13-.395-.263-.59-.4l-.447-.3.01-.024a26.165,26.165,0,0,1-4.912-4.627l-8.657,31.862h19.727a92.18,92.18,0,0,1,11.893-7.264" transform="translate(-58.751 -387.741)" fill="#1f0f0b"/>
        <path id="Trazado_193691" data-name="Trazado 193691" d="M180.261,665.925c.381-.237.756-.465,1.133-.7-1.434.74-2.837,1.434-4.181,2.063h.9c.7-.454,1.418-.91,2.152-1.368" transform="translate(-119.899 -450.079)" fill="#1f0f0b"/>
        <path id="Trazado_193692" data-name="Trazado 193692" d="M211.128,652.86v-.023c-.074.048-.152.1-.227.144l.225-.121" transform="translate(-142.692 -441.694)" fill="#1f0f0b"/>
        <path id="Trazado_193693" data-name="Trazado 193693" d="M341.849,573.417l.01.025-.449.3q-.291.2-.586.4l-23.538,15.924c2.039,1,4.242,2.132,6.514,3.323a92.137,92.137,0,0,1,11.893,7.264h21.8l-9.216-33.919a26.141,26.141,0,0,1-6.423,6.682" transform="translate(-214.669 -383.439)" fill="#1f0f0b"/>
        <path id="Trazado_193694" data-name="Trazado 193694" d="M331.874,665.224c.378.231.755.46,1.137.7.734.458,1.449.914,2.152,1.368h.9c-1.344-.63-2.75-1.324-4.185-2.065" transform="translate(-224.539 -450.075)" fill="#1f0f0b"/>
        <path id="Trazado_193695" data-name="Trazado 193695" d="M310.426,652.86l.23.124c-.076-.049-.156-.1-.231-.147,0,.008,0,.016,0,.023" transform="translate(-210.027 -441.694)" fill="#1f0f0b"/>
        <path id="Trazado_193696" data-name="Trazado 193696" d="M398.7,672.99a1.38,1.38,0,0,0-1.38-1.38H374.2a15.847,15.847,0,0,1,3.04,2.761h20.081a1.379,1.379,0,0,0,1.38-1.38" transform="translate(-253.174 -454.395)" fill="#b56e5a"/>
        <path id="Trazado_193697" data-name="Trazado 193697" d="M256.282,677.98h3.061l-1.53-1.035Z" transform="translate(-173.395 -458.004)" fill="#b56e5a"/>
        <path id="Trazado_193698" data-name="Trazado 193698" d="M102.029,671.61H81.515a1.38,1.38,0,0,0,0,2.761H98.988a15.854,15.854,0,0,1,3.041-2.761" transform="translate(-54.218 -454.395)" fill="#b56e5a"/>
        <path id="Trazado_193699" data-name="Trazado 193699" d="M163.523,671.61c-2.418,1.133-4.639,2.064-6.544,2.761H160.3c1.288-.9,2.666-1.823,4.117-2.761Z" transform="translate(-106.209 -454.395)" fill="#b56e5a"/>
        <path id="Trazado_193700" data-name="Trazado 193700" d="M342.043,671.61c1.452.938,2.83,1.863,4.118,2.761h3.322c-1.9-.7-4.126-1.628-6.544-2.761Z" transform="translate(-231.419 -454.395)" fill="#b56e5a"/>
        <path id="Trazado_193701" data-name="Trazado 193701" d="M37.42,855.262H183.474a1.5,1.5,0,0,0,1.382-1.38,1.38,1.38,0,0,0-1.382-1.38H37.42a1.391,1.391,0,0,0-1.38,1.38,1.324,1.324,0,0,0,.067.332,1.36,1.36,0,0,0,1.313,1.048" transform="translate(-24.384 -576.782)" fill="#b56e5a"/>
        <path id="Trazado_193702" data-name="Trazado 193702" d="M196.975,1038.878H71.962a1.379,1.379,0,0,0-1.38,1.38,1.36,1.36,0,0,0,1.1,1.323,1.305,1.305,0,0,0,.284.058H196.975a1.33,1.33,0,0,0,.339-.068,1.361,1.361,0,0,0,1.042-1.312,1.379,1.379,0,0,0-1.38-1.38" transform="translate(-47.754 -702.881)" fill="#b56e5a"/>
        <path id="Trazado_193703" data-name="Trazado 193703" d="M106.3,539.1l-.01.024.447.3c.2.136.391.268.59.4l23.536,15.923q1.868-.919,3.52-1.677c-6.234-1.577-10.858-3.82-10.545-5.189.335-1.465,6.2-1.374,13.1.205,1.013.232,1.986.484,2.918.749l9.208-10.1-11.186-12.27-10.444-11.456H95.555v2.049A25.9,25.9,0,0,0,106.3,539.1" transform="translate(-64.65 -349.116)" fill="#dba387"/>
        <path id="Trazado_193704" data-name="Trazado 193704" d="M297.62,649.461a92.144,92.144,0,0,0-11.893-7.264c-2.272-1.191-4.475-2.32-6.514-3.323l-18.2,12.313,1.53,1.035.688.466a82.28,82.28,0,0,0,9.742,6.98c8.043,5.011,15.206,8.038,16,6.763.591-.949-2.507-4.237-7.441-7.922,7.228,4.184,13.1,6.566,13.791,5.464.675-1.083-3.889-5.187-10.642-9.74,8.589,5.13,15.722,8.242,16.447,7.077.611-.979-3.489-4.693-9.793-9.087-1.288-.9-2.666-1.823-4.118-2.761-.7-.454-1.418-.91-2.152-1.368-.382-.238-.759-.466-1.137-.7,1.435.741,2.841,1.436,4.185,2.065,2.418,1.133,4.64,2.064,6.544,2.761,3.541,1.295,5.962,1.758,6.332,1.053.126-.24,0-.6-.333-1.053a15.865,15.865,0,0,0-3.04-2.761M277,643.413c0-.008,0-.016,0-.023.075.049.155.1.231.147l-.23-.124" transform="translate(-176.596 -432.247)" fill="#dba387"/>
        <path id="Trazado_193705" data-name="Trazado 193705" d="M195.164,555.743,218.7,539.819q.3-.195.585-.4l.449-.3-.01-.025a25.939,25.939,0,0,0,10.75-21.041V516H198.594L188.151,527.46l-11.186,12.27-9.208,10.1c-.932-.264-1.905-.517-2.919-.749-6.9-1.579-12.762-1.67-13.1-.2-.313,1.369,4.312,3.612,10.545,5.189q-1.651.757-3.52,1.677c-2.039,1-4.242,2.132-6.514,3.323a92.189,92.189,0,0,0-11.893,7.264,15.874,15.874,0,0,0-3.041,2.761c-.332.452-.458.813-.333,1.053.37.705,2.791.242,6.333-1.053,1.9-.7,4.126-1.628,6.545-2.761,1.343-.629,2.746-1.323,4.181-2.063-.377.231-.752.458-1.133.7-.734.458-1.448.914-2.152,1.368-1.452.938-2.829,1.863-4.117,2.761-6.3,4.394-10.4,8.108-9.793,9.088.725,1.165,7.858-1.947,16.446-7.077-6.752,4.553-11.316,8.656-10.64,9.74.687,1.1,6.563-1.28,13.791-5.465-4.935,3.685-8.033,6.973-7.442,7.923.795,1.275,7.959-1.752,16-6.763a82.247,82.247,0,0,0,9.741-6.98l.688-.465,1.53-1.035Zm-34.181,4.539-.225.121c.074-.048.153-.1.227-.144v.023" transform="translate(-92.547 -349.116)" fill="#dba387"/>
        <path id="Trazado_193706" data-name="Trazado 193706" d="M72.941,324.291H189.788a1.38,1.38,0,0,1,1.38,1.38h3.72L192.3,294.879l-2.563-30.48c.024-.359.052-.717.052-1.079,0-.518-.026-1.034-.074-1.546-.658-6.97-5.752-13.324-13.816-18.31a65.518,65.518,0,0,0-15.382-6.737,29.585,29.585,0,0,1-59.156.258,63.969,63.969,0,0,0-15.106,6.832c-7.746,4.938-12.609,11.172-13.239,17.988l-5.552,63.865h4.1a1.38,1.38,0,0,1,1.38-1.38" transform="translate(-45.643 -160.163)" fill="#4b5a86"/>
        <path id="Trazado_193707" data-name="Trazado 193707" d="M234.325,227.761A13.757,13.757,0,0,0,248.082,214v-4.886c-20.738,11.316-27.512-9.761-27.512-9.761V214a13.757,13.757,0,0,0,13.755,13.756" transform="translate(-149.233 -134.879)" fill="#dba387"/>
        <path id="Trazado_193708" data-name="Trazado 193708" d="M248.082,201.653V189.084c-3.713,4.156-8.358,6.654-13.416,6.654-5.367,0-10.28-2.791-14.1-7.415v3.569s6.773,21.077,27.512,9.762" transform="translate(-149.233 -127.414)" fill="#8e5f47"/>
        <path id="Trazado_193709" data-name="Trazado 193709" d="M181.382,81.383a3.655,3.655,0,0,0,1.312-.82,31.756,31.756,0,0,0,4.718,8.015c3.815,4.624,8.728,7.415,14.1,7.415,5.058,0,9.7-2.5,13.416-6.654a31.029,31.029,0,0,0,5.4-8.777,3.648,3.648,0,0,0,1.312.821c1.483.514,3.172-.016,4.733-1.283a14.239,14.239,0,0,0,4.177-6.353c1.833-5.287.815-10.439-2.272-11.511-1.506-.522-3.226.03-4.807,1.341,0-.141,0-.279-.006-.419-.051.123-.087.244-.14.368,0,0-11.616-11.036-14.27-22.624-2.436.051-4.949.078-7.522.078-2.66,0-5.256-.029-7.768-.083-2.579,11.274-13.6,21.988-14.205,22.567,0,.038,0,.074,0,.112-1.58-1.31-3.3-1.862-4.8-1.34-3.088,1.071-4.1,6.224-2.272,11.511a14.122,14.122,0,0,0,4.289,6.441,4.94,4.94,0,0,0,4.62,1.2m41.949-13.656c1.219-1.82,2.7-2.845,3.865-2.442,1.7.591,2.082,3.969.841,7.546s-3.627,6-5.332,5.406a2.044,2.044,0,0,1-1.121-1.161,43.044,43.044,0,0,0,1.747-9.35m-6.885,4.268c0,1.205-1.705,2.181-3.809,2.181s-3.809-.975-3.809-2.181,1.706-2.182,3.809-2.182,3.809.977,3.809,2.182m-5.68-12.8c.6,0,1.088.969,1.088,2.164s-.487,2.163-1.088,2.163-1.087-.967-1.087-2.163.487-2.164,1.087-2.164m-2.429,5.388a.516.516,0,0,1,.648.336,4.439,4.439,0,0,0,4.095,2.746.518.518,0,0,1-.039,1.035l-.039,0a5.446,5.446,0,0,1-5-3.468.516.516,0,0,1,.339-.648m-8.423-.92a1.727,1.727,0,0,1,3.263-.288c1.231,3.221-.326,10.579-2.871,10.792-2.78.232-1.206-7.25-.392-10.5m-4.452,14.646a19.5,19.5,0,0,0,3.048.755l.047.007c.126.014.253.028.379.04.224.02.448.038.673.05q.784.045,1.571.02c.526-.016,1.046-.06,1.569-.114l.092-.008.11-.023c.294-.058.589-.105.882-.169a18.423,18.423,0,0,0,3-.934c1.344-.544,2.793.6,3.185,1.809a2.655,2.655,0,0,1-1.808,3.183,20.619,20.619,0,0,1-14.124.375,2.65,2.65,0,0,1-1.807-3.185,2.607,2.607,0,0,1,3.184-1.807m-4-19.114c.6,0,1.088.969,1.088,2.164s-.487,2.163-1.088,2.163-1.087-.967-1.087-2.163.487-2.164,1.087-2.164m-2.313,8.47a4.438,4.438,0,0,0,4.095-2.746.518.518,0,0,1,.987.312,5.447,5.447,0,0,1-5,3.468l-.039,0a.518.518,0,0,1-.038-1.035m1.226,2.143c2.1,0,3.809.977,3.809,2.182s-1.7,2.181-3.809,2.181-3.808-.975-3.808-2.181,1.7-2.182,3.808-2.182m-15.4,3.019c-1.24-3.577-.863-6.956.842-7.546,1.166-.4,2.644.62,3.863,2.439a43.064,43.064,0,0,0,1.748,9.353,2.045,2.045,0,0,1-1.121,1.16c-1.705.591-4.093-1.829-5.332-5.406" transform="translate(-116.075 -27.669)" fill="#dba387"/>
        <path id="Trazado_193710" data-name="Trazado 193710" d="M187.045,127.91a43.065,43.065,0,0,1-1.748-9.353c-1.219-1.819-2.7-2.844-3.863-2.439-1.705.591-2.083,3.969-.842,7.546s3.627,6,5.332,5.407a2.045,2.045,0,0,0,1.121-1.161" transform="translate(-121.69 -78.502)" fill="#1f0f0b"/>
        <path id="Trazado_193711" data-name="Trazado 193711" d="M327.348,129.071c1.7.591,4.092-1.83,5.332-5.406s.864-6.956-.842-7.546c-1.167-.4-2.646.621-3.865,2.441a43.041,43.041,0,0,1-1.747,9.35,2.044,2.044,0,0,0,1.121,1.161" transform="translate(-220.718 -78.503)" fill="#1f0f0b"/>
        <path id="Trazado_193712" data-name="Trazado 193712" d="M257.138,119.02c2.545-.213,4.1-7.572,2.871-10.792a1.727,1.727,0,0,0-3.263.288c-.814,3.254-2.389,10.736.392,10.5" transform="translate(-172.907 -72.519)" fill="#8e5f47"/>
        <path id="Trazado_193713" data-name="Trazado 193713" d="M221.77,134.663c2.1,0,3.809-.975,3.809-2.181s-1.705-2.182-3.809-2.182-3.809.977-3.809,2.182,1.705,2.181,3.809,2.181" transform="translate(-147.468 -88.157)" fill="#8e5f47"/>
        <path id="Trazado_193714" data-name="Trazado 193714" d="M286.787,132.481c0,1.205,1.706,2.181,3.809,2.181s3.809-.975,3.809-2.181S292.7,130.3,290.6,130.3s-3.809.977-3.809,2.182" transform="translate(-194.034 -88.156)" fill="#8e5f47"/>
        <path id="Trazado_193715" data-name="Trazado 193715" d="M230.824,101.813c.6,0,1.088-.967,1.088-2.163s-.487-2.164-1.088-2.164-1.087.969-1.087,2.164.487,2.163,1.087,2.163" transform="translate(-155.435 -65.955)" fill="#1f0f0b"/>
        <path id="Trazado_193716" data-name="Trazado 193716" d="M290.505,101.813c.6,0,1.088-.967,1.088-2.163s-.487-2.164-1.088-2.164-1.087.969-1.087,2.164.487,2.163,1.087,2.163" transform="translate(-195.814 -65.955)" fill="#1f0f0b"/>
        <path id="Trazado_193717" data-name="Trazado 193717" d="M235.46,157.316a2.65,2.65,0,0,0,1.807,3.184,20.619,20.619,0,0,0,14.123-.375,2.655,2.655,0,0,0,1.808-3.183c-.391-1.209-1.841-2.352-3.184-1.809a18.472,18.472,0,0,1-3,.935c-.293.063-.588.111-.882.168l-.11.023-.092.008c-.522.054-1.043.1-1.569.114s-1.049.01-1.572-.02c-.224-.012-.449-.03-.673-.05-.126-.012-.253-.026-.379-.04l-.047-.007a19.508,19.508,0,0,1-3.048-.755,2.607,2.607,0,0,0-3.184,1.808m2.158.463c.072.017,7.222,1.776,12.9-.778a.517.517,0,1,1,.425.944,19.025,19.025,0,0,1-7.738,1.491,25.9,25.9,0,0,1-5.838-.652.517.517,0,0,1,.253-1" transform="translate(-159.256 -104.865)" fill="#8e5f47"/>
        <path id="Trazado_193718" data-name="Trazado 193718" d="M240.69,162.885a25.9,25.9,0,0,0,5.838.652,19.024,19.024,0,0,0,7.739-1.491.517.517,0,1,0-.425-.944c-5.677,2.554-12.827.8-12.9.778a.517.517,0,0,0-.253,1" transform="translate(-162.581 -108.966)" fill="#1f0f0b"/>
        <path id="Trazado_193719" data-name="Trazado 193719" d="M224.983,118.213l.039,0a5.447,5.447,0,0,0,5-3.468.518.518,0,0,0-.987-.312,4.439,4.439,0,0,1-4.095,2.746.518.518,0,0,0,.039,1.035" transform="translate(-151.869 -77.178)" fill="#1f0f0b"/>
        <path id="Trazado_193720" data-name="Trazado 193720" d="M289.175,118.21l.039,0a.518.518,0,0,0,.039-1.035,4.439,4.439,0,0,1-4.095-2.746.518.518,0,0,0-.987.312,5.447,5.447,0,0,0,5,3.468" transform="translate(-192.248 -77.176)" fill="#1f0f0b"/>
        <path id="Trazado_193721" data-name="Trazado 193721" d="M160.264,510.229h38.1a1.38,1.38,0,0,0,0-2.761H81.515a1.38,1.38,0,0,0,0,2.761h78.749Z" transform="translate(-54.218 -343.34)" fill="#b56e5a"/>
        <path id="Trazado_193722" data-name="Trazado 193722" d="M204.249,39.253c-5.959-.129-11.43-.4-16.089-.786a37.3,37.3,0,0,0,1.82,23.415l.064-.062c.6-.579,11.626-11.294,14.205-22.567" transform="translate(-126.567 -26.024)" fill="#1f0f0b"/>
        <path id="Trazado_193723" data-name="Trazado 193723" d="M301.733,61.925c.053-.124.089-.245.141-.368a37.361,37.361,0,0,0,1.683-23.026c-4.67.378-10.144.646-16.093.77,2.654,11.588,14.269,22.624,14.269,22.624" transform="translate(-194.492 -26.068)" fill="#1f0f0b"/>
        <path id="Trazado_193724" data-name="Trazado 193724" d="M181.746,25.072c2.573,0,5.086-.027,7.522-.079,5.949-.124,11.423-.392,16.093-.77,9.594-.777,15.8-2.015,15.8-3.409,0-1.337-5.711-2.529-14.637-3.311a1.371,1.371,0,0,1-1.073,1.126A113.927,113.927,0,0,1,182.2,21a99.729,99.729,0,0,1-22.779-2.383,1.367,1.367,0,0,1-1.018-1.234c-9.747.775-16.075,2.023-16.075,3.431,0,1.382,6.106,2.611,15.56,3.388,4.66.384,10.131.658,16.089.786,2.512.054,5.108.083,7.768.083" transform="translate(-96.297 -11.76)" fill="#c2ad8d"/>
        <path id="Trazado_193725" data-name="Trazado 193725" d="M241.555,4.165a1.341,1.341,0,0,1,.814.1C241.7,1.886,231.7,0,219.431,0c-12.089,0-21.98,1.836-22.911,4.169a1.3,1.3,0,0,1,.25.013,110.145,110.145,0,0,0,44.784-.013" transform="translate(-132.961 0.005)" fill="#c2ad8d"/>
        <path id="Trazado_193726" data-name="Trazado 193726" d="M193.033,15.523a99.707,99.707,0,0,0,22.779,2.383,113.9,113.9,0,0,0,23.253-2.37,1.371,1.371,0,0,0,1.073-1.126,1.413,1.413,0,0,0-1.637-1.575,110.142,110.142,0,0,1-44.784.013,1.3,1.3,0,0,0-.25-.013,1.368,1.368,0,0,0-.434,2.689" transform="translate(-129.908 -8.665)" fill="#b56e5a"/>
        <path id="Trazado_193727" data-name="Trazado 193727" d="M230.681,233.033a.69.69,0,0,0-.69.69c0,.033,0,.064,0,.1a28.22,28.22,0,0,1-56.437.256c0-.118-.018-.233-.018-.352a.69.69,0,0,0-1.38,0c0,.258.032.507.039.763a29.585,29.585,0,0,0,59.156-.258c0-.169.026-.334.026-.5a.69.69,0,0,0-.69-.69" transform="translate(-116.474 -157.664)" fill="#fca01f"/>
        <path id="Trazado_193728" data-name="Trazado 193728" d="M219.63,254.389c11.661,0,21.153-11.68,21.3-26.1,0-.11.013-.218.013-.328a.69.69,0,1,0-1.38,0c0,.019,0,.038,0,.057-.025,13.786-8.954,24.992-19.928,24.992-10.948,0-19.857-11.153-19.925-24.894,0-.053-.006-.1-.006-.156a.69.69,0,0,0-1.38,0c0,.148.016.292.018.439.192,14.37,9.662,25.991,21.293,25.991" transform="translate(-134.178 -153.764)" fill="#fca01f"/>
        <path id="Trazado_193729" data-name="Trazado 193729" d="M37.083,1238.727v21.9l-23.34,8.826a14.984,14.984,0,0,0-9.685,14.016H69.017a11.7,11.7,0,0,0,11.7-11.7v-33.045H37.083Z" transform="translate(-2.746 -838.095)" fill="#1f0f0b"/>
        <path id="Trazado_193730" data-name="Trazado 193730" d="M286.607,1244.126v27.645a11.7,11.7,0,0,0,11.7,11.7h64.957a14.984,14.984,0,0,0-9.685-14.016l-23.338-8.826v-21.9H286.607Z" transform="translate(-193.912 -838.094)" fill="#1f0f0b"/>
      </g>
    </g>
  </g>
</svg>
