<svg xmlns="http://www.w3.org/2000/svg" xmlns:xlink="http://www.w3.org/1999/xlink" width="484.5" height="116.68" viewBox="0 0 484.5 116.68">
  <defs>
    <clipPath id="clip-path">
      <rect id="Rect치ngulo_44419" data-name="Rect치ngulo 44419" width="102.606" height="116.68" fill="#eaad9b"/>
    </clipPath>
  </defs>
  <g id="Grupo_145756" data-name="Grupo 145756" transform="translate(-181 -5274.063)">
    <rect id="Rect치ngulo_44220" data-name="Rect치ngulo 44220" width="460" height="58.611" rx="20" transform="translate(181 5303.097)" fill="#f0d5ad"/>
    <path id="Trazado_199954" data-name="Trazado 199954" d="M11.654,19H8.587L4.052,11.037V19H.967V6.2H4.052l4.526,7.963V6.2h3.076ZM13.1,14.157a5.613,5.613,0,0,1,.554-2.536A3.96,3.96,0,0,1,15.24,9.912a4.791,4.791,0,0,1,2.435-.6,4.373,4.373,0,0,1,3.366,1.323,5.076,5.076,0,0,1,1.23,3.6v.105a4.925,4.925,0,0,1-1.235,3.529,4.384,4.384,0,0,1-3.344,1.305,4.434,4.434,0,0,1-3.261-1.217,4.761,4.761,0,0,1-1.327-3.3Zm2.962.185a3.538,3.538,0,0,0,.413,1.934,1.376,1.376,0,0,0,1.222.615q1.582,0,1.617-2.435v-.3q0-2.558-1.635-2.558-1.485,0-1.608,2.206Zm13.271-2.171-.976-.07a1.752,1.752,0,0,0-1.793.879V19H23.6V9.49h2.777l.1,1.222a2.294,2.294,0,0,1,2.083-1.4,2.888,2.888,0,0,1,.826.105ZM33.2,9.49l.1,1.116a3.27,3.27,0,0,1,2.716-1.292,2.407,2.407,0,0,1,2.435,1.433,3.165,3.165,0,0,1,2.795-1.433q2.892,0,2.971,3.5V19H41.238V13a1.813,1.813,0,0,0-.246-1.063,1.048,1.048,0,0,0-.9-.334,1.4,1.4,0,0,0-1.31.782l.009.123V19H35.824V13.015a1.906,1.906,0,0,0-.237-1.081,1.045,1.045,0,0,0-.905-.334,1.42,1.42,0,0,0-1.3.782V19H30.419V9.49ZM51.258,19a3.344,3.344,0,0,1-.281-.853,2.754,2.754,0,0,1-2.285,1.028,3.374,3.374,0,0,1-2.285-.813,2.588,2.588,0,0,1-.94-2.043,2.66,2.66,0,0,1,1.143-2.338,5.821,5.821,0,0,1,3.322-.791h.914v-.5q0-1.316-1.134-1.316a.927.927,0,0,0-1.055,1.042H45.694a2.655,2.655,0,0,1,1.173-2.239,4.931,4.931,0,0,1,2.993-.86,4.323,4.323,0,0,1,2.874.888,3.086,3.086,0,0,1,1.081,2.435v4.21a4.311,4.311,0,0,0,.4,2V19ZM49.4,17.066a1.652,1.652,0,0,0,.918-.237,1.487,1.487,0,0,0,.523-.536V14.772h-.861q-1.547,0-1.547,1.389a.848.848,0,0,0,.272.655A.986.986,0,0,0,49.4,17.066Zm9.5-9.94V9.49h1.564v2.057H58.9V15.9a1.111,1.111,0,0,0,.193.747,1.037,1.037,0,0,0,.765.211A4.345,4.345,0,0,0,60.6,16.8v2.118a5.466,5.466,0,0,1-1.67.255,3.1,3.1,0,0,1-2.259-.721,2.954,2.954,0,0,1-.729-2.188v-4.72H54.729V9.49h1.213V7.126ZM64.758,19H61.787V9.49h2.971ZM61.611,7.038A1.322,1.322,0,0,1,62.068,6a1.943,1.943,0,0,1,2.373,0A1.322,1.322,0,0,1,64.9,7.038a1.322,1.322,0,0,1-.457,1.037,1.943,1.943,0,0,1-2.373,0A1.322,1.322,0,0,1,61.611,7.038Zm8.763,8.438,1.5-5.985H75L71.895,19H68.871l-3.1-9.51H68.9ZM79,19H76.034V9.49H79ZM75.858,7.038A1.322,1.322,0,0,1,76.315,6a1.943,1.943,0,0,1,2.373,0,1.322,1.322,0,0,1,.457,1.037,1.322,1.322,0,0,1-.457,1.037,1.943,1.943,0,0,1-2.373,0A1.322,1.322,0,0,1,75.858,7.038Zm4.6,7.137a5.809,5.809,0,0,1,.976-3.56,3.211,3.211,0,0,1,2.725-1.3,2.731,2.731,0,0,1,2.145,1V5.5h2.971V19H86.607l-.149-1.02a2.8,2.8,0,0,1-2.32,1.2,3.205,3.205,0,0,1-2.689-1.3A5.993,5.993,0,0,1,80.455,14.175Zm2.962.185q0,2.531,1.477,2.531a1.458,1.458,0,0,0,1.406-.826V12.443a1.419,1.419,0,0,0-1.389-.844q-1.371,0-1.485,2.215ZM96.311,19a3.344,3.344,0,0,1-.281-.853,2.754,2.754,0,0,1-2.285,1.028,3.374,3.374,0,0,1-2.285-.813,2.588,2.588,0,0,1-.94-2.043,2.66,2.66,0,0,1,1.143-2.338,5.821,5.821,0,0,1,3.322-.791H95.9v-.5q0-1.316-1.134-1.316a.927.927,0,0,0-1.055,1.042H90.747a2.655,2.655,0,0,1,1.173-2.239,4.931,4.931,0,0,1,2.993-.86,4.323,4.323,0,0,1,2.874.888,3.086,3.086,0,0,1,1.081,2.435v4.21a4.311,4.311,0,0,0,.4,2V19Zm-1.854-1.934a1.652,1.652,0,0,0,.918-.237,1.487,1.487,0,0,0,.523-.536V14.772h-.861q-1.547,0-1.547,1.389a.848.848,0,0,0,.272.655A.986.986,0,0,0,94.456,17.066Zm5.678-2.892a5.809,5.809,0,0,1,.976-3.56,3.211,3.211,0,0,1,2.725-1.3,2.731,2.731,0,0,1,2.145,1V5.5h2.971V19h-2.663l-.149-1.02a2.8,2.8,0,0,1-2.32,1.2,3.205,3.205,0,0,1-2.689-1.3A5.993,5.993,0,0,1,100.134,14.175Zm2.962.185q0,2.531,1.477,2.531a1.458,1.458,0,0,0,1.406-.826V12.443a1.419,1.419,0,0,0-1.389-.844q-1.371,0-1.485,2.215ZM117.835,9.49l.1,1.116a3.225,3.225,0,0,1,2.716-1.292,2.713,2.713,0,0,1,2.219.888,4.226,4.226,0,0,1,.76,2.672V19h-2.971V13a1.6,1.6,0,0,0-.29-1.059,1.342,1.342,0,0,0-1.055-.338,1.413,1.413,0,0,0-1.292.686V19h-2.962V9.49ZM130.623,19a3.344,3.344,0,0,1-.281-.853,2.754,2.754,0,0,1-2.285,1.028,3.374,3.374,0,0,1-2.285-.813,2.588,2.588,0,0,1-.94-2.043,2.66,2.66,0,0,1,1.143-2.338,5.821,5.821,0,0,1,3.322-.791h.914v-.5q0-1.316-1.134-1.316a.927.927,0,0,0-1.055,1.042H125.06a2.655,2.655,0,0,1,1.173-2.239,4.931,4.931,0,0,1,2.993-.86,4.323,4.323,0,0,1,2.874.888,3.086,3.086,0,0,1,1.081,2.435v4.21a4.311,4.311,0,0,0,.4,2V19Zm-1.854-1.934a1.652,1.652,0,0,0,.918-.237,1.487,1.487,0,0,0,.523-.536V14.772h-.861q-1.547,0-1.547,1.389a.848.848,0,0,0,.272.655A.986.986,0,0,0,128.769,17.066Zm10.072-.176a1.317,1.317,0,0,0,.967-.338,1.241,1.241,0,0,0,.334-.945h2.777a3.288,3.288,0,0,1-1.121,2.566,4.168,4.168,0,0,1-2.887,1,4.22,4.22,0,0,1-3.27-1.3,5.125,5.125,0,0,1-1.2-3.6v-.123a5.792,5.792,0,0,1,.532-2.544,3.872,3.872,0,0,1,1.534-1.7,4.573,4.573,0,0,1,2.373-.593,4.116,4.116,0,0,1,2.944,1.028,3.647,3.647,0,0,1,1.09,2.786h-2.777a1.626,1.626,0,0,0-.36-1.134,1.244,1.244,0,0,0-.967-.4q-1.151,0-1.345,1.468a10.357,10.357,0,0,0-.062,1.283,4.068,4.068,0,0,0,.343,1.986A1.187,1.187,0,0,0,138.841,16.891ZM147.3,19h-2.971V9.49H147.3ZM144.149,7.038A1.322,1.322,0,0,1,144.606,6a1.943,1.943,0,0,1,2.373,0,1.322,1.322,0,0,1,.457,1.037,1.322,1.322,0,0,1-.457,1.037,1.943,1.943,0,0,1-2.373,0A1.322,1.322,0,0,1,144.149,7.038Zm4.6,7.119a5.613,5.613,0,0,1,.554-2.536,3.96,3.96,0,0,1,1.591-1.709,4.791,4.791,0,0,1,2.435-.6,4.373,4.373,0,0,1,3.366,1.323,5.076,5.076,0,0,1,1.23,3.6v.105a4.925,4.925,0,0,1-1.235,3.529,4.384,4.384,0,0,1-3.344,1.305,4.434,4.434,0,0,1-3.261-1.217,4.761,4.761,0,0,1-1.327-3.3Zm2.962.185a3.538,3.538,0,0,0,.413,1.934,1.376,1.376,0,0,0,1.222.615q1.582,0,1.617-2.435v-.3q0-2.558-1.635-2.558-1.485,0-1.608,2.206ZM161.947,9.49l.1,1.116a3.225,3.225,0,0,1,2.716-1.292,2.713,2.713,0,0,1,2.219.888,4.226,4.226,0,0,1,.76,2.672V19h-2.971V13a1.6,1.6,0,0,0-.29-1.059,1.342,1.342,0,0,0-1.055-.338,1.413,1.413,0,0,0-1.292.686V19H159.17V9.49ZM174.735,19a3.344,3.344,0,0,1-.281-.853,2.754,2.754,0,0,1-2.285,1.028,3.374,3.374,0,0,1-2.285-.813,2.588,2.588,0,0,1-.94-2.043,2.66,2.66,0,0,1,1.143-2.338,5.821,5.821,0,0,1,3.322-.791h.914v-.5q0-1.316-1.134-1.316a.927.927,0,0,0-1.055,1.042h-2.962a2.655,2.655,0,0,1,1.173-2.239,4.931,4.931,0,0,1,2.993-.86,4.323,4.323,0,0,1,2.874.888,3.086,3.086,0,0,1,1.081,2.435v4.21a4.311,4.311,0,0,0,.4,2V19Zm-1.854-1.934a1.652,1.652,0,0,0,.918-.237,1.487,1.487,0,0,0,.523-.536V14.772h-.861q-1.547,0-1.547,1.389a.848.848,0,0,0,.272.655A.986.986,0,0,0,172.881,17.066ZM182.057,19h-2.971V5.5h2.971Zm10.907.176a4.889,4.889,0,0,1-3.542-1.305,4.507,4.507,0,0,1-1.354-3.4v-.246a5.84,5.84,0,0,1,.541-2.575,3.955,3.955,0,0,1,1.578-1.727,4.763,4.763,0,0,1,2.461-.611,4.117,4.117,0,0,1,3.164,1.244,4.887,4.887,0,0,1,1.16,3.467v1.151h-5.889a2.135,2.135,0,0,0,.694,1.257,2.066,2.066,0,0,0,1.389.457,2.662,2.662,0,0,0,2.2-.984l1.354,1.6a3.784,3.784,0,0,1-1.569,1.217A5.3,5.3,0,0,1,192.964,19.176ZM192.63,11.6q-1.3,0-1.547,1.723h2.988v-.229a1.467,1.467,0,0,0-.36-1.1A1.434,1.434,0,0,0,192.63,11.6Zm8.253-2.109.1,1.116A3.225,3.225,0,0,1,203.7,9.314a2.713,2.713,0,0,1,2.219.888,4.226,4.226,0,0,1,.76,2.672V19H203.7V13a1.6,1.6,0,0,0-.29-1.059,1.342,1.342,0,0,0-1.055-.338,1.413,1.413,0,0,0-1.292.686V19h-2.962V9.49Zm16.893,6.838a.684.684,0,0,0-.4-.606,6.016,6.016,0,0,0-1.5-.475,6.853,6.853,0,0,1-1.828-.646,3.062,3.062,0,0,1-1.1-.971,2.319,2.319,0,0,1-.378-1.31,2.628,2.628,0,0,1,1.081-2.158,4.453,4.453,0,0,1,2.83-.848,4.934,4.934,0,0,1,3.023.853,2.666,2.666,0,0,1,1.143,2.241h-2.971q0-1.143-1.2-1.143a1.194,1.194,0,0,0-.782.259.8.8,0,0,0-.316.646.737.737,0,0,0,.387.642,3.654,3.654,0,0,0,1.235.4,10.671,10.671,0,0,1,1.49.378,2.706,2.706,0,0,1,2.145,2.646,2.491,2.491,0,0,1-1.156,2.118,5.068,5.068,0,0,1-2.993.817,5.172,5.172,0,0,1-2.18-.439,3.645,3.645,0,0,1-1.494-1.2,2.707,2.707,0,0,1-.536-1.591h2.769a1.145,1.145,0,0,0,.439.962,1.808,1.808,0,0,0,1.081.3,1.422,1.422,0,0,0,.91-.246A.787.787,0,0,0,217.775,16.328Zm9.6,2.672a3.344,3.344,0,0,1-.281-.853,2.754,2.754,0,0,1-2.285,1.028,3.374,3.374,0,0,1-2.285-.813,2.588,2.588,0,0,1-.94-2.043,2.66,2.66,0,0,1,1.143-2.338,5.821,5.821,0,0,1,3.322-.791h.914v-.5q0-1.316-1.134-1.316a.927.927,0,0,0-1.055,1.042H221.81a2.655,2.655,0,0,1,1.173-2.239,4.931,4.931,0,0,1,2.993-.86,4.323,4.323,0,0,1,2.874.888,3.086,3.086,0,0,1,1.081,2.435v4.21a4.311,4.311,0,0,0,.4,2V19Zm-1.854-1.934a1.652,1.652,0,0,0,.918-.237,1.487,1.487,0,0,0,.523-.536V14.772H226.1q-1.547,0-1.547,1.389a.848.848,0,0,0,.272.655A.986.986,0,0,0,225.519,17.066ZM234.694,19h-2.971V5.5h2.971Zm7.488-1.028a3.054,3.054,0,0,1-2.54,1.2,3,3,0,0,1-2.369-.91,3.826,3.826,0,0,1-.8-2.615V9.49h2.962v6.179a1.065,1.065,0,0,0,1.187,1.222,1.548,1.548,0,0,0,1.45-.729V9.49h2.979V19h-2.777Zm4.113-3.8a5.809,5.809,0,0,1,.976-3.56A3.211,3.211,0,0,1,250,9.314a2.731,2.731,0,0,1,2.145,1V5.5h2.971V19h-2.663l-.149-1.02a2.8,2.8,0,0,1-2.32,1.2,3.205,3.205,0,0,1-2.689-1.3A5.993,5.993,0,0,1,246.3,14.175Zm2.962.185q0,2.531,1.477,2.531a1.458,1.458,0,0,0,1.406-.826V12.443a1.419,1.419,0,0,0-1.389-.844q-1.371,0-1.485,2.215Z" transform="translate(255 5319)" fill="#12263f"/>
    <g id="Grupo_145720" data-name="Grupo 145720" transform="translate(562.894 5274.063)">
      <g id="Grupo_145550" data-name="Grupo 145550" clip-path="url(#clip-path)">
        <path id="Trazado_199790" data-name="Trazado 199790" d="M4.66,113c9.1,2.884,18.614,2.9,28.108,3.531,12.046.854,24.253-1.962,35.655-6.534A56.558,56.558,0,0,0,89.975,95.127,48.133,48.133,0,0,0,97.44,83.9a53.236,53.236,0,0,0,4.185-12.848,63.4,63.4,0,0,0,.952-8.46,58.386,58.386,0,0,0-.357-8.529,52.892,52.892,0,0,0-1.765-8.388,48.934,48.934,0,0,0-3.234-7.939,72.369,72.369,0,0,0-9.949-14.629A55.789,55.789,0,0,0,73.689,11.78a63.45,63.45,0,0,0-16.032-7.1A110.73,110.73,0,0,0,41.928,2.067C36.735,1.505,31.564,1.046,26.409.391A27.48,27.48,0,0,0,16,.616a34.2,34.2,0,0,1-8.3.534C5.735,1.171,3.646.628,1.777,2.515c-.214,2.349.211,3.7,1.343,4.057,1.031.315,2.089.937,3.092.686a25.624,25.624,0,0,1,12.076-.5c1.979.476,4.183.007,6.292.052,4.662.082,9.088,1.809,13.811,1.546A40,40,0,0,1,51.9,9.944c7.44,2.148,14.967,4.471,21.409,8.9a50.2,50.2,0,0,1,9.4,8.3,52.307,52.307,0,0,1,7.124,10.21,50.851,50.851,0,0,1,5.8,17.33,43.914,43.914,0,0,1-1.168,18.041A51.184,51.184,0,0,1,90.145,83.19a46.062,46.062,0,0,1-6.691,9.088A49.085,49.085,0,0,1,64.46,104.631a91.509,91.509,0,0,1-21.849,5.059,86.378,86.378,0,0,1-22.823-.595c-4.724-.754-9.545-.952-14.365-1.532-1.762-.21-3.505-.017-5.422,3.008A18.686,18.686,0,0,0,4.66,113" transform="translate(0 0)" fill="#eaad9b"/>
        <path id="Trazado_199791" data-name="Trazado 199791" d="M9.368,115.343c7.683.967,15.136-.139,22.816.137,9.678.323,19.4-1.615,28.978-4.639a49.522,49.522,0,0,0,18.554-10.593A37.184,37.184,0,0,0,90.9,81.019a38.047,38.047,0,0,0-4.622-27.556A53.071,53.071,0,0,0,65.518,33.478a58.3,58.3,0,0,0-13.15-5.4c-8.7-2-17.383-1.733-25.772-2.295a18.957,18.957,0,0,0-8.4.9,20.392,20.392,0,0,1-6.661.909c-1.589.094-3.267-.414-4.757,1.5-.153,2.353.2,3.7,1.139,4.037.852.3,1.736.893,2.556.619a18.5,18.5,0,0,1,9.815-1.062c1.621.347,3.378-.256,5.08-.372,3.766-.238,7.357,1.144,11.137.558a25.749,25.749,0,0,1,10.908.753c6,1.691,12.132,3.373,17.555,6.6A41.733,41.733,0,0,1,79.239,54.171a40.389,40.389,0,0,1,5.415,13.583,27.465,27.465,0,0,1-.848,14.167c-3.888,11.237-14.142,19.958-26.048,23.219a116.125,116.125,0,0,1-36.777,3.925,78.514,78.514,0,0,0-12.132.812c-1.489.14-2.913.766-3.705,4.123a15.618,15.618,0,0,0,4.213,1.343" transform="translate(-2.491 -12.421)" fill="#eaad9b"/>
        <path id="Trazado_199792" data-name="Trazado 199792" d="M14.6,109.491c5.519,2.037,11.171,1.25,16.792,1.971a57.625,57.625,0,0,0,10.663.164c3.557-.222,7.053-.476,10.77-.647a25.561,25.561,0,0,0,25.02-19.506,27.79,27.79,0,0,0,.9-11.061c-.155-.941-.332-1.887-.566-2.819a27.8,27.8,0,0,0-.929-2.736,22.049,22.049,0,0,0-2.769-4.9A38.97,38.97,0,0,0,57.072,56.353a45.44,45.44,0,0,0-10.161-2.945c-6.494-.739-12.671.01-18.688-.893a11.3,11.3,0,0,0-6.175.42,10.81,10.81,0,0,1-4.957.349c-1.17-.051-2.33-.714-3.66,1.044-.41,2.319-.319,3.687.323,4.111.583.383,1.159,1.047,1.795.853a11.012,11.012,0,0,1,7.381-.238c1.17.456,2.545-.044,3.825-.081,2.82-.078,5.472,1.347,8.352.633a18.073,18.073,0,0,1,8.179-.106c4.506.961,9.158,1.469,13.386,3.35a28.685,28.685,0,0,1,11.361,9.062,22.005,22.005,0,0,1,4.173,9.453A18.353,18.353,0,0,1,70.9,91.408a22.768,22.768,0,0,1-7.592,9.807,21.467,21.467,0,0,1-12.2,3.423c-9.067-.025-18.457,1.3-27.645-.231a71.914,71.914,0,0,0-8.587-.384c-1.049-.045-2.06.309-3.12,3.5A8.952,8.952,0,0,0,14.6,109.5" transform="translate(-5.694 -25.311)" fill="#eaad9b"/>
      </g>
    </g>
  </g>
</svg>
