<svg xmlns="http://www.w3.org/2000/svg" xmlns:xlink="http://www.w3.org/1999/xlink" width="1239" height="277" viewBox="0 0 1239 277">
  <defs>
    <clipPath id="clip-path">
      <rect id="Rectángulo_44419" data-name="Rectángulo 44419" width="146.086" height="166.124" fill="#eaad9b"/>
    </clipPath>
  </defs>
  <g id="Grupo_145758" data-name="Grupo 145758" transform="translate(-181 -9325)">
    <rect id="Background" width="1239" height="277" transform="translate(181 9325)" fill="#dfddcc" opacity="0.82"/>
    <g id="Grupo_145733" data-name="Grupo 145733" transform="translate(1173.914 9397.031)">
      <g id="Grupo_145550" data-name="Grupo 145550" transform="translate(0)" clip-path="url(#clip-path)">
        <path id="Trazado_199790" data-name="Trazado 199790" d="M139.451,160.88c-12.963,4.106-26.5,4.123-40.018,5.028-17.15,1.216-34.53-2.794-50.764-9.3a80.526,80.526,0,0,1-30.686-21.167A68.529,68.529,0,0,1,7.355,119.456,75.8,75.8,0,0,1,1.4,101.164,90.261,90.261,0,0,1,.041,89.119,83.124,83.124,0,0,1,.549,76.976,75.3,75.3,0,0,1,3.062,65.034a69.67,69.67,0,0,1,4.6-11.3A103.035,103.035,0,0,1,21.831,32.9,79.43,79.43,0,0,1,41.17,16.772,90.338,90.338,0,0,1,64,6.668,157.653,157.653,0,0,1,86.39,2.942c7.394-.8,14.757-1.452,22.1-2.386A39.125,39.125,0,0,1,123.3.877a48.69,48.69,0,0,0,11.815.76c2.806.031,5.78-.743,8.442,1.944.3,3.344-.3,5.273-1.912,5.776-1.468.449-2.975,1.334-4.4.977a36.482,36.482,0,0,0-17.193-.708c-2.818.678-5.956.01-8.959.073-6.638.117-12.939,2.575-19.663,2.2a56.954,56.954,0,0,0-19.235,2.257C61.6,17.216,50.882,20.523,41.71,26.826A71.468,71.468,0,0,0,28.332,38.644,74.473,74.473,0,0,0,18.189,53.181,72.4,72.4,0,0,0,9.936,77.855,62.522,62.522,0,0,0,11.6,103.54a72.874,72.874,0,0,0,6.142,14.9,65.58,65.58,0,0,0,9.527,12.939A69.885,69.885,0,0,0,54.31,148.968a130.288,130.288,0,0,0,31.108,7.2,122.981,122.981,0,0,0,32.495-.847c6.726-1.074,13.589-1.355,20.453-2.182,2.509-.3,4.99-.023,7.72,4.283a26.6,26.6,0,0,1-6.634,3.454" transform="translate(0 0)" fill="#eaad9b"/>
        <path id="Trazado_199791" data-name="Trazado 199791" d="M122.41,153.35c-10.939,1.377-21.55-.2-32.484.195-13.779.46-27.626-2.3-41.258-6.6a70.507,70.507,0,0,1-26.417-15.081A52.94,52.94,0,0,1,6.333,104.481a54.169,54.169,0,0,1,6.581-39.232A75.56,75.56,0,0,1,42.467,36.795a83.007,83.007,0,0,1,18.722-7.688c12.389-2.843,24.749-2.467,36.693-3.267a26.991,26.991,0,0,1,11.962,1.278,29.033,29.033,0,0,0,9.484,1.294c2.262.134,4.651-.589,6.773,2.134.218,3.35-.292,5.268-1.622,5.747-1.212.433-2.471,1.272-3.639.882a26.343,26.343,0,0,0-13.974-1.512c-2.308.494-4.809-.364-7.232-.53-5.362-.339-10.474,1.629-15.856.795A36.66,36.66,0,0,0,68.247,37c-8.547,2.408-17.272,4.8-24.994,9.391a59.417,59.417,0,0,0-20.32,19.865,57.5,57.5,0,0,0-7.71,19.339,39.1,39.1,0,0,0,1.207,20.17c5.536,16,20.135,28.415,37.085,33.058a165.335,165.335,0,0,0,52.361,5.588,111.785,111.785,0,0,1,17.272,1.157c2.121.2,4.147,1.09,5.275,5.871a22.237,22.237,0,0,1-6,1.912" transform="translate(13.885 -6.815)" fill="#eaad9b"/>
        <path id="Trazado_199792" data-name="Trazado 199792" d="M103.365,133.74c-7.857,2.9-15.9,1.78-23.908,2.806a82.045,82.045,0,0,1-15.181.234c-5.065-.316-10.042-.677-15.334-.921a36.393,36.393,0,0,1-35.622-27.771,39.566,39.566,0,0,1-1.277-15.749c.22-1.339.473-2.686.806-4.014a39.58,39.58,0,0,1,1.322-3.895,31.392,31.392,0,0,1,3.943-6.971A55.484,55.484,0,0,1,42.9,58.084a64.7,64.7,0,0,1,14.467-4.193c9.246-1.052,18.04.014,26.607-1.272a16.092,16.092,0,0,1,8.792.6,15.39,15.39,0,0,0,7.058.5c1.666-.073,3.318-1.016,5.211,1.487.584,3.3.454,5.25-.46,5.852-.83.545-1.65,1.491-2.555,1.214a15.678,15.678,0,0,0-10.509-.339c-1.666.65-3.624-.062-5.446-.115-4.015-.112-7.79,1.917-11.891.9a25.732,25.732,0,0,0-11.645-.151c-6.415,1.368-13.039,2.091-19.059,4.77a40.84,40.84,0,0,0-16.175,12.9,31.33,31.33,0,0,0-5.942,13.459,26.13,26.13,0,0,0,1.862,14.3,32.416,32.416,0,0,0,10.809,13.962,30.564,30.564,0,0,0,17.366,4.874c12.909-.036,26.279,1.845,39.36-.329a102.39,102.39,0,0,1,12.226-.547c1.494-.064,2.933.441,4.442,4.984a12.745,12.745,0,0,1-4.044,2.821" transform="translate(30.035 -13.887)" fill="#eaad9b"/>
      </g>
    </g>
  </g>
</svg>
