<svg xmlns="http://www.w3.org/2000/svg" xmlns:xlink="http://www.w3.org/1999/xlink" width="505" height="284.243" viewBox="0 0 505 284.243">
  <defs>
    <clipPath id="clip-path">
      <rect id="Rectángulo_44164" data-name="Rectángulo 44164" width="241.392" height="282.243" fill="none"/>
    </clipPath>
  </defs>
  <g id="Grupo_145741" data-name="Grupo 145741" transform="translate(-168 -5617.793)">
    <g id="shaman1" transform="translate(168 5617.793)" fill="#dfddcc" stroke="#f7724a" stroke-width="5">
      <path d="M0,0H362.879A142.121,142.121,0,0,1,505,142.121v0A142.121,142.121,0,0,1,362.879,284.243H0a0,0,0,0,1,0,0V0A0,0,0,0,1,0,0Z" stroke="none"/>
      <path d="M2.5,2.5H362.879A139.621,139.621,0,0,1,502.5,142.121v0A139.621,139.621,0,0,1,362.879,281.743H2.5a0,0,0,0,1,0,0V2.5A0,0,0,0,1,2.5,2.5Z" fill="none"/>
    </g>
    <g id="Grupo_145350" data-name="Grupo 145350" transform="translate(328.834 5619.793)">
      <g id="Grupo_145349" data-name="Grupo 145349" clip-path="url(#clip-path)">
        <path id="Trazado_193733" data-name="Trazado 193733" d="M0,424.71c38.4,1.442,68.087,9.048,92.973,15.168,37.96,9.341,48.687,57.994,48.681,84.888l30.3.033c0-10.591-16.091-73.356-62.188-83.068C80.9,435.647,52.29,423.842,5.035,424.5q-2.561.033-5.035.212" transform="translate(69.434 -242.675)" fill="#b82929"/>
        <path id="Trazado_193734" data-name="Trazado 193734" d="M269,522.078c.006-26.894-10.721-75.548-48.681-84.888-24.886-6.121-49.686-15.977-88.086-17.419-71.1,2.006-80.291,98.751-80.76,102.34-.012.07,182.219-.087,217.527-.033" transform="translate(-51.475 -239.988)" fill="#7a1817"/>
        <path id="Trazado_193735" data-name="Trazado 193735" d="M92.835,518.293c15.709-.022,102.882-.152,102.882-.152.006-26.894-16.781-76.05-48.681-84.888-18.746-5.193-66-29.644-87.626-16.569-29.671,17.938,33.425,70.5,33.425,101.609" transform="translate(21.81 -236.05)" fill="#fff7f0"/>
        <path id="Trazado_193736" data-name="Trazado 193736" d="M143.842,397.7c.56-5.832,1.3-14.544,6.285-17.133,6.067-3.15,49.571-.483,49.571-.483s-11.682,20.566-15.933,38.489c-1.22,5.145-28.233,8.451-47.248-8.979-2.844-2.607,7.031-8.83,7.325-11.894" transform="translate(-21.358 -216.693)" fill="#ee945a"/>
        <path id="Trazado_193737" data-name="Trazado 193737" d="M205.659,440.833s5.685.731,5.654,2.634c-.111,6.832-20.508,23.092-56.888-6.7-2.229-1.825,7.8-14.209,12.582-3.155,3.128,7.226,29.772,20.463,38.652,7.226" transform="translate(-41.365 -245.304)" fill="#db5c43"/>
        <path id="Trazado_193738" data-name="Trazado 193738" d="M213.816,339.853l-5.145,10.711c-5.983,12.058-36.866-3.318-53.525,28.133,0,0-7.655-5.509-23.707-15.3,0,0,13.161-28.191,10.863-47.108Z" transform="translate(-33.36 -180.826)" fill="#ba4f3a"/>
        <path id="Trazado_193739" data-name="Trazado 193739" d="M128.866,148.739a20.089,20.089,0,0,0,7.2-3.221c2.043-1.614,3.47-4.076,3.122-6.538-.291-2.063-1.763-4.122-.974-6.071.7-1.725,2.892-2.5,4.879-2.655s2.873.083,4.759-.515a7.953,7.953,0,0,0,5.067-5.74,16.555,16.555,0,0,0-.326-7.667c-2-8.741-16.1-28.508-15.814-31.46a18.4,18.4,0,0,1,.885-3.161c1.12-3.937,1.523-3.729.214-7.616,0,0-12.586-27.631-18.2-31.6-13.143-9.3-62.746-2.779-72.813,8.689C25.28,75.776,25.193,152.466,25.193,152.466c28.957,25.968,81.286,32.224,92.764,33.1a20.4,20.4,0,0,0,8.851-1.26c2.773-1.074,5.228-3.124,6.062-5.792,1.866-5.967-4.685-12.071-3.036-18.092.624-2.28,2.347-4.145,3.526-6.228s1.735-4.833.118-6.649" transform="translate(76.464 -21.761)" fill="#ee945a"/>
        <path id="Trazado_193740" data-name="Trazado 193740" d="M69.834,251.528c7.674-4.362,8.139-44.811,29.5-38.582,4.316,1.259,4.465,6.06,0,6.505-8.162.814-12.206,9.193-15.113,15.206-3.254,6.731-7.349,12.871-14.386,16.871" transform="translate(106.39 -121.371)" fill="#db5c43"/>
        <path id="Trazado_193742" data-name="Trazado 193742" d="M157.7,458.824a1.845,1.845,0,0,0,.811-.878,1.787,1.787,0,0,0,.067-1.216,3.671,3.671,0,0,0-.752-1.328,8.114,8.114,0,0,0-1.469-1.275,18.209,18.209,0,0,0-1.728-1.064c-.538-.316-1.041-.578-1.446-.809a9.124,9.124,0,0,1-.906-.579,2.158,2.158,0,0,1-.285-.246,2.036,2.036,0,0,1,.2.311,7.694,7.694,0,0,1,.413.939c.157.408.315.91.474,1.471s.346,1.164.549,1.782c.1.308.212.6.331.875a6.854,6.854,0,0,0,.39.755,3.407,3.407,0,0,0,.959,1.091,2.328,2.328,0,0,0,1.179.438,2.172,2.172,0,0,0,1.212-.268" transform="translate(12.267 -258.087)" fill="#8a1f1f"/>
        <path id="Trazado_193743" data-name="Trazado 193743" d="M144.413,476.455a4.226,4.226,0,0,0,2.6-2.418,4.454,4.454,0,0,0,.376-1.845,3.116,3.116,0,0,0-.889-1.741,7.714,7.714,0,0,0-1.669-1.347,8.988,8.988,0,0,0-1.817-.812,5.461,5.461,0,0,0-1.625-.288,2.562,2.562,0,0,0-1.292.3,3.549,3.549,0,0,0-1.455,2.3,8.444,8.444,0,0,0-.293,1.711,5.943,5.943,0,0,0,.081,1.8,3.732,3.732,0,0,0,.24.821,1.759,1.759,0,0,0,.5.645,5.084,5.084,0,0,0,1.6.813,7.172,7.172,0,0,0,.869.237,5.512,5.512,0,0,0,.907.1,5.249,5.249,0,0,0,1.867-.276" transform="translate(29.87 -267.563)" fill="#8a1f1f"/>
        <path id="Trazado_193744" data-name="Trazado 193744" d="M136.885,496.205a4.477,4.477,0,0,0,1.8-.531,4.07,4.07,0,0,0,1.366-1.216,4.359,4.359,0,0,0,.724-1.743,4.663,4.663,0,0,0-.091-2.021,5.541,5.541,0,0,0-.363-.978,5.4,5.4,0,0,0-.554-.841,4.676,4.676,0,0,0-3.274-1.738,4.733,4.733,0,0,0-1.878.249,4.926,4.926,0,0,0-1.6.917,5.068,5.068,0,0,0-1.106,1.326,4.8,4.8,0,0,0-.544,1.533,3.5,3.5,0,0,0-.035.8,3.353,3.353,0,0,0,.114.8,4.044,4.044,0,0,0,.72,1.439,4.859,4.859,0,0,0,1.228,1.108,5.843,5.843,0,0,0,1.612.717,5.454,5.454,0,0,0,1.882.179" transform="translate(39.665 -278.495)" fill="#8a1f1f"/>
        <path id="Trazado_193745" data-name="Trazado 193745" d="M133.214,517.241a4.268,4.268,0,0,0,1.882.269,4.219,4.219,0,0,0,2.608-1.275,4.71,4.71,0,0,0,.662-.837,5.97,5.97,0,0,0,.473-.992,5.05,5.05,0,0,0,.248-1.1,4.133,4.133,0,0,0,0-1.114,4.811,4.811,0,0,0-.225-1.027,4.433,4.433,0,0,0-1.038-1.653,4.27,4.27,0,0,0-1.572-.983,4.577,4.577,0,0,0-1.882-.224,5.346,5.346,0,0,0-1.809.487,5.608,5.608,0,0,0-1.457.961,4.855,4.855,0,0,0-1,1.235,3.782,3.782,0,0,0-.313.677,5.081,5.081,0,0,0-.16.712,3.288,3.288,0,0,0,0,.715,2.792,2.792,0,0,0,.148.688,4.371,4.371,0,0,0,.28.666,6.324,6.324,0,0,0,.411.654,6.445,6.445,0,0,0,1.155,1.217,5.614,5.614,0,0,0,1.586.929" transform="translate(42.176 -290.591)" fill="#8a1f1f"/>
        <path id="Trazado_193746" data-name="Trazado 193746" d="M137.425,534.912a3.5,3.5,0,0,0,1.032,1.474,3.175,3.175,0,0,0,.811.5,4.408,4.408,0,0,0,.991.286,4.08,4.08,0,0,0,1.133.037,4.969,4.969,0,0,0,1.216-.239,6.57,6.57,0,0,0,1.215-.536,7.524,7.524,0,0,0,1.114-.826,7.883,7.883,0,0,0,.877-1.025,6.817,6.817,0,0,0,.552-1.1,4.427,4.427,0,0,0,.238-1.089,4.255,4.255,0,0,0,.022-.517,4.179,4.179,0,0,0-.066-.5,3.669,3.669,0,0,0-.3-.9,3.06,3.06,0,0,0-.521-.752,3.951,3.951,0,0,0-1.55-1.012,5.977,5.977,0,0,0-1.845-.353c-.3-.013-.591,0-.89.013a7.6,7.6,0,0,0-.841.092q-.2.034-.384.078c-.131.023-.257.048-.378.077a5.922,5.922,0,0,0-.663.211,2.24,2.24,0,0,0-.56.264,2.246,2.246,0,0,0-.8.745,2.415,2.415,0,0,0-.254.5c-.06.2-.142.371-.191.591s-.094.455-.143.684a7.043,7.043,0,0,0-.094.76c-.017.273-.033.539-.029.815a5.122,5.122,0,0,0,.306,1.715" transform="translate(31.197 -302.07)" fill="#8a1f1f"/>
        <path id="Trazado_193747" data-name="Trazado 193747" d="M156.622,538.582a3.735,3.735,0,0,0,1.427,4.032,5.876,5.876,0,0,0,.927.544,4.937,4.937,0,0,0,1.109.367,5.6,5.6,0,0,0,1.251.159,7.991,7.991,0,0,0,1.282-.084,7.6,7.6,0,0,0,1.191-.335,4.794,4.794,0,0,0,1.025-.533,4.228,4.228,0,0,0,.809-.679,3.9,3.9,0,0,0,.56-.8,2.974,2.974,0,0,0,.293-.847,3.283,3.283,0,0,0-.187-1.753,5.337,5.337,0,0,0-.915-1.513,8.35,8.35,0,0,0-.582-.629,7,7,0,0,0-.6-.527,7.63,7.63,0,0,0-.623-.444,6.077,6.077,0,0,0-.63-.33,3.944,3.944,0,0,0-1.354-.306,5.32,5.32,0,0,0-.728.047,6.8,6.8,0,0,0-.727.186,4.235,4.235,0,0,0-.725.3c-.238.133-.476.261-.706.416a5.726,5.726,0,0,0-1.258,1.169,4.53,4.53,0,0,0-.835,1.556" transform="translate(2.313 -305.81)" fill="#8a1f1f"/>
        <path id="Trazado_193748" data-name="Trazado 193748" d="M178.113,531.855a3.768,3.768,0,0,0-.4,3.381,4.54,4.54,0,0,0,1.018,1.568,5.36,5.36,0,0,0,1.757,1.173,6,6,0,0,0,2.138.466,5,5,0,0,0,1.043-.075,5.237,5.237,0,0,0,.96-.256,4.148,4.148,0,0,0,1.553-1.019,3.777,3.777,0,0,0,.887-1.543,4.389,4.389,0,0,0,.146-1.742,5.04,5.04,0,0,0-.461-1.591,4.512,4.512,0,0,0-.413-.7,5.212,5.212,0,0,0-.524-.609,4.35,4.35,0,0,0-1.386-.921,4.986,4.986,0,0,0-1.688-.376,5.336,5.336,0,0,0-1.741.208,4.991,4.991,0,0,0-2.887,2.038" transform="translate(-28.134 -302.779)" fill="#8a1f1f"/>
        <path id="Trazado_193749" data-name="Trazado 193749" d="M196.717,520.358a3.869,3.869,0,0,0-.967,3.264,4.174,4.174,0,0,0,.668,1.678,5.393,5.393,0,0,0,1.414,1.4,5.884,5.884,0,0,0,1.9.8,5.207,5.207,0,0,0,1.955.055,4.6,4.6,0,0,0,1.73-.639,4.243,4.243,0,0,0,1.928-2.92,4.466,4.466,0,0,0-.049-1.682,4.516,4.516,0,0,0-.663-1.523,4.258,4.258,0,0,0-1.247-1.219,4.646,4.646,0,0,0-1.66-.712,5.615,5.615,0,0,0-1.794-.1,5.059,5.059,0,0,0-3.216,1.6" transform="translate(-54.737 -296.561)" fill="#8a1f1f"/>
        <path id="Trazado_193750" data-name="Trazado 193750" d="M213.4,506.5a4.029,4.029,0,0,0-1.331,3.161,4.145,4.145,0,0,0,.462,1.711,4.826,4.826,0,0,0,1.2,1.516,5.572,5.572,0,0,0,1.741.981,5.133,5.133,0,0,0,1.9.273,4.594,4.594,0,0,0,3.279-1.5,4.287,4.287,0,0,0,1.082-3.225,4.462,4.462,0,0,0-.466-1.615,4.322,4.322,0,0,0-1.11-1.384,5.006,5.006,0,0,0-1.592-.908,5.5,5.5,0,0,0-1.8-.287,5,5,0,0,0-3.37,1.281" transform="translate(-78.674 -288.837)" fill="#8a1f1f"/>
        <path id="Trazado_193751" data-name="Trazado 193751" d="M228.654,491.229a4.1,4.1,0,0,0-1.572,3.06,4.463,4.463,0,0,0,1.365,3.312,5.049,5.049,0,0,0,1.63,1.094,5.312,5.312,0,0,0,1.844.422,4.755,4.755,0,0,0,3.423-1.227,4.292,4.292,0,0,0,1.076-4.779,4.637,4.637,0,0,0-1-1.48,5.107,5.107,0,0,0-3.3-1.458,5.019,5.019,0,0,0-3.466,1.055" transform="translate(-100.618 -280.231)" fill="#8a1f1f"/>
        <path id="Trazado_193752" data-name="Trazado 193752" d="M242.77,475.027A4.168,4.168,0,0,0,241.014,478a4.5,4.5,0,0,0,1.141,3.365,5.252,5.252,0,0,0,3.35,1.7,4.832,4.832,0,0,0,3.5-1.01,4.282,4.282,0,0,0,.5-6.254,5.167,5.167,0,0,0-6.741-.774" transform="translate(-120.973 -271.058)" fill="#8a1f1f"/>
        <path id="Trazado_193753" data-name="Trazado 193753" d="M255.176,458.688a3.174,3.174,0,0,0-1.165,2.415,7.231,7.231,0,0,0,.5,3.7,4.848,4.848,0,0,0,.471.842,2.1,2.1,0,0,0,.654.635,3.291,3.291,0,0,0,.9.359,7.506,7.506,0,0,0,.957.185,5.185,5.185,0,0,0,1.853-.075,4.706,4.706,0,0,0,1.7-.765,4.427,4.427,0,0,0,1.227-1.33,4.332,4.332,0,0,0,.564-1.616,4.26,4.26,0,0,0-.046-1.75,1.849,1.849,0,0,0-.449-.734,4.839,4.839,0,0,0-.714-.628,8.182,8.182,0,0,0-1.777-.951,9.8,9.8,0,0,0-1.827-.539,3.9,3.9,0,0,0-2.845.253" transform="translate(-139.247 -262.014)" fill="#8a1f1f"/>
        <path id="Trazado_193754" data-name="Trazado 193754" d="M268.866,441.7a2.1,2.1,0,0,1,.171.324,7.91,7.91,0,0,1,.334.964c.121.419.243.935.385,1.5s.286,1.205.506,1.831a7.993,7.993,0,0,0,.76,1.68,3.761,3.761,0,0,0,1.019,1.117,2.107,2.107,0,0,0,2.383.079,1.793,1.793,0,0,0,.723-.911,1.875,1.875,0,0,0-.006-1.18,3.509,3.509,0,0,0-.762-1.258,8.648,8.648,0,0,0-1.423-1.229c-1.115-.808-2.248-1.47-2.992-2a8.839,8.839,0,0,1-.839-.654,2.206,2.206,0,0,1-.26-.269" transform="translate(-158.495 -252.522)" fill="#8a1f1f"/>
        <path id="Trazado_193755" data-name="Trazado 193755" d="M48.949,230.071c.63-4.457,6.4-5.3,10.178-4.106,1.573.5,6.816,3.891,7.669,8.3.512,2.649-1.09,3.159-4.6-1.155a1.745,1.745,0,0,1-.414-1.636,2.023,2.023,0,0,1-.367.183,2.248,2.248,0,0,1-1,1.015l-3.291,1.79a7.576,7.576,0,0,1-3.405,1.33c-2.339.018-5.059-3.657-4.768-5.72" transform="translate(151.819 -128.906)" fill="#ee945a"/>
        <path id="Trazado_193756" data-name="Trazado 193756" d="M54.29,266.022c4.29-.7,19.233-4.008,7.375-17.643-1.129-1.3,8.352-.465,10.118-.8,3.1-.591,9.075,2.061,5.923,2.411-3.842.427-5.99,2.085-4.977,4.86,3.49,9.557-3.841,10.221-3.638,11.891,1.816,14.916-20.05,2.631-19.624,13.272,0,0-4.124-2.229-4.282-5.15-.312-5.765,3.388-7.907,9.107-8.839" transform="translate(141.856 -141.493)" fill="#db5c43"/>
        <path id="Trazado_193757" data-name="Trazado 193757" d="M81.487,314.986c-5.408,4.1-.778,13.054-.361,13.408,1.118.949-10.551-4.766-10.551-7.687,0-3.847,11.991-6.539,10.911-5.721" transform="translate(127.116 -179.997)" fill="#db5c43"/>
        <path id="Trazado_193758" data-name="Trazado 193758" d="M163.985,148.789C57.714,118.988,109.813-49.592,246,20.663c0,0-14.229,25.847-26.4,36.522-38.055,33.38-65.877,62.522-42.762,96.226.975,1.422-12.853-4.622-12.853-4.622" transform="translate(-54.354 -2.106)" fill="#a34532"/>
        <path id="Trazado_193759" data-name="Trazado 193759" d="M67.893,294.324a43.892,43.892,0,0,1-6.126.706,43.247,43.247,0,0,0,5.964-1.326c1.958-.548,3.9-1.143,5.855-1.734,3.9-1.189,7.81-2.369,11.746-3.493.049-.014.1-.025.151-.034a1.476,1.476,0,0,1,.612.024c-.074.062-.146.125-.222.185-2.043,1.614-1.6,1.257-1.6,1.257a1.909,1.909,0,0,1,.116,1.387c-3.273.592-7.175,1.271-10.45,1.905-2.011.386-4.024.778-6.05,1.122" transform="translate(126.661 -164.894)" fill="#8f2323"/>
        <path id="Trazado_193760" data-name="Trazado 193760" d="M66.189,239.443a11.345,11.345,0,0,0-2.121-2.21A8.1,8.1,0,0,0,61,235.71a5.974,5.974,0,0,0-2.067-.134,5.122,5.122,0,0,0-2.113.726,4.832,4.832,0,0,0-.446.309l-.107.081-.058.05-.108.091-.422.368a6.219,6.219,0,0,1-.878.657,3.491,3.491,0,0,1-.475.236c-.082.032-.164.059-.246.086l-.183.053a1.926,1.926,0,0,1-.855-.03,3.643,3.643,0,0,1-1.809-1.17,5.6,5.6,0,0,1-1.064-2.219,21.767,21.767,0,0,1-.47-2.686l-.369-.012a16.162,16.162,0,0,0-.408,2.812,6.441,6.441,0,0,0,.574,3.028,5.348,5.348,0,0,0,2.5,2.495,4.958,4.958,0,0,0,2.043.486c.184,0,.374-.01.556-.021.161-.015.323-.033.482-.058.318-.051.634-.107.94-.187a8.727,8.727,0,0,0,1.739-.644,6.727,6.727,0,0,0,.771-.455l.178-.13.083-.061.039-.026a1.275,1.275,0,0,1,.149-.1,2.446,2.446,0,0,1,.623-.3,2.986,2.986,0,0,1,.9-.145,10.934,10.934,0,0,1,2.515.314l1.439.319c.492.115,1.006.226,1.547.3Z" transform="translate(152.524 -132.703)" fill="#8f2323"/>
        <path id="Trazado_193761" data-name="Trazado 193761" d="M87.536,156.7a26.06,26.06,0,0,1,3.812,2.243,15.627,15.627,0,0,1,3.163,2.947,10.46,10.46,0,0,1,1.953,3.8,9.19,9.19,0,0,1,.1,4.418,9.943,9.943,0,0,0,1.282-4.54,11.849,11.849,0,0,0-.868-4.856,17.757,17.757,0,0,0-2.592-4.4,28.95,28.95,0,0,0-3.577-3.753Z" transform="translate(102.953 -87.224)" fill="#8f2323"/>
        <path id="Trazado_193762" data-name="Trazado 193762" d="M106.662,293.156a6.365,6.365,0,0,0-3.862.645,8.088,8.088,0,0,0-2.992,2.491,6.492,6.492,0,0,0-1.286,3.589,4.893,4.893,0,0,0,1.224,3.472,13.04,13.04,0,0,1,.713-3.179,11.16,11.16,0,0,1,1.422-2.6,15.927,15.927,0,0,1,2.057-2.305,19.1,19.1,0,0,1,2.723-2.114" transform="translate(89.056 -167.553)" fill="#8f2323"/>
        <path id="Trazado_193763" data-name="Trazado 193763" d="M244.53,317.069c12.68,0,23-9.53,23-21.244s-10.316-21.244-23-21.244v2.124c11.412,0,20.7,8.577,20.7,19.12s-9.284,19.12-20.7,19.12Z" transform="translate(-139.499 -156.981)" fill="#f5f2e1"/>
        <path id="Trazado_193764" data-name="Trazado 193764" d="M299.99,323.36c14.633,31.037,18.5,34.26-1.052,58.127-26.749,32.652,5.182,73.638,5.182,73.638s-45-33.147-50.225-54.844c-9.931-41.216,56.1-74.478,41.521-76.218" transform="translate(-188.147 -184.868)" fill="#190b08"/>
        <path id="Trazado_193765" data-name="Trazado 193765" d="M356.523,333.311c-2.4,24.268-9.767,23.379-29.133,32.13-29.945,13.531-18.177,45.748-18.177,45.748S282.2,381.546,290.24,366.571c18.295-34.069,84.093-32.06,62.094-34.351" transform="translate(-249.254 -189.934)" fill="#190b08"/>
        <path id="Trazado_193766" data-name="Trazado 193766" d="M150.856,146.284C45.268,114.481,107.589-54.794,242.192,18.02c0,0-11.759,25.2-25.361,34.282-42.225,28.192-72.707,58.237-54.772,96.2,3.874,8.2-11.2-2.219-11.2-2.219" transform="translate(-46.046 0)" fill="#190b08"/>
        <path id="Trazado_193767" data-name="Trazado 193767" d="M104.107,143.881a2.453,2.453,0,0,1-.4,1.4,5.817,5.817,0,0,1-1.395,1.49,17.13,17.13,0,0,1-4.489,2.359,37.683,37.683,0,0,1-5.3,1.526,33.641,33.641,0,0,1-5.591.78,34.457,34.457,0,0,0,5.737.493,40.626,40.626,0,0,0,5.862-.324,21.509,21.509,0,0,0,5.982-1.577,10.873,10.873,0,0,0,2.918-1.879,7.483,7.483,0,0,0,2.1-3.246Z" transform="translate(91.546 -82.258)" fill="#190b08"/>
        <path id="Trazado_193768" data-name="Trazado 193768" d="M105.148,136.4a2.942,2.942,0,0,1-1.7.9,4.954,4.954,0,0,1-1.718-.14,32.68,32.68,0,0,1-3.671-1.186,63.582,63.582,0,0,0-8.076-2.528,26.343,26.343,0,0,0-9.1-.616,14.974,14.974,0,0,0-4.56,1.31,8.883,8.883,0,0,0-3.48,2.879,21.807,21.807,0,0,1,4.2-.453,27.311,27.311,0,0,1,3.875.291c2.546.373,5.09.968,7.752,1.565a62.188,62.188,0,0,0,8.429,1.467,15.972,15.972,0,0,0,4.771-.228,5.353,5.353,0,0,0,2.363-1.141,2.81,2.81,0,0,0,.732-1.018,2.71,2.71,0,0,0,.18-1.1" transform="translate(102.47 -75.842)" fill="#190b08"/>
        <path id="Trazado_193769" data-name="Trazado 193769" d="M199.289,116.949c-1.1.268-2.173.58-3.256.893-.537.164-1.081.318-1.611.5s-1.054.373-1.583.56c-1.054.381-2.119.754-3.147,1.191s-2.054.886-3.088,1.332a81.759,81.759,0,0,0-11.675,6.64,67.817,67.817,0,0,0-10.251,8.7,55.813,55.813,0,0,0-8.145,10.711,43.149,43.149,0,0,0-4.925,12.539c-.059.276-.134.547-.179.827l-.133.839-.248,1.677c-.076.559-.1,1.129-.14,1.692s-.087,1.126-.088,1.693a31.972,31.972,0,0,0,.619,6.76c.121.555.2,1.113.363,1.659l.49,1.631.249.809.31.794c.2.529.426,1.051.642,1.572.232.516.509,1.017.762,1.521l.388.752c.066.125.126.251.2.373l.23.359a30.491,30.491,0,0,0,1.909,2.8l1.049,1.322q.565.632,1.151,1.239a26.825,26.825,0,0,0,2.455,2.3c.214.18.417.368.637.541l.679.5,1.359.975c.934.613,1.914,1.164,2.883,1.7-.593-.91-1.24-1.743-1.815-2.618l-.835-1.317-.418-.647c-.134-.218-.25-.448-.376-.669-.484-.9-1.015-1.75-1.4-2.671l-.639-1.335-.532-1.367a28.4,28.4,0,0,1-.931-2.725c-.159-.447-.236-.921-.357-1.375-.106-.46-.236-.909-.321-1.369a31.777,31.777,0,0,1-.565-5.511,34.412,34.412,0,0,1,1.542-10.815,49,49,0,0,1,4.514-10.252,86.116,86.116,0,0,1,14.883-18.352c2.943-2.839,6.077-5.563,9.31-8.278s6.65-5.293,10.042-8.09" transform="translate(-27.819 -66.861)" fill="#190b08"/>
        <path id="Trazado_193770" data-name="Trazado 193770" d="M82.389,66.6l9.294-2.524.674-.183L94.2,63.4a223.386,223.386,0,0,1,10.543,19.736l-2.312.284-5.256.7L86.5,85.581q-2.377.322-4.759.637-8.358,1.108-16.756,2.113c-.37.044-.74.085-1.111.128C71.056,83.606,77.717,74.285,82.389,66.6" transform="translate(107.042 -36.245)" fill="#ba2929"/>
        <path id="Trazado_193771" data-name="Trazado 193771" d="M112.813,89.084a58.8,58.8,0,0,0,6.273,1.2,117.811,117.811,0,0,0,21.07.692c7.048-.331,14.08-1.046,21.082-1.981,3.94-.527,7.869-1.131,11.791-1.785q4.576-.763,9.136-1.614c13.9-2.614,27.685-5.788,41.406-9.242q10.293-2.6,20.557-5.387l.348-.095c-4.672,7.687-11.333,17.008-18.518,21.862-14.018,1.64-28.1,3-42.243,3.815q-6.356.358-12.728.544c-3.029.088-6.059.15-9.093.164-7.286.03-14.586-.166-21.866-.76a121.7,121.7,0,0,1-21.6-3.52,60.427,60.427,0,0,1-6.348-2.1q.355-.9.732-1.8" transform="translate(-55.047 -40.517)" fill="#801c1b"/>
        <path id="Trazado_193772" data-name="Trazado 193772" d="M395.91,143.023a34.32,34.32,0,0,1,5.982-12.814,49.864,49.864,0,0,1,10-10.085c1.884-1.436,3.838-2.765,5.842-4,1.007-.615,2.01-1.214,3.017-1.806.5-.3,1-.6,1.484-.91.236-.158.492-.315.707-.492a4.167,4.167,0,0,0,.647-.584,3.331,3.331,0,0,1-.306,1.12.656.656,0,0,1,.175.208,1.143,1.143,0,0,1,.107.329,1.669,1.669,0,0,1,.04.333,6.3,6.3,0,0,1-.1,1.287,21.335,21.335,0,0,1-.6,2.436c-.472,1.59-1.028,3.134-1.581,4.668-1.122,3.062-2.3,6.062-3.414,9.062-2.256,5.986-4.325,11.945-5.943,17.975a106.731,106.731,0,0,0-3.346,18.314,91.41,91.41,0,0,0-.347,9.379c.015,3.165.274,6.344.53,9.62a44.268,44.268,0,0,1-5.534-19.031,60.336,60.336,0,0,1,2.095-19.8,80.63,80.63,0,0,1,7.649-18.41c1.636-2.9,3.421-5.711,5.309-8.438l2.859-4.049c.467-.673.941-1.342,1.353-2.028a6.01,6.01,0,0,0,.542-1.043,1.353,1.353,0,0,0,.1-.582c-.052.111-.105.221-.159.329a16.611,16.611,0,0,1-.918,1.52c-.65.979-1.359,1.9-2.065,2.808-1.424,1.807-2.9,3.517-4.328,5.225-2.884,3.4-5.677,6.715-8.175,10.153a67.045,67.045,0,0,0-6.5,10.75,58.623,58.623,0,0,0-2.352,5.885c-.684,2.042-1.193,4.158-1.787,6.4a18.558,18.558,0,0,1-1.038-3.3c-.062-.282-.126-.566-.178-.851a8.158,8.158,0,0,1-.139-.858c-.07-.573-.121-1.151-.18-1.733a27.5,27.5,0,0,1,.552-6.986" transform="translate(-365.486 -64.224)" fill="#6b1110"/>
      </g>
    </g>
  </g>
</svg>
